<?xml version="1.0" encoding="UTF-8" standalone="no"?>
<svg
   xmlns:dc="http://purl.org/dc/elements/1.1/"
   xmlns:cc="http://creativecommons.org/ns#"
   xmlns:rdf="http://www.w3.org/1999/02/22-rdf-syntax-ns#"
   xmlns:svg="http://www.w3.org/2000/svg"
   xmlns="http://www.w3.org/2000/svg"
   viewBox="0 0 900 900"
   height="900"
   width="900"
   xml:space="preserve"
   version="1.1"
   id="svg48824"><metadata
     id="metadata48830"><rdf:RDF><cc:Work
         rdf:about=""><dc:format>image/svg+xml</dc:format><dc:type
           rdf:resource="http://purl.org/dc/dcmitype/StillImage" /><dc:title></dc:title></cc:Work></rdf:RDF></metadata><defs
     id="defs48828" /><g
     transform="matrix(1.25,0,0,-1.25,0,900)"
     id="g48832"><g
       transform="matrix(0.1,0,0,0.1,45.408477,293.21274)"
       id="g48834"><path
         id="path48836"
         style="fill:#231f20;fill-opacity:1;fill-rule:nonzero;stroke:none"
         d="m 2137.66,554.309 c -57.5,26.332 -120.59,31.601 -198.52,31.601 l -122.5,0 0,-382.301 137.31,0 c 64.96,0 128.04,5.231 174.45,22.77 64.96,26.332 107.62,80.711 107.62,164.891 0,82.378 -38.95,135 -98.36,163.039 z m -217.11,517.351 -103.91,0 0,-326.18 96.48,0 c 135.47,0 232,33.321 232,175.36 0,114.02 -94.65,150.82 -224.57,150.82 z m 51.99,-1041.6795 -345.2,0 c -38.94,0 -48.24,14.0195 -48.24,50.8593 l 0,1117.1102 c 0,36.83 16.72,45.58 55.67,45.58 l 278.35,0 c 298.79,0 465.83,-85.94 465.83,-296.37 0,-122.769 -74.26,-229.719 -209.73,-257.808 l 0,-1.762 c 176.29,-12.262 309.92,-126.25 309.92,-303.36 0,-284.101 -243.12,-354.2495 -506.6,-354.2495" /><path
         id="path48838"
         style="fill:#231f20;fill-opacity:1;fill-rule:nonzero;stroke:none"
         d="m 3115.66,554.309 c -57.5,26.332 -120.58,31.601 -198.55,31.601 l -122.46,0 0,-382.301 137.3,0 c 64.96,0 128.05,5.231 174.46,22.77 64.96,26.332 107.61,80.711 107.61,164.891 0,82.378 -38.94,135 -98.36,163.039 z m -217.11,517.351 -103.9,0 0,-326.18 96.48,0 c 135.47,0 231.96,33.321 231.96,175.36 0,114.02 -94.65,150.82 -224.54,150.82 z m 51.96,-1041.6795 -345.16,0 c -38.98,0 -48.24,14.0195 -48.24,50.8593 l 0,1117.1102 c 0,36.83 16.72,45.58 55.66,45.58 l 278.36,0 c 298.75,0 465.78,-85.94 465.78,-296.37 0,-122.769 -74.21,-229.719 -209.68,-257.808 l 0,-1.762 c 176.29,-12.262 309.88,-126.25 309.88,-303.36 0,-284.101 -243.09,-354.2495 -506.6,-354.2495" /><path
         id="path48840"
         style="fill:#231f20;fill-opacity:1;fill-rule:nonzero;stroke:none"
         d="m 3906.25,8.92188 c -111.37,0 -243.09,19.29692 -354.45,56.12892 -33.4,12.2695 -37.11,31.5703 -27.85,56.0972 l 39.02,114.024 c 5.51,17.539 14.8,28.047 33.4,28.047 7.38,0 16.68,-1.758 27.81,-5.239 87.23,-29.839 183.71,-52.609 276.48,-52.609 100.24,0 213.44,45.578 213.44,156.051 0,80.668 -63.12,124.527 -135.47,157.848 l -241.25,113.992 c -131.76,61.367 -218.98,164.84 -218.98,301.636 0,213.942 222.69,331.442 428.67,331.442 122.46,0 224.53,-17.54 332.19,-61.4 24.1,-10.51 37.11,-21.02 37.11,-35.04 0,-7.03 -1.88,-14.06 -5.55,-22.81 l -44.57,-107 c -7.42,-19.25 -18.55,-26.29 -31.56,-26.29 -9.26,0 -18.56,3.52 -29.65,7.04 -76.09,29.8 -170.74,54.33 -244.96,54.33 -87.23,0 -187.46,-35.08 -187.46,-133.279 0,-71.871 70.54,-113.981 131.76,-142.032 l 206.01,-94.73 c 146.6,-66.598 246.8,-159.57 246.8,-320.899 0,-243.781 -209.69,-375.30812 -450.94,-375.30812" /><path
         id="path48842"
         style="fill:#231f20;fill-opacity:1;fill-rule:nonzero;stroke:none"
         d="m 4795.16,1071.66 -92.78,0 0,-424.379 115.04,0 c 148.48,0 246.84,75.391 246.84,217.457 0,152.582 -107.62,206.922 -269.1,206.922 z m 558.59,-1041.6795 -168.87,0 c -33.43,0 -55.66,8.75 -72.38,35.0703 l -267.23,412.1092 -142.89,0 0,-403.3202 c 0,-26.3203 -11.13,-43.8593 -42.69,-43.8593 l -152.15,0 c -31.56,0 -44.53,14.0195 -44.53,43.8593 l 0,1118.8302 c 0,38.6 9.26,50.86 50.08,50.86 l 274.64,0 c 161.45,0 332.19,-22.81 430.55,-129.76 59.38,-64.89 89.06,-150.821 89.06,-245.508 0,-161.371 -90.93,-287.621 -239.37,-348.992 l 304.3,-443.7114 c 5.58,-8.75 9.29,-17.5391 9.29,-24.5273 0,-14.0196 -11.09,-21.0508 -27.81,-21.0508" /><path
         id="path48844"
         style="fill:#231f20;fill-opacity:1;fill-rule:nonzero;stroke:none"
         d="M 6305.59,80.8398 C 6183.09,33.4883 6071.76,8.92188 5936.29,8.92188 c -391.56,0 -582.7,261.32812 -582.7,622.57812 0,359.488 228.29,634.84 601.25,634.84 128.05,0 243.09,-24.57 348.87,-73.67 22.27,-10.51 29.73,-19.29 29.73,-29.8 0,-7.03 -1.88,-14.03 -5.59,-22.82 l -42.69,-110.46 c -5.55,-15.79 -14.85,-22.82 -25.98,-22.82 -5.55,0 -12.97,3.52 -20.39,7.03 -92.81,45.59 -176.33,63.13 -269.1,63.13 -257.93,0 -358.17,-224.45 -358.17,-436.68 0,-270.039 133.64,-441.91 361.92,-441.91 89.02,0 179.96,19.25 267.18,56.129 9.3,3.511 16.72,6.992 22.27,6.992 13.01,0 22.27,-8.75 29.69,-26.289 l 37.11,-94.723 c 3.75,-8.75 5.58,-17.5 5.58,-24.539 0,-15.781 -7.42,-26.2811 -29.68,-35.0702" /><path
         id="path48846"
         style="fill:#231f20;fill-opacity:1;fill-rule:nonzero;stroke:none"
         d="M 621.051,495.051 C 599.102,464.859 571.48,440.09 541.129,421.73 l 22.312,-44.25 45.938,23.981 31.32,-59.883 -29.879,-15.387 -15.199,29.528 -62.262,-31.879 15.192,-29.68 -30.071,-15.512 -31.332,59.922 45.973,23.09 -23.043,44.02 C 476.051,390.641 439.379,382.672 402.27,382.199 l -2.231,-49.219 51.801,-2.14 -2.86,-67.539 -33.589,1.597 1.64,33.204 -69.961,3.519 -1.601,-33.359 -33.789,1.679 2.73,67.539 51.488,-2.968 2.223,49.328 c -36.133,3.988 -71.601,15.199 -104.922,34.109 l -26.359,-41.328 43.75,-27.82 -36.211,-57.071 -28.328,18.25 18.09,27.891 -58.832,38.039 -18.079,-28.082 -28.441,18.281 36.133,57.11 43.09,-28.278 26.519,41.559 c -29.883,22.27 -54.301,50.199 -72.383,80.629 L 118.75,494.699 142.809,448.77 82.8906,417.48 67.5,447.441 97.0703,462.59 65.1211,524.898 35.4297,509.629 l -15.4688,30.109 59.918,31.332 23.0901,-46.05 43.511,22.769 c -14.57,33.59 -22.769,69.449 -23.16,106.133 l -49.1012,1.918 -2.1485,-51.801 -67.62108,2.813 1.67969,33.628 33.17189,-1.679 3.4687,69.969 -33.32028,1.64 1.64058,33.86 67.5821,-2.891 -3.0508,-51.359 49.4999,-1.961 c 4.609,40.121 18.629,80.082 41.789,116.453 81.57,128.008 251.449,165.699 379.418,84.136 122.934,-78.32 162.652,-238.519 93.402,-364.449 l 41.75,-26.719 27.7,43.79 57.109,-36.219 -18.238,-28.321 -27.93,18.051 -37.891,-58.793 27.93,-18.117 -18.25,-28.48 -57.109,36.25 28.32,43.007 -42.07,26.403" /><path
         id="path48848"
         style="fill:#656263;fill-opacity:1;fill-rule:nonzero;stroke:none"
         d="m 1179.53,123.102 c 42.23,10.589 82.85,31.367 118.4,61.328 125,105.511 140.82,292.422 35.31,417.461 C 1227.7,726.852 1040.82,742.672 915.82,637.16 794.73,535.02 776.09,356.539 870.859,231.809 l -40.078,-33.829 -12.23,14.5 -27.852,-23.519 48.68,-57.66 27.851,23.519 -12.699,15.039 40.348,34.02 c 27.973,-28.707 61.062,-51.168 96.141,-66.051 l -17.348,-49.9178 -17.774,6.3984 -12.418,-34.2891 70.93,-25.5898 12.43,34.3008 -18.56,6.6797 18.01,49.9608 c 38.01,-10.633 77.85,-13.949 117.07,-9.141 l 9.14,-52.23 -18.67,-3.2812 6.4,-35.9805 74.26,13.3633 -6.4,35.8984 -19.42,-3.4805 -9.14,52.5825" /><path
         id="path48850"
         style="fill:#b2b1b1;fill-opacity:1;fill-rule:nonzero;stroke:none"
         d="m 1320.66,1003.8 c -26.21,31.53 -57.69,56.22 -92.26,73.91 l 18.28,41.21 c 16.56,0.16 32.42,9.81 39.53,25.98 9.69,21.99 -0.27,47.69 -22.3,57.38 -22,9.69 -47.7,-0.31 -57.39,-22.34 -7.03,-15.94 -3.63,-33.83 7.07,-46.14 l -18.2,-41.64 c -37.27,13.64 -77.11,19.69 -116.72,17.82 l -5.04,44.88 c 14.3,8.44 23.21,24.73 21.25,42.3 -2.58,23.87 -24.1,41.14 -47.97,38.48 -23.9,-2.58 -41.17,-24.1 -38.55,-48.01 1.91,-17.3 13.79,-31.09 29.22,-36.44 l 5.58,-45.16 c -38.51,-6.48 -75.969,-20.62 -110.461,-43.01 l -26.879,36.45 c 8.16,14.41 7.731,33.01 -2.699,47.23 -14.211,19.41 -41.48,23.59 -60.851,9.37 -19.379,-14.22 -23.559,-41.44 -9.34,-60.86 10.269,-14.02 27.461,-20.08 43.519,-16.91 l 27.071,-36.72 C 872.23,1015.52 847.379,984 829.73,949.629 l -41.531,17.961 c -0.148,16.609 -9.801,32.46 -25.969,39.57 -22,9.69 -47.699,-0.31 -57.39,-22.34 -9.68,-21.992 0.32,-47.66 22.308,-57.34 15.973,-7.031 33.872,-3.71 46.172,7.071 L 815.199,916.5 C 801.449,879.121 795.27,839.27 797.27,799.59 l -45,-5.039 c -8.438,14.289 -24.688,23.199 -42.27,21.289 -23.871,-2.621 -41.129,-24.11 -38.52,-48.012 2.622,-23.906 24.11,-41.129 48.008,-38.558 17.313,1.921 31.133,13.789 36.453,29.218 l 45.27,5.242 c 6.598,-38.089 20.777,-75.589 42.848,-109.808 L 807.66,626.77 c -14.461,8.128 -32.969,7.742 -47.23,-2.731 -19.41,-14.219 -23.551,-41.449 -9.379,-60.82 14.219,-19.418 41.488,-23.59 60.859,-9.379 14.031,10.32 20.039,27.5 16.961,43.48 l 36.91,27.071 c 26.059,-31.289 57.457,-56.129 91.918,-73.789 l -18.168,-41.481 c -16.601,-0.16 -32.422,-9.769 -39.57,-25.941 -9.691,-22.032 0.348,-47.731 22.34,-57.379 22,-9.731 47.699,0.269 57.39,22.301 6.989,15.937 3.629,33.867 -7.07,46.168 l 18.59,41.64 c 37.029,-13.43 76.759,-19.57 116.209,-17.691 l 5.16,-45 c -14.34,-8.481 -23.2,-24.688 -21.29,-42.27 2.62,-23.937 24.1,-41.168 48.01,-38.59 23.9,2.661 41.13,24.141 38.51,48.051 -1.87,17.301 -13.75,31.129 -29.18,36.442 l -4.57,45.429 c 43.52,7.66 86.41,25.348 124.34,53.199 83.01,60.86 122.54,157.309 118.16,252.93 l 47.42,4.77 c 8.44,-14.301 24.73,-23.2 42.31,-21.289 23.87,2.621 41.13,24.097 38.48,48.05 -2.62,23.86 -24.11,41.129 -48.01,38.508 -17.31,-1.871 -31.1,-13.75 -36.41,-29.179 l -45.19,-5 c -6.57,38.359 -20.75,75.859 -43.05,110.359 l 36.41,26.671 c 14.49,-8.159 33,-7.73 47.22,2.7 19.42,14.22 23.6,41.48 9.38,60.9 -14.18,19.33 -41.45,23.55 -60.82,9.3 -14.07,-10.28 -20.12,-27.43 -16.96,-43.48 l -36.68,-26.92 z m -366.359,-0.07 c 104.679,76.83 251.789,54.18 328.589,-50.511 76.8,-104.688 54.14,-251.84 -50.55,-328.629 -104.72,-76.762 -251.828,-54.11 -328.629,50.582 -76.762,104.687 -54.141,251.797 50.59,328.558" /></g></g></svg>