<?xml version="1.0" encoding="UTF-8" standalone="no"?>
<!-- Generator: Adobe Illustrator 21.0.2, SVG Export Plug-In . SVG Version: 6.00 Build 0)  -->

<svg
   xmlns:dc="http://purl.org/dc/elements/1.1/"
   xmlns:cc="http://creativecommons.org/ns#"
   xmlns:rdf="http://www.w3.org/1999/02/22-rdf-syntax-ns#"
   xmlns:svg="http://www.w3.org/2000/svg"
   xmlns="http://www.w3.org/2000/svg"
   xmlns:xlink="http://www.w3.org/1999/xlink"
   xmlns:sodipodi="http://sodipodi.sourceforge.net/DTD/sodipodi-0.dtd"
   xmlns:inkscape="http://www.inkscape.org/namespaces/inkscape"
   version="1.1"
   id="Layer_1"
   x="0px"
   y="0px"
   viewBox="0 0 1583.41 275.90247"
   xml:space="preserve"
   inkscape:version="0.91 r13725"
   sodipodi:docname="clopathlogo_final_small2.svg"
   width="1583.41"
   height="275.90247"><metadata
     id="metadata47509"><rdf:RDF><cc:Work
         rdf:about=""><dc:format>image/svg+xml</dc:format><dc:type
           rdf:resource="http://purl.org/dc/dcmitype/StillImage" /><dc:title></dc:title></cc:Work></rdf:RDF></metadata><defs
     id="defs47507" /><sodipodi:namedview
     pagecolor="#ffffff"
     bordercolor="#666666"
     borderopacity="1"
     objecttolerance="10"
     gridtolerance="10"
     guidetolerance="10"
     inkscape:pageopacity="0"
     inkscape:pageshadow="2"
     inkscape:window-width="3775"
     inkscape:window-height="2136"
     id="namedview47505"
     showgrid="false"
     fit-margin-top="0"
     fit-margin-left="0"
     fit-margin-right="0"
     fit-margin-bottom="0"
     inkscape:zoom="0.15936569"
     inkscape:cx="-3262.8249"
     inkscape:cy="2019.4027"
     inkscape:window-x="65"
     inkscape:window-y="24"
     inkscape:window-maximized="1"
     inkscape:current-layer="Layer_1" /><style
     type="text/css"
     id="style47398">
	.st0{fill:#3D3D79;}
	.st1{clip-path:url(#CLOPATH_LAB_copy_1_);}
	.st2{fill:#239FDF;}
	.st3{fill:none;enable-background:new    ;}
	.st4{enable-background:new    ;}
	.st5{clip-path:url(#SVGID_2_);}
</style><path
     id="CLOPATH_LAB"
     class="st0"
     d="m 480.41,31.232426 -29.3,0 0,119.592694 73.6,0 0,-23.9518 -44.3,0 0,-95.640894 z m 68.7,59.713182 c 0,34.929722 26.8,62.041832 64.9,62.041832 37,0 64.7,-27.11211 64.7,-62.041832 0,-34.929717 -29,-61.875498 -64.7,-61.875498 -35.4,0 -64.9,26.945781 -64.9,61.875498 l 0,0 z m 31.6,0 c 0,-17.797522 10.6,-35.67821 33.2,-35.67821 22.8,0 33.1,17.797522 33.1,35.67821 0,17.880692 -9.7,35.678212 -33.1,35.678212 -24,0 -33.2,-17.88069 -33.2,-35.678212 l 0,0 z m 126.6,-59.713182 0,119.592694 29.3,0 0,-44.32747 17.6,0 c 25.1,0 44,-13.805556 44,-38.42269 0,-24.783465 -18.9,-36.842534 -44,-36.842534 l -46.9,0 0,0 z m 29.3,53.475733 0,-31.769409 8.3,0 c 11.5,0 22.5,3.659303 22.5,15.96787 0,12.142235 -10.9,15.801539 -22.5,15.801539 l -8.3,0 0,0 z m 145.5,-53.475733 -27.1,0 -51.9,119.592694 31.5,0 9.5,-23.9518 49,0 9.5,23.9518 31.5,0 -52,-119.592694 z m 1,71.772254 -29,0 14.3,-34.763388 0.3,0 14.4,34.763388 z m 56,-47.820448 30.6,0 0,95.640888 29.3,0 0,-95.640888 30.6,0 0,-23.951806 -90.4,0 -0.1,23.951806 0,0 z m 146,47.654108 41.5,0 0,47.98678 29.3,0 0,-119.592694 -29.3,0 0,47.654113 -41.5,0 0,-47.654113 -29.3,0 0,119.592694 29.3,0 0,-47.98677 0,0 z m 192.7,-71.605914 -29.3,0 0,119.592694 73.6,0 0,-23.9518 -44.3,0 0,-95.640894 0,0 z m 142.1,0 -27.1,0 -51.9,119.592694 31.5,0 9.5,-23.9518 49,0 9.5,23.9518 31.5,0 -52,-119.592694 z m 0.9,71.772254 -29,0 14.3,-34.763388 0.3,0 14.4,34.763388 z m 71.7,-71.772254 0,119.592694 48.8,0 c 26.7,0 42.1,-13.63922 42.1,-33.34956 0,-19.29451 -11.4,-27.527944 -27.4,-30.189256 10.9,-5.239457 16.1,-14.637214 16.1,-25.698291 0,-22.787482 -17.5,-30.438753 -39.6,-30.438753 l -40,0.08317 0,0 z m 29.3,46.822453 0,-25.781457 2.3,0 c 12.8,0 19.5,3.659303 19.5,12.142235 0,9.979919 -6.9,13.639222 -19.5,13.639222 l -2.3,0 0,0 z m 0,51.729251 0,-28.27644 9.2,0 c 13.9,0 21.5,3.9088 21.5,14.96988 0,9.39776 -7.6,13.30656 -21.5,13.30656 l -9.2,0 0,0 z"
     inkscape:connector-curvature="0"
     style="fill:#3d3d79" /><g
     id="g47401"
     transform="matrix(1,0,0,0.83165992,-218.09,-73.39039)"><defs
       id="defs47403"><path
         id="CLOPATH_LAB_copy"
         d="m 604.6,240 c -29.5,0 -42.4,-23 -42.4,-42.4 0,-19.2 12.9,-42.2 42.4,-42.2 5.3,0.1 10.7,0.9 15.8,2.5 l 22,-21.5 c 0,0 -14.3,-13.2 -42.3,-13.2 -36.5,0 -69.7,33.5 -69.7,74.8 0,41.1 33.4,74.3 69.7,74.3 27.9,0 42.3,-13.2 42.3,-13.2 l -23,-23.1 c -4.5,2.6 -9.6,4 -14.8,4 z m 64.6,-114.2 0,143.8"
         inkscape:connector-curvature="0" /></defs><clipPath
       id="CLOPATH_LAB_copy_1_"><use
         xlink:href="#CLOPATH_LAB_copy"
         style="overflow:visible"
         id="use47407"
         x="0"
         y="0"
         width="100%"
         height="100%" /></clipPath><g
       class="st1"
       id="g47409"
       clip-path="url(#CLOPATH_LAB_copy_1_)"><rect
         x="434.5"
         y="50.900002"
         transform="matrix(0.7071,0.7071,-0.7071,0.7071,249.2437,-327.9608)"
         class="st2"
         width="172"
         height="172"
         id="rect47411"
         style="fill:#239fdf" /><rect
         x="556.09998"
         y="172.5"
         transform="matrix(0.7071,0.7071,-0.7071,0.7071,370.8661,-378.3384)"
         class="st0"
         width="172"
         height="172"
         id="rect47413"
         style="fill:#3d3d79" /></g></g><path
     class="st3"
     d=""
     id="path47415"
     inkscape:connector-curvature="0"
     style="fill:none;enable-background:new" /><path
     class="st3"
     d=""
     id="path47417"
     inkscape:connector-curvature="0"
     style="fill:none;enable-background:new" /><g
     class="st4"
     id="g47439"
     style="enable-background:new"
     transform="translate(-218.09,-130.12989)"><path
       class="st2"
       d="m 581.7,326.6 c 0,1.3 -0.5,2.5 -1.4,3.8 -1,1.3 -2.2,1.9 -3.8,1.9 -1,0 -2.1,-0.3 -3.1,-0.8 -3,-1.4 -6.3,-2.1 -9.8,-2.1 -4.3,0 -8,0.9 -11.2,2.7 -3.2,1.8 -5.7,4.4 -7.4,7.6 -1.7,3.3 -2.6,7 -2.6,11.3 0,7.2 1.9,12.7 5.9,16.5 3.9,3.7 9,5.6 15.3,5.6 3.7,0 7,-0.7 9.8,-2.1 1.1,-0.5 2.1,-0.7 2.9,-0.7 1.6,0 2.9,0.7 4.1,2 0.9,1.2 1.4,2.4 1.4,3.8 0,1 -0.2,1.9 -0.7,2.7 -0.5,0.8 -1.2,1.4 -2.1,1.8 -4.8,2.4 -9.9,3.6 -15.3,3.6 -6,0 -11.6,-1.3 -16.6,-3.8 -5,-2.5 -9.1,-6.3 -12.1,-11.3 -3,-5 -4.5,-11 -4.5,-18.1 0,-6.3 1.4,-11.9 4.3,-16.9 2.9,-5 6.8,-8.9 11.8,-11.7 5,-2.8 10.7,-4.2 17,-4.2 5.5,0 10.5,1.2 15.2,3.6 2,1.1 2.9,2.6 2.9,4.8 z"
       id="path47441"
       inkscape:connector-curvature="0"
       style="fill:#239fdf" /><path
       class="st2"
       d="m 634.6,371.9 c -2.2,3.9 -5.2,6.9 -9.1,9.1 -3.8,2.2 -8.1,3.2 -12.7,3.2 -4.7,0 -8.9,-1.1 -12.7,-3.2 -3.8,-2.1 -6.8,-5.2 -9,-9.1 -2.2,-3.9 -3.3,-8.3 -3.3,-13.2 0,-4.9 1.1,-9.3 3.3,-13.2 2.2,-3.9 5.2,-6.9 9,-9.1 3.8,-2.2 8,-3.3 12.7,-3.3 4.6,0 8.8,1.1 12.7,3.3 3.8,2.2 6.9,5.2 9.1,9.1 2.2,3.9 3.3,8.3 3.3,13.2 0,4.9 -1.1,9.3 -3.3,13.2 z M 625,350.6 c -1.3,-2.4 -2.9,-4.2 -5.1,-5.5 -2.2,-1.3 -4.5,-1.9 -7,-1.9 -2.5,0 -4.9,0.6 -7,1.9 -2.1,1.3 -3.8,3.1 -5.1,5.5 -1.3,2.4 -1.9,5.1 -1.9,8.1 0,3 0.6,5.7 1.9,8 1.3,2.3 2.9,4.1 5.1,5.4 2.1,1.3 4.5,1.9 7,1.9 2.5,0 4.9,-0.6 7,-1.9 2.1,-1.3 3.8,-3.1 5.1,-5.4 1.3,-2.3 1.9,-5 1.9,-8 0,-3.1 -0.7,-5.8 -1.9,-8.1 z"
       id="path47443"
       inkscape:connector-curvature="0"
       style="fill:#239fdf" /><path
       class="st2"
       d="m 716.6,338.6 c 2.3,3.7 3.5,8.9 3.5,15.4 l 0,23.6 c 0,1.6 -0.5,2.9 -1.6,4 -1,1.1 -2.4,1.6 -4,1.6 -1.6,0 -2.9,-0.5 -4,-1.6 -1,-1.1 -1.6,-2.4 -1.6,-4 l 0,-23.6 c 0,-3.4 -0.7,-6 -2,-8 -1.3,-1.9 -3.6,-2.9 -7,-2.9 -3.4,0 -6.1,1 -8.1,3.1 -1.9,2.1 -2.9,4.7 -2.9,7.8 l 0,23.6 c 0,1.6 -0.5,2.9 -1.6,4 -1,1.1 -2.4,1.6 -4,1.6 -1.6,0 -2.9,-0.5 -4,-1.6 -1,-1.1 -1.6,-2.4 -1.6,-4 l 0,-23.6 c 0,-3.4 -0.7,-6 -2,-8 -1.3,-1.9 -3.6,-2.9 -7,-2.9 -3.4,0 -6.1,1 -8.1,3.1 -1.9,2.1 -2.9,4.7 -2.9,7.8 l 0,23.6 c 0,1.6 -0.5,2.9 -1.6,4 -1,1.1 -2.4,1.6 -4,1.6 -1.6,0 -2.9,-0.5 -4,-1.6 -1,-1.1 -1.6,-2.4 -1.6,-4 l 0,-38.1 c 0,-1.6 0.5,-2.9 1.6,-4 1,-1.1 2.4,-1.6 4,-1.6 1.6,0 2.9,0.5 4,1.6 1,1.1 1.6,2.4 1.6,4 l 0,1.5 c 1.7,-2.2 3.8,-4.1 6.3,-5.7 2.5,-1.6 5.4,-2.3 8.5,-2.3 7.7,0 12.7,3.4 14.8,10.1 1.4,-2.6 3.5,-4.9 6.4,-7 2.9,-2.1 6.1,-3.1 9.7,-3.1 6.7,0 10.9,1.9 13.2,5.6 z"
       id="path47445"
       inkscape:connector-curvature="0"
       style="fill:#239fdf" /><path
       class="st2"
       d="m 769.1,336.3 c 3.4,2.2 6.2,5.2 8.2,9.1 2,3.9 3,8.3 3,13.2 0,4.9 -1,9.3 -2.9,13.2 -2,3.9 -4.7,6.9 -8.1,9.1 -3.4,2.2 -7.2,3.3 -11.3,3.3 -2.9,0 -5.7,-0.6 -8.3,-1.8 -2.6,-1.2 -4.8,-2.7 -6.5,-4.4 l 0,18.1 c 0,1.6 -0.5,2.9 -1.6,4 -1,1.1 -2.4,1.6 -4,1.6 -1.6,0 -2.9,-0.5 -4,-1.6 -1,-1 -1.6,-2.4 -1.6,-4.1 l 0,-56.5 c 0,-1.6 0.5,-2.9 1.6,-4 1,-1.1 2.4,-1.6 4,-1.6 1.6,0 2.9,0.5 4,1.6 1,1.1 1.6,2.4 1.6,4 l 0,0.4 c 1.5,-1.8 3.5,-3.5 6.2,-4.8 2.6,-1.4 5.4,-2.1 8.3,-2.1 4.2,0 8,1.1 11.4,3.3 z m -3.2,33.3 c 2.5,-2.9 3.8,-6.6 3.8,-11.1 0,-4.4 -1.2,-8.1 -3.7,-11 -2.5,-2.9 -5.7,-4.4 -9.7,-4.4 -4,0 -7.2,1.5 -9.8,4.4 -2.5,2.9 -3.8,6.6 -3.8,11 0,4.4 1.3,8.1 3.8,11.1 2.5,2.9 5.8,4.4 9.8,4.4 3.9,0 7.1,-1.4 9.6,-4.4 z"
       id="path47447"
       inkscape:connector-curvature="0"
       style="fill:#239fdf" /><path
       class="st2"
       d="m 830,335.6 c 1,1.1 1.6,2.4 1.6,4 l 0,23.4 c 0,6.6 -1.8,11.8 -5.5,15.6 -3.7,3.7 -8.9,5.6 -15.6,5.6 -6.7,0 -11.9,-1.9 -15.6,-5.6 -3.6,-3.7 -5.4,-8.9 -5.4,-15.6 l 0,-23.4 c 0,-1.6 0.5,-2.9 1.6,-4 1,-1.1 2.4,-1.6 4,-1.6 1.6,0 2.9,0.5 4,1.6 1,1.1 1.6,2.4 1.6,4 l 0,23.4 c 0,3.7 0.8,6.5 2.5,8.3 1.7,1.8 4.1,2.7 7.5,2.7 3.4,0 5.9,-0.9 7.6,-2.7 1.7,-1.8 2.5,-4.6 2.5,-8.3 l 0,-23.4 c 0,-1.6 0.5,-2.9 1.6,-4 1,-1.1 2.4,-1.6 4,-1.6 1.3,-0.1 2.6,0.5 3.6,1.6 z"
       id="path47449"
       inkscape:connector-curvature="0"
       style="fill:#239fdf" /><path
       class="st2"
       d="m 869.7,374.1 c 0.7,0.8 1.1,1.9 1.1,3.3 0,1.7 -0.9,3.1 -2.7,4.2 -1.8,1.1 -3.9,1.7 -6.1,1.7 -3.8,0 -7,-0.8 -9.6,-2.4 -2.6,-1.6 -3.9,-5.1 -3.9,-10.4 l 0,-25.5 -4.2,0 c -1.5,0 -2.7,-0.5 -3.7,-1.5 -1,-1 -1.5,-2.2 -1.5,-3.7 0,-1.4 0.5,-2.6 1.5,-3.5 1,-1 2.2,-1.4 3.7,-1.4 l 4.2,0 0,-5.9 c 0,-1.6 0.5,-2.9 1.6,-4 1.1,-1.1 2.4,-1.6 4,-1.6 1.5,0 2.8,0.5 3.9,1.6 1,1.1 1.6,2.4 1.6,4 l 0,5.9 6.5,0 c 1.5,0 2.7,0.5 3.7,1.5 1,1 1.5,2.2 1.5,3.7 0,1.4 -0.5,2.6 -1.5,3.5 -1,1 -2.2,1.4 -3.7,1.4 l -6.5,0 0,25 c 0,1.3 0.3,2.2 1,2.8 0.7,0.6 1.6,0.9 2.8,0.9 0.5,0 1.2,-0.1 2,-0.4 0.7,-0.3 1.4,-0.5 2.1,-0.5 0.7,0 1.5,0.4 2.2,1.3 z"
       id="path47451"
       inkscape:connector-curvature="0"
       style="fill:#239fdf" /><path
       class="st2"
       d="m 925.1,334.6 c 1,1 1.6,2.4 1.6,4.1 l 0,39 c 0,1.6 -0.5,2.9 -1.6,4 -1,1.1 -2.4,1.6 -4,1.6 -1.6,0 -2.9,-0.5 -3.9,-1.6 -1,-1 -1.6,-2.4 -1.6,-4 -1.5,1.8 -3.6,3.3 -6.2,4.6 -2.6,1.3 -5.4,1.9 -8.2,1.9 -4.2,0 -8.1,-1.1 -11.5,-3.3 -3.4,-2.2 -6.2,-5.2 -8.2,-9.1 -2,-3.9 -3,-8.3 -3,-13.2 0,-4.9 1,-9.3 2.9,-13.2 2,-3.9 4.7,-6.9 8.1,-9.1 3.4,-2.2 7.2,-3.3 11.3,-3.3 2.9,0 5.7,0.5 8.3,1.6 2.6,1.1 4.8,2.4 6.5,4.1 l 0,-0.1 c 0,-1.6 0.5,-2.9 1.6,-4 1,-1.1 2.4,-1.6 4,-1.6 1.6,0 2.9,0.5 3.9,1.6 z m -12.8,35.1 c 2.5,-2.9 3.8,-6.6 3.8,-11 0,-4.4 -1.3,-8.1 -3.8,-11.1 -2.5,-2.9 -5.8,-4.4 -9.8,-4.4 -3.9,0 -7.2,1.5 -9.7,4.4 -2.5,2.9 -3.8,6.6 -3.8,11.1 0,4.5 1.2,8.1 3.7,11 2.5,2.9 5.7,4.4 9.7,4.4 4,0 7.4,-1.5 9.9,-4.4 z"
       id="path47453"
       inkscape:connector-curvature="0"
       style="fill:#239fdf" /><path
       class="st2"
       d="m 964.8,374.1 c 0.7,0.8 1.1,1.9 1.1,3.3 0,1.7 -0.9,3.1 -2.7,4.2 -1.8,1.1 -3.9,1.7 -6.1,1.7 -3.8,0 -7,-0.8 -9.6,-2.4 -2.6,-1.6 -3.9,-5.1 -3.9,-10.4 l 0,-25.5 -4.2,0 c -1.5,0 -2.7,-0.5 -3.7,-1.5 -1,-1 -1.5,-2.2 -1.5,-3.7 0,-1.4 0.5,-2.6 1.5,-3.5 1,-1 2.2,-1.4 3.7,-1.4 l 4.2,0 0,-5.9 c 0,-1.6 0.5,-2.9 1.6,-4 1.1,-1.1 2.4,-1.6 4,-1.6 1.5,0 2.8,0.5 3.9,1.6 1,1.1 1.6,2.4 1.6,4 l 0,5.9 6.5,0 c 1.5,0 2.7,0.5 3.7,1.5 1,1 1.5,2.2 1.5,3.7 0,1.4 -0.5,2.6 -1.5,3.5 -1,1 -2.2,1.4 -3.7,1.4 l -6.5,0 0,25 c 0,1.3 0.3,2.2 1,2.8 0.7,0.6 1.6,0.9 2.8,0.9 0.5,0 1.2,-0.1 2,-0.4 0.7,-0.3 1.4,-0.5 2.1,-0.5 0.7,0 1.5,0.4 2.2,1.3 z"
       id="path47455"
       inkscape:connector-curvature="0"
       style="fill:#239fdf" /><path
       class="st2"
       d="m 976.7,326.9 c -0.9,-0.7 -1.3,-1.9 -1.3,-3.6 l 0,-1.8 c 0,-1.7 0.5,-2.9 1.4,-3.6 0.9,-0.7 2.4,-1 4.4,-1 2.2,0 3.7,0.3 4.5,1 0.9,0.7 1.3,1.9 1.3,3.6 l 0,1.8 c 0,1.8 -0.4,3 -1.3,3.6 -0.9,0.6 -2.4,1 -4.6,1 -2,0.1 -3.5,-0.3 -4.4,-1 z m 8.5,54.7 c -1,1.1 -2.4,1.6 -4,1.6 -1.6,0 -2.9,-0.5 -4,-1.6 -1,-1.1 -1.6,-2.4 -1.6,-4 l 0,-38.1 c 0,-1.6 0.5,-2.9 1.6,-4 1,-1.1 2.4,-1.6 4,-1.6 1.6,0 2.9,0.5 4,1.6 1,1.1 1.6,2.4 1.6,4 l 0,38.1 c 0,1.6 -0.5,3 -1.6,4 z"
       id="path47457"
       inkscape:connector-curvature="0"
       style="fill:#239fdf" /><path
       class="st2"
       d="m 1042.2,371.9 c -2.2,3.9 -5.2,6.9 -9.1,9.1 -3.8,2.2 -8.1,3.2 -12.7,3.2 -4.7,0 -8.9,-1.1 -12.7,-3.2 -3.8,-2.1 -6.8,-5.2 -9,-9.1 -2.2,-3.9 -3.3,-8.3 -3.3,-13.2 0,-4.9 1.1,-9.3 3.3,-13.2 2.2,-3.9 5.2,-6.9 9,-9.1 3.8,-2.2 8,-3.3 12.7,-3.3 4.6,0 8.8,1.1 12.7,3.3 3.8,2.2 6.9,5.2 9.1,9.1 2.2,3.9 3.3,8.3 3.3,13.2 0,4.9 -1.1,9.3 -3.3,13.2 z m -9.7,-21.3 c -1.3,-2.4 -2.9,-4.2 -5.1,-5.5 -2.2,-1.3 -4.5,-1.9 -7,-1.9 -2.5,0 -4.9,0.6 -7,1.9 -2.1,1.3 -3.8,3.1 -5.1,5.5 -1.3,2.4 -1.9,5.1 -1.9,8.1 0,3 0.6,5.7 1.9,8 1.3,2.3 2.9,4.1 5.1,5.4 2.1,1.3 4.5,1.9 7,1.9 2.5,0 4.9,-0.6 7,-1.9 2.1,-1.3 3.8,-3.1 5.1,-5.4 1.3,-2.3 1.9,-5 1.9,-8 0,-3.1 -0.6,-5.8 -1.9,-8.1 z"
       id="path47459"
       inkscape:connector-curvature="0"
       style="fill:#239fdf" /><path
       class="st2"
       d="m 1094,338.6 c 2.4,3.7 3.6,8.9 3.6,15.4 l 0,23.6 c 0,1.6 -0.5,2.9 -1.6,4 -1,1.1 -2.4,1.6 -4,1.6 -1.6,0 -2.9,-0.5 -4,-1.6 -1,-1.1 -1.6,-2.4 -1.6,-4 l 0,-23.6 c 0,-3.4 -0.7,-6 -2.1,-8 -1.4,-1.9 -3.8,-2.9 -7.3,-2.9 -3.6,0 -6.4,1 -8.4,3.1 -2,2.1 -3,4.7 -3,7.8 l 0,23.6 c 0,1.6 -0.5,2.9 -1.6,4 -1,1.1 -2.4,1.6 -4,1.6 -1.6,0 -2.9,-0.5 -4,-1.6 -1,-1.1 -1.6,-2.4 -1.6,-4 l 0,-38.1 c 0,-1.6 0.5,-2.9 1.6,-4 1,-1.1 2.4,-1.6 4,-1.6 1.6,0 2.9,0.5 4,1.6 1,1.1 1.6,2.4 1.6,4 l 0,1.6 c 1.7,-2.2 3.8,-4.1 6.5,-5.7 2.7,-1.6 5.6,-2.4 8.8,-2.4 6.4,0 10.7,1.9 13.1,5.6 z"
       id="path47461"
       inkscape:connector-curvature="0"
       style="fill:#239fdf" /><path
       class="st2"
       d="m 1153.5,334.6 c 1,1 1.6,2.4 1.6,4.1 l 0,39 c 0,1.6 -0.5,2.9 -1.6,4 -1,1.1 -2.4,1.6 -4,1.6 -1.6,0 -2.9,-0.5 -3.9,-1.6 -1,-1 -1.6,-2.4 -1.6,-4 -1.5,1.8 -3.6,3.3 -6.2,4.6 -2.6,1.3 -5.4,1.9 -8.2,1.9 -4.2,0 -8.1,-1.1 -11.5,-3.3 -3.4,-2.2 -6.2,-5.2 -8.2,-9.1 -2,-3.9 -3,-8.3 -3,-13.2 0,-4.9 1,-9.3 2.9,-13.2 2,-3.9 4.7,-6.9 8.1,-9.1 3.4,-2.2 7.2,-3.3 11.3,-3.3 2.9,0 5.7,0.5 8.3,1.6 2.6,1.1 4.8,2.4 6.5,4.1 l 0,-0.1 c 0,-1.6 0.5,-2.9 1.6,-4 1,-1.1 2.4,-1.6 4,-1.6 1.5,0 2.8,0.5 3.9,1.6 z m -12.8,35.1 c 2.5,-2.9 3.8,-6.6 3.8,-11 0,-4.4 -1.3,-8.1 -3.8,-11.1 -2.5,-2.9 -5.8,-4.4 -9.8,-4.4 -3.9,0 -7.2,1.5 -9.7,4.4 -2.5,2.9 -3.8,6.6 -3.8,11.1 0,4.5 1.2,8.1 3.7,11 2.5,2.9 5.7,4.4 9.7,4.4 4,0 7.3,-1.5 9.9,-4.4 z"
       id="path47463"
       inkscape:connector-curvature="0"
       style="fill:#239fdf" /><path
       class="st2"
       d="m 1177.4,381.6 c -1.1,1.1 -2.4,1.6 -4,1.6 -1.5,0 -2.8,-0.5 -3.9,-1.6 -1,-1.1 -1.6,-2.4 -1.6,-4 l 0,-56.9 c 0,-1.6 0.5,-2.9 1.6,-4 1.1,-1.1 2.4,-1.6 4,-1.6 1.5,0 2.8,0.5 3.9,1.6 1,1.1 1.6,2.4 1.6,4 l 0,56.9 c 0,1.6 -0.5,3 -1.6,4 z"
       id="path47465"
       inkscape:connector-curvature="0"
       style="fill:#239fdf" /><path
       class="st2"
       d="m 1271.1,320.2 c 0.9,1 1.4,2.2 1.4,3.7 l 0,53.7 c 0,1.6 -0.5,2.9 -1.6,4 -1.1,1.1 -2.4,1.6 -4,1.6 -0.9,0 -1.7,-0.1 -2.5,-0.4 -0.8,-0.3 -1.4,-0.7 -1.8,-1.2 l -33.8,-42.9 0,39.3 c 0,1.5 -0.5,2.7 -1.4,3.7 -1,1 -2.2,1.5 -3.7,1.5 -1.5,0 -2.7,-0.5 -3.6,-1.5 -0.9,-1 -1.4,-2.2 -1.4,-3.7 l 0,-53.7 c 0,-1.6 0.5,-2.9 1.6,-4 1.1,-1.1 2.4,-1.6 4,-1.6 0.9,0 1.8,0.2 2.7,0.6 0.9,0.4 1.5,0.9 2,1.5 l 33.5,42.8 0,-39.6 c 0,-1.5 0.5,-2.7 1.4,-3.7 1,-1 2.2,-1.5 3.6,-1.5 1.4,0 2.7,0.4 3.6,1.4 z"
       id="path47467"
       inkscape:connector-curvature="0"
       style="fill:#239fdf" /><path
       class="st2"
       d="m 1327.9,361 c -1.1,0.9 -2.4,1.4 -3.9,1.4 l -30.4,0 c 0.7,3.6 2.4,6.5 5.1,8.5 2.6,2.1 5.6,3.1 8.9,3.1 2.5,0 4.5,-0.2 5.9,-0.7 1.4,-0.5 2.5,-1 3.4,-1.5 0.8,-0.5 1.4,-0.9 1.7,-1.1 1.1,-0.6 2.1,-0.8 3.1,-0.8 1.3,0 2.4,0.5 3.3,1.4 0.9,0.9 1.4,2 1.4,3.2 0,1.7 -0.9,3.2 -2.6,4.5 -1.7,1.4 -4,2.6 -6.9,3.6 -2.9,1 -5.8,1.5 -8.8,1.5 -5.2,0 -9.7,-1.1 -13.5,-3.2 -3.8,-2.1 -6.8,-5.1 -8.9,-8.9 -2.1,-3.8 -3.1,-8 -3.1,-12.8 0,-5.3 1.1,-9.9 3.3,-13.9 2.2,-4 5.1,-7 8.8,-9.2 3.6,-2.1 7.5,-3.2 11.6,-3.2 4.1,0 7.9,1.1 11.5,3.3 3.6,2.2 6.5,5.2 8.6,8.9 2.2,3.7 3.2,7.8 3.2,12.2 0,1.6 -0.6,2.8 -1.7,3.7 z m -34.2,-7.8 24.1,0 0,-0.6 c -0.2,-2.6 -1.5,-4.8 -3.8,-6.6 -2.3,-1.8 -4.9,-2.8 -7.7,-2.8 -7.1,0 -11.3,3.3 -12.6,10 z"
       id="path47469"
       inkscape:connector-curvature="0"
       style="fill:#239fdf" /><path
       class="st2"
       d="m 1379.4,335.6 c 1,1.1 1.6,2.4 1.6,4 l 0,23.4 c 0,6.6 -1.8,11.8 -5.5,15.6 -3.7,3.7 -8.9,5.6 -15.6,5.6 -6.7,0 -11.9,-1.9 -15.6,-5.6 -3.6,-3.7 -5.4,-8.9 -5.4,-15.6 l 0,-23.4 c 0,-1.6 0.5,-2.9 1.6,-4 1,-1.1 2.4,-1.6 4,-1.6 1.6,0 2.9,0.5 4,1.6 1,1.1 1.6,2.4 1.6,4 l 0,23.4 c 0,3.7 0.8,6.5 2.5,8.3 1.7,1.8 4.1,2.7 7.5,2.7 3.4,0 5.9,-0.9 7.6,-2.7 1.7,-1.8 2.5,-4.6 2.5,-8.3 l 0,-23.4 c 0,-1.6 0.5,-2.9 1.6,-4 1,-1.1 2.4,-1.6 4,-1.6 1.3,-0.1 2.6,0.5 3.6,1.6 z"
       id="path47471"
       inkscape:connector-curvature="0"
       style="fill:#239fdf" /><path
       class="st2"
       d="m 1423.2,334.6 c 1.3,1 1.9,2.3 1.9,3.7 0,1.9 -0.5,3.3 -1.5,4.3 -1,1 -2.2,1.4 -3.5,1.4 -0.9,0 -2,-0.2 -3.1,-0.6 -0.2,-0.1 -0.6,-0.2 -1.2,-0.4 -0.6,-0.2 -1.3,-0.3 -2.1,-0.3 -1.6,0 -3.1,0.5 -4.6,1.5 -1.5,1 -2.7,2.5 -3.6,4.5 -1,2 -1.4,4.4 -1.4,7.1 l 0,21.8 c 0,1.6 -0.5,2.9 -1.6,4 -1,1.1 -2.4,1.6 -4,1.6 -1.6,0 -2.9,-0.5 -4,-1.6 -1,-1.1 -1.6,-2.4 -1.6,-4 l 0,-38.1 c 0,-1.6 0.5,-2.9 1.6,-4 1,-1.1 2.4,-1.6 4,-1.6 1.6,0 2.9,0.5 4,1.6 1,1.1 1.6,2.4 1.6,4 l 0,1.2 c 1.4,-2.5 3.4,-4.4 6.1,-5.8 2.6,-1.3 5.5,-2 8.5,-2 1.7,0.1 3.3,0.6 4.5,1.7 z"
       id="path47473"
       inkscape:connector-curvature="0"
       style="fill:#239fdf" /><path
       class="st2"
       d="m 1475,371.9 c -2.2,3.9 -5.2,6.9 -9.1,9.1 -3.8,2.2 -8.1,3.2 -12.7,3.2 -4.7,0 -8.9,-1.1 -12.7,-3.2 -3.8,-2.1 -6.8,-5.2 -9,-9.1 -2.2,-3.9 -3.3,-8.3 -3.3,-13.2 0,-4.9 1.1,-9.3 3.3,-13.2 2.2,-3.9 5.2,-6.9 9,-9.1 3.8,-2.2 8,-3.3 12.7,-3.3 4.6,0 8.8,1.1 12.7,3.3 3.8,2.2 6.9,5.2 9.1,9.1 2.2,3.9 3.3,8.3 3.3,13.2 0,4.9 -1.1,9.3 -3.3,13.2 z m -9.7,-21.3 c -1.3,-2.4 -2.9,-4.2 -5.1,-5.5 -2.2,-1.3 -4.5,-1.9 -7,-1.9 -2.5,0 -4.9,0.6 -7,1.9 -2.1,1.3 -3.8,3.1 -5.1,5.5 -1.3,2.4 -1.9,5.1 -1.9,8.1 0,3 0.6,5.7 1.9,8 1.3,2.3 2.9,4.1 5.1,5.4 2.1,1.3 4.5,1.9 7,1.9 2.5,0 4.9,-0.6 7,-1.9 2.1,-1.3 3.8,-3.1 5.1,-5.4 1.3,-2.3 1.9,-5 1.9,-8 0,-3.1 -0.6,-5.8 -1.9,-8.1 z"
       id="path47475"
       inkscape:connector-curvature="0"
       style="fill:#239fdf" /><path
       class="st2"
       d="m 1483.8,372.8 c 0,-1.6 0.8,-2.9 2.4,-4.1 0.9,-0.6 1.8,-0.8 2.7,-0.8 1.3,0 2.5,0.6 3.7,1.8 1.8,1.9 3.8,3.3 5.8,4.2 2,0.9 4.4,1.4 7.2,1.4 4.8,-0.2 7.2,-2 7.2,-5.4 0,-1.8 -0.8,-3.1 -2.4,-4.1 -1.6,-0.9 -4.2,-1.8 -7.6,-2.8 -3.6,-1 -6.5,-2 -8.7,-2.9 -2.2,-1 -4.2,-2.5 -5.8,-4.5 -1.6,-2 -2.4,-4.7 -2.4,-8.1 0,-2.9 0.8,-5.5 2.5,-7.7 1.7,-2.2 3.9,-3.9 6.6,-5.1 2.7,-1.2 5.6,-1.8 8.7,-1.8 3.1,0 6.3,0.6 9.4,1.8 3.1,1.2 5.6,2.9 7.4,5.2 0.8,1 1.2,2.1 1.2,3.3 0,1.4 -0.6,2.6 -1.8,3.5 -0.9,0.7 -1.8,1 -2.9,1 -1.4,0 -2.5,-0.4 -3.3,-1.3 -1.1,-1.4 -2.5,-2.4 -4.3,-3.2 -1.8,-0.8 -3.7,-1.2 -5.9,-1.2 -4.7,0 -7,1.7 -7,5.1 0,1.4 0.4,2.4 1.3,3.3 0.9,0.8 1.9,1.5 3.3,1.9 1.3,0.5 3.2,1 5.6,1.7 3.3,0.9 6.1,1.9 8.3,2.9 2.2,1 4.1,2.5 5.6,4.5 1.5,2 2.3,4.7 2.3,8 0,3 -0.9,5.6 -2.7,7.9 -1.8,2.2 -4.1,3.9 -6.9,5.1 -2.8,1.2 -5.7,1.8 -8.6,1.8 -4.1,0 -7.8,-0.7 -11.3,-2 -3.5,-1.4 -6.4,-3.5 -8.6,-6.5 -0.7,-0.8 -1,-1.8 -1,-2.9 z"
       id="path47477"
       inkscape:connector-curvature="0"
       style="fill:#239fdf" /><path
       class="st2"
       d="m 1566,335.5 c 3.2,1.6 4.8,3.8 4.8,6.5 0,1.4 -0.4,2.5 -1.2,3.5 -0.8,1 -1.8,1.5 -3.1,1.5 -1,0 -1.8,-0.1 -2.4,-0.4 -0.6,-0.3 -1.2,-0.6 -1.8,-1.1 -0.6,-0.5 -1.2,-0.8 -1.7,-1.2 -0.6,-0.3 -1.5,-0.6 -2.7,-0.8 -1.2,-0.2 -2.2,-0.4 -2.9,-0.4 -4.6,0 -8.2,1.4 -10.8,4.3 -2.6,2.9 -3.9,6.6 -3.9,11.2 0,4.4 1.3,8.1 4,11 2.6,2.9 6,4.4 10.1,4.4 3,0 5.3,-0.4 6.7,-1.1 0.4,-0.2 0.9,-0.5 1.5,-1 0.6,-0.5 1.2,-0.8 1.8,-1.1 0.6,-0.2 1.2,-0.4 2,-0.4 1.5,0 2.7,0.5 3.6,1.5 0.9,1 1.3,2.2 1.3,3.8 0,1.5 -0.9,2.9 -2.6,4.1 -1.7,1.3 -4,2.3 -6.8,3.1 -2.8,0.8 -5.8,1.2 -9,1.2 -4.7,0 -8.9,-1.1 -12.5,-3.3 -3.6,-2.2 -6.4,-5.3 -8.3,-9.2 -2,-3.9 -2.9,-8.2 -2.9,-13 0,-5 1,-9.4 3.1,-13.3 2.1,-3.9 4.9,-6.9 8.6,-9.1 3.7,-2.2 7.9,-3.3 12.5,-3.3 5.2,0.1 9.4,0.9 12.6,2.6 z"
       id="path47479"
       inkscape:connector-curvature="0"
       style="fill:#239fdf" /><path
       class="st2"
       d="m 1579.7,326.9 c -0.9,-0.7 -1.3,-1.9 -1.3,-3.6 l 0,-1.8 c 0,-1.7 0.5,-2.9 1.4,-3.6 0.9,-0.7 2.4,-1 4.4,-1 2.2,0 3.7,0.3 4.5,1 0.9,0.7 1.3,1.9 1.3,3.6 l 0,1.8 c 0,1.8 -0.4,3 -1.3,3.6 -0.9,0.6 -2.4,1 -4.6,1 -2,0.1 -3.5,-0.3 -4.4,-1 z m 8.5,54.7 c -1,1.1 -2.4,1.6 -4,1.6 -1.6,0 -2.9,-0.5 -4,-1.6 -1,-1.1 -1.6,-2.4 -1.6,-4 l 0,-38.1 c 0,-1.6 0.5,-2.9 1.6,-4 1,-1.1 2.4,-1.6 4,-1.6 1.6,0 2.9,0.5 4,1.6 1,1.1 1.6,2.4 1.6,4 l 0,38.1 c 0,1.6 -0.5,3 -1.6,4 z"
       id="path47481"
       inkscape:connector-curvature="0"
       style="fill:#239fdf" /><path
       class="st2"
       d="m 1643.6,361 c -1.1,0.9 -2.4,1.4 -3.9,1.4 l -30.4,0 c 0.7,3.6 2.4,6.5 5.1,8.5 2.6,2.1 5.6,3.1 8.9,3.1 2.5,0 4.5,-0.2 5.9,-0.7 1.4,-0.5 2.5,-1 3.4,-1.5 0.8,-0.5 1.4,-0.9 1.7,-1.1 1.1,-0.6 2.1,-0.8 3.1,-0.8 1.3,0 2.4,0.5 3.3,1.4 0.9,0.9 1.4,2 1.4,3.2 0,1.7 -0.9,3.2 -2.6,4.5 -1.7,1.4 -4,2.6 -6.9,3.6 -2.9,1 -5.8,1.5 -8.8,1.5 -5.2,0 -9.7,-1.1 -13.5,-3.2 -3.8,-2.1 -6.8,-5.1 -8.9,-8.9 -2.1,-3.8 -3.1,-8 -3.1,-12.8 0,-5.3 1.1,-9.9 3.3,-13.9 2.2,-4 5.1,-7 8.8,-9.2 3.6,-2.1 7.5,-3.2 11.6,-3.2 4.1,0 7.9,1.1 11.5,3.3 3.6,2.2 6.5,5.2 8.6,8.9 2.2,3.7 3.2,7.8 3.2,12.2 0,1.6 -0.6,2.8 -1.7,3.7 z m -34.2,-7.8 24.1,0 0,-0.6 c -0.2,-2.6 -1.5,-4.8 -3.8,-6.6 -2.3,-1.8 -4.9,-2.8 -7.7,-2.8 -7.1,0 -11.3,3.3 -12.6,10 z"
       id="path47483"
       inkscape:connector-curvature="0"
       style="fill:#239fdf" /><path
       class="st2"
       d="m 1693.9,338.6 c 2.4,3.7 3.6,8.9 3.6,15.4 l 0,23.6 c 0,1.6 -0.5,2.9 -1.6,4 -1,1.1 -2.4,1.6 -4,1.6 -1.6,0 -2.9,-0.5 -4,-1.6 -1,-1.1 -1.6,-2.4 -1.6,-4 l 0,-23.6 c 0,-3.4 -0.7,-6 -2.1,-8 -1.4,-1.9 -3.8,-2.9 -7.3,-2.9 -3.6,0 -6.4,1 -8.4,3.1 -2,2.1 -3,4.7 -3,7.8 l 0,23.6 c 0,1.6 -0.5,2.9 -1.6,4 -1,1.1 -2.4,1.6 -4,1.6 -1.6,0 -2.9,-0.5 -4,-1.6 -1,-1.1 -1.6,-2.4 -1.6,-4 l 0,-38.1 c 0,-1.6 0.5,-2.9 1.6,-4 1,-1.1 2.4,-1.6 4,-1.6 1.6,0 2.9,0.5 4,1.6 1,1.1 1.6,2.4 1.6,4 l 0,1.6 c 1.7,-2.2 3.8,-4.1 6.5,-5.7 2.7,-1.6 5.6,-2.4 8.8,-2.4 6.4,0 10.7,1.9 13.1,5.6 z"
       id="path47485"
       inkscape:connector-curvature="0"
       style="fill:#239fdf" /><path
       class="st2"
       d="m 1743.6,335.5 c 3.2,1.6 4.8,3.8 4.8,6.5 0,1.4 -0.4,2.5 -1.2,3.5 -0.8,1 -1.8,1.5 -3.1,1.5 -1,0 -1.8,-0.1 -2.4,-0.4 -0.6,-0.3 -1.2,-0.6 -1.8,-1.1 -0.6,-0.5 -1.2,-0.8 -1.7,-1.2 -0.6,-0.3 -1.5,-0.6 -2.7,-0.8 -1.2,-0.2 -2.2,-0.4 -2.9,-0.4 -4.6,0 -8.2,1.4 -10.8,4.3 -2.6,2.9 -3.9,6.6 -3.9,11.2 0,4.4 1.3,8.1 4,11 2.6,2.9 6,4.4 10.1,4.4 3,0 5.3,-0.4 6.7,-1.1 0.4,-0.2 0.9,-0.5 1.5,-1 0.6,-0.5 1.2,-0.8 1.8,-1.1 0.6,-0.2 1.2,-0.4 2,-0.4 1.5,0 2.7,0.5 3.6,1.5 0.9,1 1.3,2.2 1.3,3.8 0,1.5 -0.9,2.9 -2.6,4.1 -1.7,1.3 -4,2.3 -6.8,3.1 -2.8,0.8 -5.8,1.2 -9,1.2 -4.7,0 -8.9,-1.1 -12.5,-3.3 -3.6,-2.2 -6.4,-5.3 -8.3,-9.2 -2,-3.9 -2.9,-8.2 -2.9,-13 0,-5 1,-9.4 3.1,-13.3 2.1,-3.9 4.9,-6.9 8.6,-9.1 3.7,-2.2 7.9,-3.3 12.5,-3.3 5.2,0.1 9.4,0.9 12.6,2.6 z"
       id="path47487"
       inkscape:connector-curvature="0"
       style="fill:#239fdf" /><path
       class="st2"
       d="m 1799.4,361 c -1.1,0.9 -2.4,1.4 -3.9,1.4 l -30.4,0 c 0.7,3.6 2.4,6.5 5.1,8.5 2.6,2.1 5.6,3.1 8.9,3.1 2.5,0 4.5,-0.2 5.9,-0.7 1.4,-0.5 2.5,-1 3.4,-1.5 0.8,-0.5 1.4,-0.9 1.7,-1.1 1.1,-0.6 2.1,-0.8 3.1,-0.8 1.3,0 2.4,0.5 3.3,1.4 0.9,0.9 1.4,2 1.4,3.2 0,1.7 -0.9,3.2 -2.6,4.5 -1.7,1.4 -4,2.6 -6.9,3.6 -2.9,1 -5.8,1.5 -8.8,1.5 -5.2,0 -9.7,-1.1 -13.5,-3.2 -3.8,-2.1 -6.8,-5.1 -8.9,-8.9 -2.1,-3.8 -3.1,-8 -3.1,-12.8 0,-5.3 1.1,-9.9 3.3,-13.9 2.2,-4 5.1,-7 8.8,-9.2 3.6,-2.1 7.5,-3.2 11.6,-3.2 4.1,0 7.9,1.1 11.5,3.3 3.6,2.2 6.5,5.2 8.6,8.9 2.2,3.7 3.2,7.8 3.2,12.2 0,1.6 -0.6,2.8 -1.7,3.7 z m -34.2,-7.8 24.1,0 0,-0.6 c -0.2,-2.6 -1.5,-4.8 -3.8,-6.6 -2.3,-1.8 -4.9,-2.8 -7.7,-2.8 -7.1,0 -11.3,3.3 -12.6,10 z"
       id="path47489"
       inkscape:connector-curvature="0"
       style="fill:#239fdf" /></g><g
     id="g47511"
     transform="matrix(0.55638223,0,0,0.54939871,-5.2108544,-8.7043897)"><path
       id="path47419"
       d="m 124.9,297.9 c 6.4,0 11.5,5.1 11.5,11.5 0,6.4 -5.1,11.5 -11.5,11.5 -6.4,0 -11.5,-5.1 -11.5,-11.5 0,-6.4 5.1,-11.5 11.5,-11.5 l 0,0 z m 0,0 c 6.4,0 11.5,5.1 11.5,11.5 0,6.4 -5.1,11.5 -11.5,11.5 -6.4,0 -11.5,-5.1 -11.5,-11.5 0,-6.4 5.1,-11.5 11.5,-11.5 l 0,0 z m 0,0 c 6.4,0 11.5,5.1 11.5,11.5 0,6.4 -5.1,11.5 -11.5,11.5 -6.4,0 -11.5,-5.1 -11.5,-11.5 0,-6.4 5.1,-11.5 11.5,-11.5 l 0,0 z m 0,0 c 6.4,0 11.5,5.1 11.5,11.5 0,6.4 -5.1,11.5 -11.5,11.5 -6.4,0 -11.5,-5.1 -11.5,-11.5 0,-6.4 5.1,-11.5 11.5,-11.5 l 0,0 z"
       class="st0"
       inkscape:connector-curvature="0"
       style="fill:#3d3d79" /><path
       d="m 82.9,253.9 c 6.4,0 11.5,5.1 11.5,11.5 0,6.4 -5.1,11.5 -11.5,11.5 -6.4,0 -11.5,-5.1 -11.5,-11.5 l 0,0 c 0,-6.4 5.1,-11.5 11.5,-11.5 z m 0,0 c 6.4,0 11.5,5.1 11.5,11.5 0,6.4 -5.1,11.5 -11.5,11.5 -6.4,0 -11.5,-5.1 -11.5,-11.5 l 0,0 c 0,-6.4 5.1,-11.5 11.5,-11.5 z m 0,0 c 6.4,0 11.5,5.1 11.5,11.5 0,6.4 -5.1,11.5 -11.5,11.5 -6.4,0 -11.5,-5.1 -11.5,-11.5 l 0,0 c 0,-6.4 5.1,-11.5 11.5,-11.5 z m 0,0 c 6.4,0 11.5,5.1 11.5,11.5 0,6.4 -5.1,11.5 -11.5,11.5 -6.4,0 -11.5,-5.1 -11.5,-11.5 l 0,0 c 0,-6.4 5.1,-11.5 11.5,-11.5 z"
       class="st0"
       id="Ellipse_1_copy"
       inkscape:connector-curvature="0"
       style="fill:#3d3d79" /><path
       d="m 166.9,253.9 c 6.4,0 11.5,5.1 11.5,11.5 0,6.4 -5.1,11.5 -11.5,11.5 -6.4,0 -11.5,-5.1 -11.5,-11.5 l 0,0 c 0,-6.4 5.1,-11.5 11.5,-11.5 z m 0,0 c 6.4,0 11.5,5.1 11.5,11.5 0,6.4 -5.1,11.5 -11.5,11.5 -6.4,0 -11.5,-5.1 -11.5,-11.5 l 0,0 c 0,-6.4 5.1,-11.5 11.5,-11.5 z m 0,0 c 6.4,0 11.5,5.1 11.5,11.5 0,6.4 -5.1,11.5 -11.5,11.5 -6.4,0 -11.5,-5.1 -11.5,-11.5 l 0,0 c 0,-6.4 5.1,-11.5 11.5,-11.5 z m 0,0 c 6.4,0 11.5,5.1 11.5,11.5 0,6.4 -5.1,11.5 -11.5,11.5 -6.4,0 -11.5,-5.1 -11.5,-11.5 l 0,0 c 0,-6.4 5.1,-11.5 11.5,-11.5 z"
       class="st0"
       id="Ellipse_1_copy_2"
       inkscape:connector-curvature="0"
       style="fill:#3d3d79" /><path
       d="m 209.9,209.9 c 6.4,0 11.5,5.1 11.5,11.5 0,6.4 -5.1,11.5 -11.5,11.5 -6.4,0 -11.5,-5.1 -11.5,-11.5 l 0,0 c 0,-6.4 5.1,-11.5 11.5,-11.5 z m 0,0 c 6.4,0 11.5,5.1 11.5,11.5 0,6.4 -5.1,11.5 -11.5,11.5 -6.4,0 -11.5,-5.1 -11.5,-11.5 l 0,0 c 0,-6.4 5.1,-11.5 11.5,-11.5 z m 0,0 c 6.4,0 11.5,5.1 11.5,11.5 0,6.4 -5.1,11.5 -11.5,11.5 -6.4,0 -11.5,-5.1 -11.5,-11.5 l 0,0 c 0,-6.4 5.1,-11.5 11.5,-11.5 z m 0,0 c 6.4,0 11.5,5.1 11.5,11.5 0,6.4 -5.1,11.5 -11.5,11.5 -6.4,0 -11.5,-5.1 -11.5,-11.5 l 0,0 c 0,-6.4 5.1,-11.5 11.5,-11.5 z"
       class="st0"
       id="Ellipse_1_copy_3"
       inkscape:connector-curvature="0"
       style="fill:#3d3d79" /><path
       d="m 251.9,169.9 c 6.4,0 11.5,5.1 11.5,11.5 0,6.4 -5.1,11.5 -11.5,11.5 -6.4,0 -11.5,-5.1 -11.5,-11.5 l 0,0 c 0,-6.4 5.1,-11.5 11.5,-11.5 z m 0,0 c 6.4,0 11.5,5.1 11.5,11.5 0,6.4 -5.1,11.5 -11.5,11.5 -6.4,0 -11.5,-5.1 -11.5,-11.5 l 0,0 c 0,-6.4 5.1,-11.5 11.5,-11.5 z m 0,0 c 6.4,0 11.5,5.1 11.5,11.5 0,6.4 -5.1,11.5 -11.5,11.5 -6.4,0 -11.5,-5.1 -11.5,-11.5 l 0,0 c 0,-6.4 5.1,-11.5 11.5,-11.5 z m 0,0 c 6.4,0 11.5,5.1 11.5,11.5 0,6.4 -5.1,11.5 -11.5,11.5 -6.4,0 -11.5,-5.1 -11.5,-11.5 l 0,0 c 0,-6.4 5.1,-11.5 11.5,-11.5 z"
       class="st0"
       id="Ellipse_1_copy_5"
       inkscape:connector-curvature="0"
       style="fill:#3d3d79" /><path
       d="m 293.9,125.9 c 6.4,0 11.5,5.1 11.5,11.5 0,6.4 -5.1,11.5 -11.5,11.5 -6.4,0 -11.5,-5.1 -11.5,-11.5 l 0,0 c 0,-6.4 5.1,-11.5 11.5,-11.5 z m 0,0 c 6.4,0 11.5,5.1 11.5,11.5 0,6.4 -5.1,11.5 -11.5,11.5 -6.4,0 -11.5,-5.1 -11.5,-11.5 l 0,0 c 0,-6.4 5.1,-11.5 11.5,-11.5 z m 0,0 c 6.4,0 11.5,5.1 11.5,11.5 0,6.4 -5.1,11.5 -11.5,11.5 -6.4,0 -11.5,-5.1 -11.5,-11.5 l 0,0 c 0,-6.4 5.1,-11.5 11.5,-11.5 z m 0,0 c 6.4,0 11.5,5.1 11.5,11.5 0,6.4 -5.1,11.5 -11.5,11.5 -6.4,0 -11.5,-5.1 -11.5,-11.5 l 0,0 c 0,-6.4 5.1,-11.5 11.5,-11.5 z"
       class="st0"
       id="Ellipse_1_copy_6"
       inkscape:connector-curvature="0"
       style="fill:#3d3d79" /><path
       d="m 251.9,83.9 c 6.4,0 11.5,5.1 11.5,11.5 0,6.4 -5.1,11.5 -11.5,11.5 -6.4,0 -11.5,-5.1 -11.5,-11.5 0,-6.4 5.1,-11.5 11.5,-11.5 l 0,0 z m 0,0 c 6.4,0 11.5,5.1 11.5,11.5 0,6.4 -5.1,11.5 -11.5,11.5 -6.4,0 -11.5,-5.1 -11.5,-11.5 0,-6.4 5.1,-11.5 11.5,-11.5 l 0,0 z m 0,0 c 6.4,0 11.5,5.1 11.5,11.5 0,6.4 -5.1,11.5 -11.5,11.5 -6.4,0 -11.5,-5.1 -11.5,-11.5 0,-6.4 5.1,-11.5 11.5,-11.5 l 0,0 z m 0,0 c 6.4,0 11.5,5.1 11.5,11.5 0,6.4 -5.1,11.5 -11.5,11.5 -6.4,0 -11.5,-5.1 -11.5,-11.5 0,-6.4 5.1,-11.5 11.5,-11.5 l 0,0 z"
       class="st0"
       id="Ellipse_1_copy_7"
       inkscape:connector-curvature="0"
       style="fill:#3d3d79" /><path
       d="m 124.9,212.9 c 6.4,0 11.5,5.1 11.5,11.5 0,6.4 -5.1,11.5 -11.5,11.5 -6.4,0 -11.5,-5.1 -11.5,-11.5 l 0,0 c 0,-6.4 5.1,-11.5 11.5,-11.5 z m 0,0 c 6.4,0 11.5,5.1 11.5,11.5 0,6.4 -5.1,11.5 -11.5,11.5 -6.4,0 -11.5,-5.1 -11.5,-11.5 l 0,0 c 0,-6.4 5.1,-11.5 11.5,-11.5 z m 0,0 c 6.4,0 11.5,5.1 11.5,11.5 0,6.4 -5.1,11.5 -11.5,11.5 -6.4,0 -11.5,-5.1 -11.5,-11.5 l 0,0 c 0,-6.4 5.1,-11.5 11.5,-11.5 z m 0,0 c 6.4,0 11.5,5.1 11.5,11.5 0,6.4 -5.1,11.5 -11.5,11.5 -6.4,0 -11.5,-5.1 -11.5,-11.5 l 0,0 c 0,-6.4 5.1,-11.5 11.5,-11.5 z"
       class="st0"
       id="Ellipse_1_copy_4"
       inkscape:connector-curvature="0"
       style="fill:#3d3d79" /><path
       d="m 166.9,169.9 c 6.4,0 11.5,5.1 11.5,11.5 0,6.4 -5.1,11.5 -11.5,11.5 -6.4,0 -11.5,-5.1 -11.5,-11.5 l 0,0 c 0,-6.4 5.1,-11.5 11.5,-11.5 z m 0,0 c 6.4,0 11.5,5.1 11.5,11.5 0,6.4 -5.1,11.5 -11.5,11.5 -6.4,0 -11.5,-5.1 -11.5,-11.5 l 0,0 c 0,-6.4 5.1,-11.5 11.5,-11.5 z m 0,0 c 6.4,0 11.5,5.1 11.5,11.5 0,6.4 -5.1,11.5 -11.5,11.5 -6.4,0 -11.5,-5.1 -11.5,-11.5 l 0,0 c 0,-6.4 5.1,-11.5 11.5,-11.5 z m 0,0 c 6.4,0 11.5,5.1 11.5,11.5 0,6.4 -5.1,11.5 -11.5,11.5 -6.4,0 -11.5,-5.1 -11.5,-11.5 l 0,0 c 0,-6.4 5.1,-11.5 11.5,-11.5 z"
       class="st0"
       id="Ellipse_1_copy_8"
       inkscape:connector-curvature="0"
       style="fill:#3d3d79" /><path
       d="m 209.9,125.9 c 6.4,0 11.5,5.1 11.5,11.5 0,6.4 -5.1,11.5 -11.5,11.5 -6.4,0 -11.5,-5.1 -11.5,-11.5 l 0,0 c 0,-6.4 5.1,-11.5 11.5,-11.5 z m 0,0 c 6.4,0 11.5,5.1 11.5,11.5 0,6.4 -5.1,11.5 -11.5,11.5 -6.4,0 -11.5,-5.1 -11.5,-11.5 l 0,0 c 0,-6.4 5.1,-11.5 11.5,-11.5 z m 0,0 c 6.4,0 11.5,5.1 11.5,11.5 0,6.4 -5.1,11.5 -11.5,11.5 -6.4,0 -11.5,-5.1 -11.5,-11.5 l 0,0 c 0,-6.4 5.1,-11.5 11.5,-11.5 z m 0,0 c 6.4,0 11.5,5.1 11.5,11.5 0,6.4 -5.1,11.5 -11.5,11.5 -6.4,0 -11.5,-5.1 -11.5,-11.5 l 0,0 c 0,-6.4 5.1,-11.5 11.5,-11.5 z"
       class="st0"
       id="Ellipse_1_copy_9"
       inkscape:connector-curvature="0"
       style="fill:#3d3d79" /><path
       d="m 167.9,83.9 c 6.4,0 11.5,5.1 11.5,11.5 0,6.4 -5.1,11.5 -11.5,11.5 -6.4,0 -11.5,-5.1 -11.5,-11.5 0,-6.4 5.1,-11.5 11.5,-11.5 l 0,0 z m 0,0 c 6.4,0 11.5,5.1 11.5,11.5 0,6.4 -5.1,11.5 -11.5,11.5 -6.4,0 -11.5,-5.1 -11.5,-11.5 0,-6.4 5.1,-11.5 11.5,-11.5 l 0,0 z m 0,0 c 6.4,0 11.5,5.1 11.5,11.5 0,6.4 -5.1,11.5 -11.5,11.5 -6.4,0 -11.5,-5.1 -11.5,-11.5 0,-6.4 5.1,-11.5 11.5,-11.5 l 0,0 z m 0,0 c 6.4,0 11.5,5.1 11.5,11.5 0,6.4 -5.1,11.5 -11.5,11.5 -6.4,0 -11.5,-5.1 -11.5,-11.5 0,-6.4 5.1,-11.5 11.5,-11.5 l 0,0 z"
       class="st0"
       id="Ellipse_1_copy_10"
       inkscape:connector-curvature="0"
       style="fill:#3d3d79" /><path
       d="m 124.9,124.9 c 6.4,0 11.5,5.1 11.5,11.5 0,6.4 -5.1,11.5 -11.5,11.5 -6.4,0 -11.5,-5.1 -11.5,-11.5 0,-6.4 5.1,-11.5 11.5,-11.5 l 0,0 z m 0,0 c 6.4,0 11.5,5.1 11.5,11.5 0,6.4 -5.1,11.5 -11.5,11.5 -6.4,0 -11.5,-5.1 -11.5,-11.5 0,-6.4 5.1,-11.5 11.5,-11.5 l 0,0 z m 0,0 c 6.4,0 11.5,5.1 11.5,11.5 0,6.4 -5.1,11.5 -11.5,11.5 -6.4,0 -11.5,-5.1 -11.5,-11.5 0,-6.4 5.1,-11.5 11.5,-11.5 l 0,0 z m 0,0 c 6.4,0 11.5,5.1 11.5,11.5 0,6.4 -5.1,11.5 -11.5,11.5 -6.4,0 -11.5,-5.1 -11.5,-11.5 0,-6.4 5.1,-11.5 11.5,-11.5 l 0,0 z"
       class="st0"
       id="Ellipse_1_copy_11"
       inkscape:connector-curvature="0"
       style="fill:#3d3d79" /><path
       d="m 82.9,169.9 c 6.4,0 11.5,5.1 11.5,11.5 0,6.4 -5.1,11.5 -11.5,11.5 -6.4,0 -11.5,-5.1 -11.5,-11.5 l 0,0 c 0,-6.4 5.1,-11.5 11.5,-11.5 z m 0,0 c 6.4,0 11.5,5.1 11.5,11.5 0,6.4 -5.1,11.5 -11.5,11.5 -6.4,0 -11.5,-5.1 -11.5,-11.5 l 0,0 c 0,-6.4 5.1,-11.5 11.5,-11.5 z m 0,0 c 6.4,0 11.5,5.1 11.5,11.5 0,6.4 -5.1,11.5 -11.5,11.5 -6.4,0 -11.5,-5.1 -11.5,-11.5 l 0,0 c 0,-6.4 5.1,-11.5 11.5,-11.5 z m 0,0 c 6.4,0 11.5,5.1 11.5,11.5 0,6.4 -5.1,11.5 -11.5,11.5 -6.4,0 -11.5,-5.1 -11.5,-11.5 l 0,0 c 0,-6.4 5.1,-11.5 11.5,-11.5 z"
       class="st0"
       id="Ellipse_1_copy_12"
       inkscape:connector-curvature="0"
       style="fill:#3d3d79" /><rect
       height="46"
       width="13"
       class="st2"
       y="155.89999"
       x="203.39999"
       id="Rectangle_1_copy_2"
       style="fill:#239fdf" /><rect
       height="13"
       width="46"
       class="st2"
       y="88.900002"
       x="187.39999"
       id="Rectangle_1_copy_4"
       style="fill:#239fdf" /><rect
       height="13"
       width="46"
       class="st2"
       y="129.89999"
       x="144.39999"
       id="Rectangle_1_copy_5"
       style="fill:#239fdf" /><rect
       height="46"
       width="13"
       class="st2"
       y="243.89999"
       x="118.4"
       id="Rectangle_1_copy_3"
       style="fill:#239fdf" /><path
       d="m 92.4,199.1 9.2,-9.2 14.8,14.8 -9.2,9.2 -14.8,-14.8 z"
       class="st2"
       id="Rectangle_1_copy_6"
       inkscape:connector-curvature="0"
       style="fill:#239fdf" /><path
       d="m 261.4,113.1 9.2,-9.2 14.8,14.8 -9.2,9.2 -14.8,-14.8 z"
       class="st2"
       id="Rectangle_1_copy_7"
       inkscape:connector-curvature="0"
       style="fill:#239fdf" /><g
       id="g47491"><defs
         id="defs47493"><path
           d="m 265.7,517.9 0,-59 c 0,-8.6 4.8,-23 14,-23 0,0 28.5,0.3 47,0 8,-0.1 13,0 13,0 0,0 11.1,2.4 21,-5 8,-6 9,-12 9,-12 0,0 0.5,-4.7 0,-9 -1.4,-12.1 -1,-16 -1,-16 0,0 2,-5.8 8,-11 3.6,-3.1 4,-8 4,-8 0,0 0.6,-3.7 -0.4,-6.9 -1.2,-4.3 -4.6,-8.1 -4.6,-8.1 0,0 1.8,-1.5 5,-5 2.6,-2.8 4,-8 4,-8 0,0 1,-5.5 0,-7 -4.8,-7 -4,-13 -4,-13 0,0 0.4,-5.2 11,-11 6.8,-3.7 10,-10 10,-10 0,0 1.4,-5.3 0,-10 -1.6,-5.2 -7,-10 -7,-10 -0.3,-0.2 -8.3,-9.6 -25,-30 -10.6,-13 -12,-20 -12,-20 0,0 -1,-4.5 0,-11 4.4,-29.6 1.8,-77.4 -34,-122 -50.9,-63.2 -116,-57 -116,-57 0,0 -68.8,-7.4 -125,56 -52.8,59.6 -43,135 -43,135 0,0 3.1,31 12,58 9.7,29.4 44,63 44,63 0,0 7.3,6.1 9,9 3.3,5.8 3,17 3,17 l -2,134 c 0,0 -2,-0.1 -6,0 -0.1,0 -5.1,0 -9,0 -3.9,0 -13,0.3 -13,0 0.1,-71 -0.1,-89.2 0,-118 0,-5.5 2.4,-16.1 -2.2,-21.2 -16,-17.8 -38.3,-39.2 -50.8,-70.8 -12.4,-31.4 -13.9,-46.2 -15,-70 -1.4,-32 -0.8,-105.2 52,-158 28.7,-28.7 76.5,-65.7 146,-64 30.8,0.8 96.6,6.7 140,69 25.7,36.9 35.7,43.7 40,111 1.1,17.6 -3.6,29.8 4,41 10.2,15.1 13.1,21 31,41 5,5.6 13.4,16.6 14,24 0.6,7.4 -4.2,12.4 -8,16 -4.5,4.3 -10.7,5.6 -14,12 -3.6,7 -2.4,6.6 -1,11 1.2,3.7 4,5 4,9 0,4.9 0.6,5.6 -6,14 -5.2,6.5 -3.7,3.4 -3,7 0.5,2.5 6.9,6.1 6,12 -2.2,14.5 -6.7,8.4 -15,23 -5.8,10.3 1.6,16 -3,33 -3,10.9 -19.8,25.9 -41,26 -24,0.1 -58.5,-1.8 -59,4 -0.1,0.8 -0.9,4 -1,14 -0.1,10.7 -0.1,17.9 0,35 0,0.1 -1.7,-0.1 -5,0 -5.6,0.1 -6.7,0 -11,0 -8,-0.1 -14,0 -14,0 z"
           id="SVGID_1_"
           inkscape:connector-curvature="0" /></defs><clipPath
         id="SVGID_2_"><use
           id="use47497"
           style="overflow:visible"
           xlink:href="#SVGID_1_"
           x="0"
           y="0"
           width="100%"
           height="100%" /></clipPath><g
         clip-path="url(#SVGID_2_)"
         id="g47499"
         class="st5"><rect
           id="rect47501"
           height="631.40002"
           width="400.89999"
           class="st0"
           transform="matrix(0.7071,0.7071,-0.7071,0.7071,354.9312,-129.1387)"
           y="48.200001"
           x="132.89999"
           style="fill:#3d3d79" /><rect
           id="rect47503"
           height="596"
           width="367"
           class="st2"
           transform="matrix(0.7071,0.7071,-0.7071,0.7071,100.2772,-38.2985)"
           y="-196.10001"
           x="-87.099998"
           style="fill:#239fdf" /></g></g></g></svg>