<?xml version="1.0" encoding="utf-8"?>
<!-- Generator: Adobe Illustrator 21.0.2, SVG Export Plug-In . SVG Version: 6.00 Build 0)  -->
<svg version="1.1" id="Layer_1" xmlns="http://www.w3.org/2000/svg" xmlns:xlink="http://www.w3.org/1999/xlink" x="0px" y="0px"
	 viewBox="0 0 1816.4 534" style="enable-background:new 0 0 1816.4 534;" xml:space="preserve">
<style type="text/css">
	.st0{fill:#3D3D79;}
	.st1{clip-path:url(#CLOPATH_LAB_copy_1_);}
	.st2{fill:#239FDF;}
	.st3{fill:none;enable-background:new    ;}
	.st4{enable-background:new    ;}
	.st5{clip-path:url(#SVGID_2_);}
</style>
<path id="CLOPATH_LAB" class="st0" d="M698.5,125.8h-29.3v143.8h73.6v-28.8h-44.3V125.8z M767.2,197.6c0,42,26.8,74.6,64.9,74.6
	c37,0,64.7-32.6,64.7-74.6s-29-74.4-64.7-74.4C796.7,123.2,767.2,155.6,767.2,197.6L767.2,197.6z M798.8,197.6
	c0-21.4,10.6-42.9,33.2-42.9c22.8,0,33.1,21.4,33.1,42.9s-9.7,42.9-33.1,42.9C808,240.5,798.8,219,798.8,197.6L798.8,197.6z
	 M925.4,125.8v143.8h29.3v-53.3h17.6c25.1,0,44-16.6,44-46.2c0-29.8-18.9-44.3-44-44.3L925.4,125.8L925.4,125.8z M954.7,190.1v-38.2
	h8.3c11.5,0,22.5,4.4,22.5,19.2c0,14.6-10.9,19-22.5,19L954.7,190.1L954.7,190.1z M1100.2,125.8h-27.1l-51.9,143.8h31.5l9.5-28.8h49
	l9.5,28.8h31.5L1100.2,125.8z M1101.2,212.1h-29l14.3-41.8h0.3L1101.2,212.1z M1157.2,154.6h30.6v115h29.3v-115h30.6v-28.8h-90.4
	L1157.2,154.6L1157.2,154.6z M1303.2,211.9h41.5v57.7h29.3V125.8h-29.3v57.3h-41.5v-57.3h-29.3v143.8h29.3V211.9L1303.2,211.9z
	 M1495.9,125.8h-29.3v143.8h73.6v-28.8h-44.3V125.8L1495.9,125.8z M1638,125.8h-27.1L1559,269.6h31.5l9.5-28.8h49l9.5,28.8h31.5
	L1638,125.8z M1638.9,212.1h-29l14.3-41.8h0.3L1638.9,212.1z M1710.6,125.8v143.8h48.8c26.7,0,42.1-16.4,42.1-40.1
	c0-23.2-11.4-33.1-27.4-36.3c10.9-6.3,16.1-17.6,16.1-30.9c0-27.4-17.5-36.6-39.6-36.6L1710.6,125.8L1710.6,125.8z M1739.9,182.1
	v-31h2.3c12.8,0,19.5,4.4,19.5,14.6c0,12-6.9,16.4-19.5,16.4L1739.9,182.1L1739.9,182.1z M1739.9,244.3v-34h9.2
	c13.9,0,21.5,4.7,21.5,18c0,11.3-7.6,16-21.5,16L1739.9,244.3L1739.9,244.3z"/>
<g>
	<defs>
		<path id="CLOPATH_LAB_copy" d="M604.6,240c-29.5,0-42.4-23-42.4-42.4c0-19.2,12.9-42.2,42.4-42.2c5.3,0.1,10.7,0.9,15.8,2.5
			l22-21.5c0,0-14.3-13.2-42.3-13.2c-36.5,0-69.7,33.5-69.7,74.8c0,41.1,33.4,74.3,69.7,74.3c27.9,0,42.3-13.2,42.3-13.2l-23-23.1
			C614.9,238.6,609.8,240,604.6,240z M669.2,125.8v143.8"/>
	</defs>
	<clipPath id="CLOPATH_LAB_copy_1_">
		<use xlink:href="#CLOPATH_LAB_copy"  style="overflow:visible;"/>
	</clipPath>
	<g class="st1">
		
			<rect x="434.5" y="50.9" transform="matrix(0.7071 0.7071 -0.7071 0.7071 249.2437 -327.9608)" class="st2" width="172" height="172"/>
		
			<rect x="556.1" y="172.5" transform="matrix(0.7071 0.7071 -0.7071 0.7071 370.8661 -378.3384)" class="st0" width="172" height="172"/>
	</g>
</g>
<path class="st3" d="z"/>
<path class="st3" d="z"/>
<path class="st0" d="M124.9,297.9c6.4,0,11.5,5.1,11.5,11.5s-5.1,11.5-11.5,11.5c-6.4,0-11.5-5.1-11.5-11.5S118.5,297.9,124.9,297.9
	L124.9,297.9z M124.9,297.9c6.4,0,11.5,5.1,11.5,11.5s-5.1,11.5-11.5,11.5c-6.4,0-11.5-5.1-11.5-11.5S118.5,297.9,124.9,297.9
	L124.9,297.9z M124.9,297.9c6.4,0,11.5,5.1,11.5,11.5s-5.1,11.5-11.5,11.5c-6.4,0-11.5-5.1-11.5-11.5S118.5,297.9,124.9,297.9
	L124.9,297.9z M124.9,297.9c6.4,0,11.5,5.1,11.5,11.5s-5.1,11.5-11.5,11.5c-6.4,0-11.5-5.1-11.5-11.5S118.5,297.9,124.9,297.9
	L124.9,297.9z"/>
<path id="Ellipse_1_copy" class="st0" d="M82.9,253.9c6.4,0,11.5,5.1,11.5,11.5s-5.1,11.5-11.5,11.5s-11.5-5.1-11.5-11.5l0,0
	C71.4,259,76.5,253.9,82.9,253.9z M82.9,253.9c6.4,0,11.5,5.1,11.5,11.5s-5.1,11.5-11.5,11.5s-11.5-5.1-11.5-11.5l0,0
	C71.4,259,76.5,253.9,82.9,253.9z M82.9,253.9c6.4,0,11.5,5.1,11.5,11.5s-5.1,11.5-11.5,11.5s-11.5-5.1-11.5-11.5l0,0
	C71.4,259,76.5,253.9,82.9,253.9z M82.9,253.9c6.4,0,11.5,5.1,11.5,11.5s-5.1,11.5-11.5,11.5s-11.5-5.1-11.5-11.5l0,0
	C71.4,259,76.5,253.9,82.9,253.9z"/>
<path id="Ellipse_1_copy_2" class="st0" d="M166.9,253.9c6.4,0,11.5,5.1,11.5,11.5s-5.1,11.5-11.5,11.5s-11.5-5.1-11.5-11.5l0,0
	C155.4,259,160.5,253.9,166.9,253.9z M166.9,253.9c6.4,0,11.5,5.1,11.5,11.5s-5.1,11.5-11.5,11.5s-11.5-5.1-11.5-11.5l0,0
	C155.4,259,160.5,253.9,166.9,253.9z M166.9,253.9c6.4,0,11.5,5.1,11.5,11.5s-5.1,11.5-11.5,11.5s-11.5-5.1-11.5-11.5l0,0
	C155.4,259,160.5,253.9,166.9,253.9z M166.9,253.9c6.4,0,11.5,5.1,11.5,11.5s-5.1,11.5-11.5,11.5s-11.5-5.1-11.5-11.5l0,0
	C155.4,259,160.5,253.9,166.9,253.9z"/>
<path id="Ellipse_1_copy_3" class="st0" d="M209.9,209.9c6.4,0,11.5,5.1,11.5,11.5s-5.1,11.5-11.5,11.5c-6.4,0-11.5-5.1-11.5-11.5
	l0,0C198.4,215,203.5,209.9,209.9,209.9z M209.9,209.9c6.4,0,11.5,5.1,11.5,11.5s-5.1,11.5-11.5,11.5c-6.4,0-11.5-5.1-11.5-11.5l0,0
	C198.4,215,203.5,209.9,209.9,209.9z M209.9,209.9c6.4,0,11.5,5.1,11.5,11.5s-5.1,11.5-11.5,11.5c-6.4,0-11.5-5.1-11.5-11.5l0,0
	C198.4,215,203.5,209.9,209.9,209.9z M209.9,209.9c6.4,0,11.5,5.1,11.5,11.5s-5.1,11.5-11.5,11.5c-6.4,0-11.5-5.1-11.5-11.5l0,0
	C198.4,215,203.5,209.9,209.9,209.9z"/>
<path id="Ellipse_1_copy_5" class="st0" d="M251.9,169.9c6.4,0,11.5,5.1,11.5,11.5s-5.1,11.5-11.5,11.5s-11.5-5.1-11.5-11.5l0,0
	C240.4,175,245.5,169.9,251.9,169.9z M251.9,169.9c6.4,0,11.5,5.1,11.5,11.5s-5.1,11.5-11.5,11.5s-11.5-5.1-11.5-11.5l0,0
	C240.4,175,245.5,169.9,251.9,169.9z M251.9,169.9c6.4,0,11.5,5.1,11.5,11.5s-5.1,11.5-11.5,11.5s-11.5-5.1-11.5-11.5l0,0
	C240.4,175,245.5,169.9,251.9,169.9z M251.9,169.9c6.4,0,11.5,5.1,11.5,11.5s-5.1,11.5-11.5,11.5s-11.5-5.1-11.5-11.5l0,0
	C240.4,175,245.5,169.9,251.9,169.9z"/>
<path id="Ellipse_1_copy_6" class="st0" d="M293.9,125.9c6.4,0,11.5,5.1,11.5,11.5s-5.1,11.5-11.5,11.5s-11.5-5.1-11.5-11.5l0,0
	C282.4,131,287.5,125.9,293.9,125.9z M293.9,125.9c6.4,0,11.5,5.1,11.5,11.5s-5.1,11.5-11.5,11.5s-11.5-5.1-11.5-11.5l0,0
	C282.4,131,287.5,125.9,293.9,125.9z M293.9,125.9c6.4,0,11.5,5.1,11.5,11.5s-5.1,11.5-11.5,11.5s-11.5-5.1-11.5-11.5l0,0
	C282.4,131,287.5,125.9,293.9,125.9z M293.9,125.9c6.4,0,11.5,5.1,11.5,11.5s-5.1,11.5-11.5,11.5s-11.5-5.1-11.5-11.5l0,0
	C282.4,131,287.5,125.9,293.9,125.9z"/>
<path id="Ellipse_1_copy_7" class="st0" d="M251.9,83.9c6.4,0,11.5,5.1,11.5,11.5s-5.1,11.5-11.5,11.5s-11.5-5.1-11.5-11.5
	S245.5,83.9,251.9,83.9L251.9,83.9z M251.9,83.9c6.4,0,11.5,5.1,11.5,11.5s-5.1,11.5-11.5,11.5s-11.5-5.1-11.5-11.5
	S245.5,83.9,251.9,83.9L251.9,83.9z M251.9,83.9c6.4,0,11.5,5.1,11.5,11.5s-5.1,11.5-11.5,11.5s-11.5-5.1-11.5-11.5
	S245.5,83.9,251.9,83.9L251.9,83.9z M251.9,83.9c6.4,0,11.5,5.1,11.5,11.5s-5.1,11.5-11.5,11.5s-11.5-5.1-11.5-11.5
	S245.5,83.9,251.9,83.9L251.9,83.9z"/>
<path id="Ellipse_1_copy_4" class="st0" d="M124.9,212.9c6.4,0,11.5,5.1,11.5,11.5s-5.1,11.5-11.5,11.5c-6.4,0-11.5-5.1-11.5-11.5
	l0,0C113.4,218,118.5,212.9,124.9,212.9z M124.9,212.9c6.4,0,11.5,5.1,11.5,11.5s-5.1,11.5-11.5,11.5c-6.4,0-11.5-5.1-11.5-11.5l0,0
	C113.4,218,118.5,212.9,124.9,212.9z M124.9,212.9c6.4,0,11.5,5.1,11.5,11.5s-5.1,11.5-11.5,11.5c-6.4,0-11.5-5.1-11.5-11.5l0,0
	C113.4,218,118.5,212.9,124.9,212.9z M124.9,212.9c6.4,0,11.5,5.1,11.5,11.5s-5.1,11.5-11.5,11.5c-6.4,0-11.5-5.1-11.5-11.5l0,0
	C113.4,218,118.5,212.9,124.9,212.9z"/>
<path id="Ellipse_1_copy_8" class="st0" d="M166.9,169.9c6.4,0,11.5,5.1,11.5,11.5s-5.1,11.5-11.5,11.5s-11.5-5.1-11.5-11.5l0,0
	C155.4,175,160.5,169.9,166.9,169.9z M166.9,169.9c6.4,0,11.5,5.1,11.5,11.5s-5.1,11.5-11.5,11.5s-11.5-5.1-11.5-11.5l0,0
	C155.4,175,160.5,169.9,166.9,169.9z M166.9,169.9c6.4,0,11.5,5.1,11.5,11.5s-5.1,11.5-11.5,11.5s-11.5-5.1-11.5-11.5l0,0
	C155.4,175,160.5,169.9,166.9,169.9z M166.9,169.9c6.4,0,11.5,5.1,11.5,11.5s-5.1,11.5-11.5,11.5s-11.5-5.1-11.5-11.5l0,0
	C155.4,175,160.5,169.9,166.9,169.9z"/>
<path id="Ellipse_1_copy_9" class="st0" d="M209.9,125.9c6.4,0,11.5,5.1,11.5,11.5s-5.1,11.5-11.5,11.5c-6.4,0-11.5-5.1-11.5-11.5
	l0,0C198.4,131,203.5,125.9,209.9,125.9z M209.9,125.9c6.4,0,11.5,5.1,11.5,11.5s-5.1,11.5-11.5,11.5c-6.4,0-11.5-5.1-11.5-11.5l0,0
	C198.4,131,203.5,125.9,209.9,125.9z M209.9,125.9c6.4,0,11.5,5.1,11.5,11.5s-5.1,11.5-11.5,11.5c-6.4,0-11.5-5.1-11.5-11.5l0,0
	C198.4,131,203.5,125.9,209.9,125.9z M209.9,125.9c6.4,0,11.5,5.1,11.5,11.5s-5.1,11.5-11.5,11.5c-6.4,0-11.5-5.1-11.5-11.5l0,0
	C198.4,131,203.5,125.9,209.9,125.9z"/>
<path id="Ellipse_1_copy_10" class="st0" d="M167.9,83.9c6.4,0,11.5,5.1,11.5,11.5s-5.1,11.5-11.5,11.5s-11.5-5.1-11.5-11.5
	S161.5,83.9,167.9,83.9L167.9,83.9z M167.9,83.9c6.4,0,11.5,5.1,11.5,11.5s-5.1,11.5-11.5,11.5s-11.5-5.1-11.5-11.5
	S161.5,83.9,167.9,83.9L167.9,83.9z M167.9,83.9c6.4,0,11.5,5.1,11.5,11.5s-5.1,11.5-11.5,11.5s-11.5-5.1-11.5-11.5
	S161.5,83.9,167.9,83.9L167.9,83.9z M167.9,83.9c6.4,0,11.5,5.1,11.5,11.5s-5.1,11.5-11.5,11.5s-11.5-5.1-11.5-11.5
	S161.5,83.9,167.9,83.9L167.9,83.9z"/>
<path id="Ellipse_1_copy_11" class="st0" d="M124.9,124.9c6.4,0,11.5,5.1,11.5,11.5s-5.1,11.5-11.5,11.5c-6.4,0-11.5-5.1-11.5-11.5
	S118.5,124.9,124.9,124.9L124.9,124.9z M124.9,124.9c6.4,0,11.5,5.1,11.5,11.5s-5.1,11.5-11.5,11.5c-6.4,0-11.5-5.1-11.5-11.5
	S118.5,124.9,124.9,124.9L124.9,124.9z M124.9,124.9c6.4,0,11.5,5.1,11.5,11.5s-5.1,11.5-11.5,11.5c-6.4,0-11.5-5.1-11.5-11.5
	S118.5,124.9,124.9,124.9L124.9,124.9z M124.9,124.9c6.4,0,11.5,5.1,11.5,11.5s-5.1,11.5-11.5,11.5c-6.4,0-11.5-5.1-11.5-11.5
	S118.5,124.9,124.9,124.9L124.9,124.9z"/>
<path id="Ellipse_1_copy_12" class="st0" d="M82.9,169.9c6.4,0,11.5,5.1,11.5,11.5s-5.1,11.5-11.5,11.5s-11.5-5.1-11.5-11.5l0,0
	C71.4,175,76.5,169.9,82.9,169.9z M82.9,169.9c6.4,0,11.5,5.1,11.5,11.5s-5.1,11.5-11.5,11.5s-11.5-5.1-11.5-11.5l0,0
	C71.4,175,76.5,169.9,82.9,169.9z M82.9,169.9c6.4,0,11.5,5.1,11.5,11.5s-5.1,11.5-11.5,11.5s-11.5-5.1-11.5-11.5l0,0
	C71.4,175,76.5,169.9,82.9,169.9z M82.9,169.9c6.4,0,11.5,5.1,11.5,11.5s-5.1,11.5-11.5,11.5s-11.5-5.1-11.5-11.5l0,0
	C71.4,175,76.5,169.9,82.9,169.9z"/>
<rect id="Rectangle_1_copy_2" x="203.4" y="155.9" class="st2" width="13" height="46"/>
<rect id="Rectangle_1_copy_4" x="187.4" y="88.9" class="st2" width="46" height="13"/>
<rect id="Rectangle_1_copy_5" x="144.4" y="129.9" class="st2" width="46" height="13"/>
<rect id="Rectangle_1_copy_3" x="118.4" y="243.9" class="st2" width="13" height="46"/>
<path id="Rectangle_1_copy_6" class="st2" d="M92.4,199.1l9.2-9.2l14.8,14.8l-9.2,9.2L92.4,199.1z"/>
<path id="Rectangle_1_copy_7" class="st2" d="M261.4,113.1l9.2-9.2l14.8,14.8l-9.2,9.2L261.4,113.1z"/>
<g class="st4">
	<path class="st2" d="M581.7,326.6c0,1.3-0.5,2.5-1.4,3.8c-1,1.3-2.2,1.9-3.8,1.9c-1,0-2.1-0.3-3.1-0.8c-3-1.4-6.3-2.1-9.8-2.1
		c-4.3,0-8,0.9-11.2,2.7c-3.2,1.8-5.7,4.4-7.4,7.6c-1.7,3.3-2.6,7-2.6,11.3c0,7.2,1.9,12.7,5.9,16.5c3.9,3.7,9,5.6,15.3,5.6
		c3.7,0,7-0.7,9.8-2.1c1.1-0.5,2.1-0.7,2.9-0.7c1.6,0,2.9,0.7,4.1,2c0.9,1.2,1.4,2.4,1.4,3.8c0,1-0.2,1.9-0.7,2.7
		c-0.5,0.8-1.2,1.4-2.1,1.8c-4.8,2.4-9.9,3.6-15.3,3.6c-6,0-11.6-1.3-16.6-3.8c-5-2.5-9.1-6.3-12.1-11.3c-3-5-4.5-11-4.5-18.1
		c0-6.3,1.4-11.9,4.3-16.9c2.9-5,6.8-8.9,11.8-11.7c5-2.8,10.7-4.2,17-4.2c5.5,0,10.5,1.2,15.2,3.6
		C580.8,322.9,581.7,324.4,581.7,326.6z"/>
	<path class="st2" d="M634.6,371.9c-2.2,3.9-5.2,6.9-9.1,9.1c-3.8,2.2-8.1,3.2-12.7,3.2c-4.7,0-8.9-1.1-12.7-3.2
		c-3.8-2.1-6.8-5.2-9-9.1c-2.2-3.9-3.3-8.3-3.3-13.2c0-4.9,1.1-9.3,3.3-13.2c2.2-3.9,5.2-6.9,9-9.1c3.8-2.2,8-3.3,12.7-3.3
		c4.6,0,8.8,1.1,12.7,3.3c3.8,2.2,6.9,5.2,9.1,9.1c2.2,3.9,3.3,8.3,3.3,13.2C637.9,363.6,636.8,368,634.6,371.9z M625,350.6
		c-1.3-2.4-2.9-4.2-5.1-5.5s-4.5-1.9-7-1.9s-4.9,0.6-7,1.9s-3.8,3.1-5.1,5.5c-1.3,2.4-1.9,5.1-1.9,8.1c0,3,0.6,5.7,1.9,8
		c1.3,2.3,2.9,4.1,5.1,5.4c2.1,1.3,4.5,1.9,7,1.9s4.9-0.6,7-1.9c2.1-1.3,3.8-3.1,5.1-5.4c1.3-2.3,1.9-5,1.9-8
		C626.9,355.6,626.2,352.9,625,350.6z"/>
	<path class="st2" d="M716.6,338.6c2.3,3.7,3.5,8.9,3.5,15.4v23.6c0,1.6-0.5,2.9-1.6,4c-1,1.1-2.4,1.6-4,1.6c-1.6,0-2.9-0.5-4-1.6
		c-1-1.1-1.6-2.4-1.6-4V354c0-3.4-0.7-6-2-8c-1.3-1.9-3.6-2.9-7-2.9c-3.4,0-6.1,1-8.1,3.1c-1.9,2.1-2.9,4.7-2.9,7.8v23.6
		c0,1.6-0.5,2.9-1.6,4c-1,1.1-2.4,1.6-4,1.6c-1.6,0-2.9-0.5-4-1.6c-1-1.1-1.6-2.4-1.6-4V354c0-3.4-0.7-6-2-8c-1.3-1.9-3.6-2.9-7-2.9
		c-3.4,0-6.1,1-8.1,3.1c-1.9,2.1-2.9,4.7-2.9,7.8v23.6c0,1.6-0.5,2.9-1.6,4c-1,1.1-2.4,1.6-4,1.6c-1.6,0-2.9-0.5-4-1.6
		c-1-1.1-1.6-2.4-1.6-4v-38.1c0-1.6,0.5-2.9,1.6-4c1-1.1,2.4-1.6,4-1.6c1.6,0,2.9,0.5,4,1.6c1,1.1,1.6,2.4,1.6,4v1.5
		c1.7-2.2,3.8-4.1,6.3-5.7c2.5-1.6,5.4-2.3,8.5-2.3c7.7,0,12.7,3.4,14.8,10.1c1.4-2.6,3.5-4.9,6.4-7c2.9-2.1,6.1-3.1,9.7-3.1
		C710.1,333,714.3,334.9,716.6,338.6z"/>
	<path class="st2" d="M769.1,336.3c3.4,2.2,6.2,5.2,8.2,9.1c2,3.9,3,8.3,3,13.2c0,4.9-1,9.3-2.9,13.2c-2,3.9-4.7,6.9-8.1,9.1
		c-3.4,2.2-7.2,3.3-11.3,3.3c-2.9,0-5.7-0.6-8.3-1.8c-2.6-1.2-4.8-2.7-6.5-4.4v18.1c0,1.6-0.5,2.9-1.6,4c-1,1.1-2.4,1.6-4,1.6
		c-1.6,0-2.9-0.5-4-1.6c-1-1-1.6-2.4-1.6-4.1v-56.5c0-1.6,0.5-2.9,1.6-4c1-1.1,2.4-1.6,4-1.6c1.6,0,2.9,0.5,4,1.6
		c1,1.1,1.6,2.4,1.6,4v0.4c1.5-1.8,3.5-3.5,6.2-4.8c2.6-1.4,5.4-2.1,8.3-2.1C761.9,333,765.7,334.1,769.1,336.3z M765.9,369.6
		c2.5-2.9,3.8-6.6,3.8-11.1c0-4.4-1.2-8.1-3.7-11c-2.5-2.9-5.7-4.4-9.7-4.4c-4,0-7.2,1.5-9.8,4.4c-2.5,2.9-3.8,6.6-3.8,11
		c0,4.4,1.3,8.1,3.8,11.1c2.5,2.9,5.8,4.4,9.8,4.4C760.2,374,763.4,372.6,765.9,369.6z"/>
	<path class="st2" d="M830,335.6c1,1.1,1.6,2.4,1.6,4V363c0,6.6-1.8,11.8-5.5,15.6c-3.7,3.7-8.9,5.6-15.6,5.6s-11.9-1.9-15.6-5.6
		c-3.6-3.7-5.4-8.9-5.4-15.6v-23.4c0-1.6,0.5-2.9,1.6-4c1-1.1,2.4-1.6,4-1.6c1.6,0,2.9,0.5,4,1.6c1,1.1,1.6,2.4,1.6,4V363
		c0,3.7,0.8,6.5,2.5,8.3c1.7,1.8,4.1,2.7,7.5,2.7c3.4,0,5.9-0.9,7.6-2.7c1.7-1.8,2.5-4.6,2.5-8.3v-23.4c0-1.6,0.5-2.9,1.6-4
		c1-1.1,2.4-1.6,4-1.6C827.7,333.9,829,334.5,830,335.6z"/>
	<path class="st2" d="M869.7,374.1c0.7,0.8,1.1,1.9,1.1,3.3c0,1.7-0.9,3.1-2.7,4.2c-1.8,1.1-3.9,1.7-6.1,1.7c-3.8,0-7-0.8-9.6-2.4
		c-2.6-1.6-3.9-5.1-3.9-10.4V345h-4.2c-1.5,0-2.7-0.5-3.7-1.5c-1-1-1.5-2.2-1.5-3.7c0-1.4,0.5-2.6,1.5-3.5c1-1,2.2-1.4,3.7-1.4h4.2
		V329c0-1.6,0.5-2.9,1.6-4c1.1-1.1,2.4-1.6,4-1.6c1.5,0,2.8,0.5,3.9,1.6c1,1.1,1.6,2.4,1.6,4v5.9h6.5c1.5,0,2.7,0.5,3.7,1.5
		c1,1,1.5,2.2,1.5,3.7c0,1.4-0.5,2.6-1.5,3.5c-1,1-2.2,1.4-3.7,1.4h-6.5v25c0,1.3,0.3,2.2,1,2.8c0.7,0.6,1.6,0.9,2.8,0.9
		c0.5,0,1.2-0.1,2-0.4c0.7-0.3,1.4-0.5,2.1-0.5C868.2,372.8,869,373.2,869.7,374.1z"/>
	<path class="st2" d="M925.1,334.6c1,1,1.6,2.4,1.6,4.1v39c0,1.6-0.5,2.9-1.6,4c-1,1.1-2.4,1.6-4,1.6c-1.6,0-2.9-0.5-3.9-1.6
		c-1-1-1.6-2.4-1.6-4c-1.5,1.8-3.6,3.3-6.2,4.6c-2.6,1.3-5.4,1.9-8.2,1.9c-4.2,0-8.1-1.1-11.5-3.3c-3.4-2.2-6.2-5.2-8.2-9.1
		c-2-3.9-3-8.3-3-13.2c0-4.9,1-9.3,2.9-13.2c2-3.9,4.7-6.9,8.1-9.1c3.4-2.2,7.2-3.3,11.3-3.3c2.9,0,5.7,0.5,8.3,1.6s4.8,2.4,6.5,4.1
		v-0.1c0-1.6,0.5-2.9,1.6-4c1-1.1,2.4-1.6,4-1.6C922.8,333,924.1,333.5,925.1,334.6z M912.3,369.7c2.5-2.9,3.8-6.6,3.8-11
		s-1.3-8.1-3.8-11.1c-2.5-2.9-5.8-4.4-9.8-4.4c-3.9,0-7.2,1.5-9.7,4.4c-2.5,2.9-3.8,6.6-3.8,11.1s1.2,8.1,3.7,11
		c2.5,2.9,5.7,4.4,9.7,4.4S909.8,372.6,912.3,369.7z"/>
	<path class="st2" d="M964.8,374.1c0.7,0.8,1.1,1.9,1.1,3.3c0,1.7-0.9,3.1-2.7,4.2c-1.8,1.1-3.9,1.7-6.1,1.7c-3.8,0-7-0.8-9.6-2.4
		c-2.6-1.6-3.9-5.1-3.9-10.4V345h-4.2c-1.5,0-2.7-0.5-3.7-1.5c-1-1-1.5-2.2-1.5-3.7c0-1.4,0.5-2.6,1.5-3.5c1-1,2.2-1.4,3.7-1.4h4.2
		V329c0-1.6,0.5-2.9,1.6-4c1.1-1.1,2.4-1.6,4-1.6c1.5,0,2.8,0.5,3.9,1.6c1,1.1,1.6,2.4,1.6,4v5.9h6.5c1.5,0,2.7,0.5,3.7,1.5
		c1,1,1.5,2.2,1.5,3.7c0,1.4-0.5,2.6-1.5,3.5c-1,1-2.2,1.4-3.7,1.4h-6.5v25c0,1.3,0.3,2.2,1,2.8c0.7,0.6,1.6,0.9,2.8,0.9
		c0.5,0,1.2-0.1,2-0.4c0.7-0.3,1.4-0.5,2.1-0.5C963.3,372.8,964.1,373.2,964.8,374.1z"/>
	<path class="st2" d="M976.7,326.9c-0.9-0.7-1.3-1.9-1.3-3.6v-1.8c0-1.7,0.5-2.9,1.4-3.6c0.9-0.7,2.4-1,4.4-1c2.2,0,3.7,0.3,4.5,1
		c0.9,0.7,1.3,1.9,1.3,3.6v1.8c0,1.8-0.4,3-1.3,3.6c-0.9,0.6-2.4,1-4.6,1C979.1,328,977.6,327.6,976.7,326.9z M985.2,381.6
		c-1,1.1-2.4,1.6-4,1.6s-2.9-0.5-4-1.6c-1-1.1-1.6-2.4-1.6-4v-38.1c0-1.6,0.5-2.9,1.6-4c1-1.1,2.4-1.6,4-1.6s2.9,0.5,4,1.6
		c1,1.1,1.6,2.4,1.6,4v38.1C986.8,379.2,986.3,380.6,985.2,381.6z"/>
	<path class="st2" d="M1042.2,371.9c-2.2,3.9-5.2,6.9-9.1,9.1c-3.8,2.2-8.1,3.2-12.7,3.2c-4.7,0-8.9-1.1-12.7-3.2
		c-3.8-2.1-6.8-5.2-9-9.1c-2.2-3.9-3.3-8.3-3.3-13.2c0-4.9,1.1-9.3,3.3-13.2c2.2-3.9,5.2-6.9,9-9.1c3.8-2.2,8-3.3,12.7-3.3
		c4.6,0,8.8,1.1,12.7,3.3c3.8,2.2,6.9,5.2,9.1,9.1c2.2,3.9,3.3,8.3,3.3,13.2C1045.5,363.6,1044.4,368,1042.2,371.9z M1032.5,350.6
		c-1.3-2.4-2.9-4.2-5.1-5.5s-4.5-1.9-7-1.9s-4.9,0.6-7,1.9s-3.8,3.1-5.1,5.5c-1.3,2.4-1.9,5.1-1.9,8.1c0,3,0.6,5.7,1.9,8
		c1.3,2.3,2.9,4.1,5.1,5.4c2.1,1.3,4.5,1.9,7,1.9s4.9-0.6,7-1.9c2.1-1.3,3.8-3.1,5.1-5.4c1.3-2.3,1.9-5,1.9-8
		C1034.4,355.6,1033.8,352.9,1032.5,350.6z"/>
	<path class="st2" d="M1094,338.6c2.4,3.7,3.6,8.9,3.6,15.4v23.6c0,1.6-0.5,2.9-1.6,4c-1,1.1-2.4,1.6-4,1.6c-1.6,0-2.9-0.5-4-1.6
		c-1-1.1-1.6-2.4-1.6-4V354c0-3.4-0.7-6-2.1-8c-1.4-1.9-3.8-2.9-7.3-2.9c-3.6,0-6.4,1-8.4,3.1c-2,2.1-3,4.7-3,7.8v23.6
		c0,1.6-0.5,2.9-1.6,4c-1,1.1-2.4,1.6-4,1.6c-1.6,0-2.9-0.5-4-1.6c-1-1.1-1.6-2.4-1.6-4v-38.1c0-1.6,0.5-2.9,1.6-4
		c1-1.1,2.4-1.6,4-1.6c1.6,0,2.9,0.5,4,1.6c1,1.1,1.6,2.4,1.6,4v1.6c1.7-2.2,3.8-4.1,6.5-5.7c2.7-1.6,5.6-2.4,8.8-2.4
		C1087.3,333,1091.6,334.9,1094,338.6z"/>
	<path class="st2" d="M1153.5,334.6c1,1,1.6,2.4,1.6,4.1v39c0,1.6-0.5,2.9-1.6,4c-1,1.1-2.4,1.6-4,1.6c-1.6,0-2.9-0.5-3.9-1.6
		c-1-1-1.6-2.4-1.6-4c-1.5,1.8-3.6,3.3-6.2,4.6c-2.6,1.3-5.4,1.9-8.2,1.9c-4.2,0-8.1-1.1-11.5-3.3c-3.4-2.2-6.2-5.2-8.2-9.1
		c-2-3.9-3-8.3-3-13.2c0-4.9,1-9.3,2.9-13.2c2-3.9,4.7-6.9,8.1-9.1c3.4-2.2,7.2-3.3,11.3-3.3c2.9,0,5.7,0.5,8.3,1.6s4.8,2.4,6.5,4.1
		v-0.1c0-1.6,0.5-2.9,1.6-4c1-1.1,2.4-1.6,4-1.6C1151.1,333,1152.4,333.5,1153.5,334.6z M1140.7,369.7c2.5-2.9,3.8-6.6,3.8-11
		s-1.3-8.1-3.8-11.1c-2.5-2.9-5.8-4.4-9.8-4.4c-3.9,0-7.2,1.5-9.7,4.4c-2.5,2.9-3.8,6.6-3.8,11.1s1.2,8.1,3.7,11
		c2.5,2.9,5.7,4.4,9.7,4.4S1138.1,372.6,1140.7,369.7z"/>
	<path class="st2" d="M1177.4,381.6c-1.1,1.1-2.4,1.6-4,1.6c-1.5,0-2.8-0.5-3.9-1.6c-1-1.1-1.6-2.4-1.6-4v-56.9c0-1.6,0.5-2.9,1.6-4
		c1.1-1.1,2.4-1.6,4-1.6c1.5,0,2.8,0.5,3.9,1.6c1,1.1,1.6,2.4,1.6,4v56.9C1179,379.2,1178.5,380.6,1177.4,381.6z"/>
	<path class="st2" d="M1271.1,320.2c0.9,1,1.4,2.2,1.4,3.7v53.7c0,1.6-0.5,2.9-1.6,4c-1.1,1.1-2.4,1.6-4,1.6c-0.9,0-1.7-0.1-2.5-0.4
		c-0.8-0.3-1.4-0.7-1.8-1.2l-33.8-42.9v39.3c0,1.5-0.5,2.7-1.4,3.7c-1,1-2.2,1.5-3.7,1.5c-1.5,0-2.7-0.5-3.6-1.5
		c-0.9-1-1.4-2.2-1.4-3.7v-53.7c0-1.6,0.5-2.9,1.6-4c1.1-1.1,2.4-1.6,4-1.6c0.9,0,1.8,0.2,2.7,0.6c0.9,0.4,1.5,0.9,2,1.5l33.5,42.8
		v-39.6c0-1.5,0.5-2.7,1.4-3.7c1-1,2.2-1.5,3.6-1.5S1270.2,319.2,1271.1,320.2z"/>
	<path class="st2" d="M1327.9,361c-1.1,0.9-2.4,1.4-3.9,1.4h-30.4c0.7,3.6,2.4,6.5,5.1,8.5c2.6,2.1,5.6,3.1,8.9,3.1
		c2.5,0,4.5-0.2,5.9-0.7c1.4-0.5,2.5-1,3.4-1.5c0.8-0.5,1.4-0.9,1.7-1.1c1.1-0.6,2.1-0.8,3.1-0.8c1.3,0,2.4,0.5,3.3,1.4
		c0.9,0.9,1.4,2,1.4,3.2c0,1.7-0.9,3.2-2.6,4.5c-1.7,1.4-4,2.6-6.9,3.6c-2.9,1-5.8,1.5-8.8,1.5c-5.2,0-9.7-1.1-13.5-3.2
		c-3.8-2.1-6.8-5.1-8.9-8.9c-2.1-3.8-3.1-8-3.1-12.8c0-5.3,1.1-9.9,3.3-13.9c2.2-4,5.1-7,8.8-9.2c3.6-2.1,7.5-3.2,11.6-3.2
		c4.1,0,7.9,1.1,11.5,3.3s6.5,5.2,8.6,8.9c2.2,3.7,3.2,7.8,3.2,12.2C1329.6,358.9,1329,360.1,1327.9,361z M1293.7,353.2h24.1v-0.6
		c-0.2-2.6-1.5-4.8-3.8-6.6c-2.3-1.8-4.9-2.8-7.7-2.8C1299.2,343.2,1295,346.5,1293.7,353.2z"/>
	<path class="st2" d="M1379.4,335.6c1,1.1,1.6,2.4,1.6,4V363c0,6.6-1.8,11.8-5.5,15.6c-3.7,3.7-8.9,5.6-15.6,5.6s-11.9-1.9-15.6-5.6
		c-3.6-3.7-5.4-8.9-5.4-15.6v-23.4c0-1.6,0.5-2.9,1.6-4c1-1.1,2.4-1.6,4-1.6c1.6,0,2.9,0.5,4,1.6c1,1.1,1.6,2.4,1.6,4V363
		c0,3.7,0.8,6.5,2.5,8.3c1.7,1.8,4.1,2.7,7.5,2.7c3.4,0,5.9-0.9,7.6-2.7c1.7-1.8,2.5-4.6,2.5-8.3v-23.4c0-1.6,0.5-2.9,1.6-4
		c1-1.1,2.4-1.6,4-1.6C1377.1,333.9,1378.4,334.5,1379.4,335.6z"/>
	<path class="st2" d="M1423.2,334.6c1.3,1,1.9,2.3,1.9,3.7c0,1.9-0.5,3.3-1.5,4.3c-1,1-2.2,1.4-3.5,1.4c-0.9,0-2-0.2-3.1-0.6
		c-0.2-0.1-0.6-0.2-1.2-0.4c-0.6-0.2-1.3-0.3-2.1-0.3c-1.6,0-3.1,0.5-4.6,1.5c-1.5,1-2.7,2.5-3.6,4.5c-1,2-1.4,4.4-1.4,7.1v21.8
		c0,1.6-0.5,2.9-1.6,4c-1,1.1-2.4,1.6-4,1.6c-1.6,0-2.9-0.5-4-1.6c-1-1.1-1.6-2.4-1.6-4v-38.1c0-1.6,0.5-2.9,1.6-4
		c1-1.1,2.4-1.6,4-1.6c1.6,0,2.9,0.5,4,1.6c1,1.1,1.6,2.4,1.6,4v1.2c1.4-2.5,3.4-4.4,6.1-5.8c2.6-1.3,5.5-2,8.5-2
		C1420.4,333,1422,333.5,1423.2,334.6z"/>
	<path class="st2" d="M1475,371.9c-2.2,3.9-5.2,6.9-9.1,9.1c-3.8,2.2-8.1,3.2-12.7,3.2c-4.7,0-8.9-1.1-12.7-3.2
		c-3.8-2.1-6.8-5.2-9-9.1c-2.2-3.9-3.3-8.3-3.3-13.2c0-4.9,1.1-9.3,3.3-13.2c2.2-3.9,5.2-6.9,9-9.1c3.8-2.2,8-3.3,12.7-3.3
		c4.6,0,8.8,1.1,12.7,3.3c3.8,2.2,6.9,5.2,9.1,9.1c2.2,3.9,3.3,8.3,3.3,13.2C1478.3,363.6,1477.2,368,1475,371.9z M1465.3,350.6
		c-1.3-2.4-2.9-4.2-5.1-5.5s-4.5-1.9-7-1.9s-4.9,0.6-7,1.9s-3.8,3.1-5.1,5.5c-1.3,2.4-1.9,5.1-1.9,8.1c0,3,0.6,5.7,1.9,8
		c1.3,2.3,2.9,4.1,5.1,5.4c2.1,1.3,4.5,1.9,7,1.9s4.9-0.6,7-1.9c2.1-1.3,3.8-3.1,5.1-5.4c1.3-2.3,1.9-5,1.9-8
		C1467.2,355.6,1466.6,352.9,1465.3,350.6z"/>
	<path class="st2" d="M1483.8,372.8c0-1.6,0.8-2.9,2.4-4.1c0.9-0.6,1.8-0.8,2.7-0.8c1.3,0,2.5,0.6,3.7,1.8c1.8,1.9,3.8,3.3,5.8,4.2
		c2,0.9,4.4,1.4,7.2,1.4c4.8-0.2,7.2-2,7.2-5.4c0-1.8-0.8-3.1-2.4-4.1c-1.6-0.9-4.2-1.8-7.6-2.8c-3.6-1-6.5-2-8.7-2.9
		c-2.2-1-4.2-2.5-5.8-4.5c-1.6-2-2.4-4.7-2.4-8.1c0-2.9,0.8-5.5,2.5-7.7c1.7-2.2,3.9-3.9,6.6-5.1c2.7-1.2,5.6-1.8,8.7-1.8
		c3.1,0,6.3,0.6,9.4,1.8s5.6,2.9,7.4,5.2c0.8,1,1.2,2.1,1.2,3.3c0,1.4-0.6,2.6-1.8,3.5c-0.9,0.7-1.8,1-2.9,1c-1.4,0-2.5-0.4-3.3-1.3
		c-1.1-1.4-2.5-2.4-4.3-3.2c-1.8-0.8-3.7-1.2-5.9-1.2c-4.7,0-7,1.7-7,5.1c0,1.4,0.4,2.4,1.3,3.3c0.9,0.8,1.9,1.5,3.3,1.9
		c1.3,0.5,3.2,1,5.6,1.7c3.3,0.9,6.1,1.9,8.3,2.9c2.2,1,4.1,2.5,5.6,4.5c1.5,2,2.3,4.7,2.3,8c0,3-0.9,5.6-2.7,7.9
		c-1.8,2.2-4.1,3.9-6.9,5.1c-2.8,1.2-5.7,1.8-8.6,1.8c-4.1,0-7.8-0.7-11.3-2c-3.5-1.4-6.4-3.5-8.6-6.5
		C1484.1,374.9,1483.8,373.9,1483.8,372.8z"/>
	<path class="st2" d="M1566,335.5c3.2,1.6,4.8,3.8,4.8,6.5c0,1.4-0.4,2.5-1.2,3.5c-0.8,1-1.8,1.5-3.1,1.5c-1,0-1.8-0.1-2.4-0.4
		c-0.6-0.3-1.2-0.6-1.8-1.1c-0.6-0.5-1.2-0.8-1.7-1.2c-0.6-0.3-1.5-0.6-2.7-0.8c-1.2-0.2-2.2-0.4-2.9-0.4c-4.6,0-8.2,1.4-10.8,4.3
		c-2.6,2.9-3.9,6.6-3.9,11.2c0,4.4,1.3,8.1,4,11c2.6,2.9,6,4.4,10.1,4.4c3,0,5.3-0.4,6.7-1.1c0.4-0.2,0.9-0.5,1.5-1
		c0.6-0.5,1.2-0.8,1.8-1.1c0.6-0.2,1.2-0.4,2-0.4c1.5,0,2.7,0.5,3.6,1.5c0.9,1,1.3,2.2,1.3,3.8c0,1.5-0.9,2.9-2.6,4.1
		c-1.7,1.3-4,2.3-6.8,3.1c-2.8,0.8-5.8,1.2-9,1.2c-4.7,0-8.9-1.1-12.5-3.3c-3.6-2.2-6.4-5.3-8.3-9.2c-2-3.9-2.9-8.2-2.9-13
		c0-5,1-9.4,3.1-13.3c2.1-3.9,4.9-6.9,8.6-9.1c3.7-2.2,7.9-3.3,12.5-3.3C1558.6,333,1562.8,333.8,1566,335.5z"/>
	<path class="st2" d="M1579.7,326.9c-0.9-0.7-1.3-1.9-1.3-3.6v-1.8c0-1.7,0.5-2.9,1.4-3.6c0.9-0.7,2.4-1,4.4-1c2.2,0,3.7,0.3,4.5,1
		c0.9,0.7,1.3,1.9,1.3,3.6v1.8c0,1.8-0.4,3-1.3,3.6c-0.9,0.6-2.4,1-4.6,1C1582.1,328,1580.6,327.6,1579.7,326.9z M1588.2,381.6
		c-1,1.1-2.4,1.6-4,1.6s-2.9-0.5-4-1.6c-1-1.1-1.6-2.4-1.6-4v-38.1c0-1.6,0.5-2.9,1.6-4c1-1.1,2.4-1.6,4-1.6s2.9,0.5,4,1.6
		c1,1.1,1.6,2.4,1.6,4v38.1C1589.8,379.2,1589.3,380.6,1588.2,381.6z"/>
	<path class="st2" d="M1643.6,361c-1.1,0.9-2.4,1.4-3.9,1.4h-30.4c0.7,3.6,2.4,6.5,5.1,8.5c2.6,2.1,5.6,3.1,8.9,3.1
		c2.5,0,4.5-0.2,5.9-0.7c1.4-0.5,2.5-1,3.4-1.5c0.8-0.5,1.4-0.9,1.7-1.1c1.1-0.6,2.1-0.8,3.1-0.8c1.3,0,2.4,0.5,3.3,1.4
		c0.9,0.9,1.4,2,1.4,3.2c0,1.7-0.9,3.2-2.6,4.5c-1.7,1.4-4,2.6-6.9,3.6c-2.9,1-5.8,1.5-8.8,1.5c-5.2,0-9.7-1.1-13.5-3.2
		c-3.8-2.1-6.8-5.1-8.9-8.9c-2.1-3.8-3.1-8-3.1-12.8c0-5.3,1.1-9.9,3.3-13.9c2.2-4,5.1-7,8.8-9.2c3.6-2.1,7.5-3.2,11.6-3.2
		c4.1,0,7.9,1.1,11.5,3.3s6.5,5.2,8.6,8.9c2.2,3.7,3.2,7.8,3.2,12.2C1645.3,358.9,1644.7,360.1,1643.6,361z M1609.4,353.2h24.1v-0.6
		c-0.2-2.6-1.5-4.8-3.8-6.6c-2.3-1.8-4.9-2.8-7.7-2.8C1614.9,343.2,1610.7,346.5,1609.4,353.2z"/>
	<path class="st2" d="M1693.9,338.6c2.4,3.7,3.6,8.9,3.6,15.4v23.6c0,1.6-0.5,2.9-1.6,4c-1,1.1-2.4,1.6-4,1.6c-1.6,0-2.9-0.5-4-1.6
		c-1-1.1-1.6-2.4-1.6-4V354c0-3.4-0.7-6-2.1-8c-1.4-1.9-3.8-2.9-7.3-2.9c-3.6,0-6.4,1-8.4,3.1c-2,2.1-3,4.7-3,7.8v23.6
		c0,1.6-0.5,2.9-1.6,4c-1,1.1-2.4,1.6-4,1.6c-1.6,0-2.9-0.5-4-1.6c-1-1.1-1.6-2.4-1.6-4v-38.1c0-1.6,0.5-2.9,1.6-4
		c1-1.1,2.4-1.6,4-1.6c1.6,0,2.9,0.5,4,1.6c1,1.1,1.6,2.4,1.6,4v1.6c1.7-2.2,3.8-4.1,6.5-5.7c2.7-1.6,5.6-2.4,8.8-2.4
		C1687.2,333,1691.5,334.9,1693.9,338.6z"/>
	<path class="st2" d="M1743.6,335.5c3.2,1.6,4.8,3.8,4.8,6.5c0,1.4-0.4,2.5-1.2,3.5c-0.8,1-1.8,1.5-3.1,1.5c-1,0-1.8-0.1-2.4-0.4
		c-0.6-0.3-1.2-0.6-1.8-1.1c-0.6-0.5-1.2-0.8-1.7-1.2c-0.6-0.3-1.5-0.6-2.7-0.8c-1.2-0.2-2.2-0.4-2.9-0.4c-4.6,0-8.2,1.4-10.8,4.3
		c-2.6,2.9-3.9,6.6-3.9,11.2c0,4.4,1.3,8.1,4,11c2.6,2.9,6,4.4,10.1,4.4c3,0,5.3-0.4,6.7-1.1c0.4-0.2,0.9-0.5,1.5-1
		c0.6-0.5,1.2-0.8,1.8-1.1c0.6-0.2,1.2-0.4,2-0.4c1.5,0,2.7,0.5,3.6,1.5c0.9,1,1.3,2.2,1.3,3.8c0,1.5-0.9,2.9-2.6,4.1
		c-1.7,1.3-4,2.3-6.8,3.1c-2.8,0.8-5.8,1.2-9,1.2c-4.7,0-8.9-1.1-12.5-3.3c-3.6-2.2-6.4-5.3-8.3-9.2c-2-3.9-2.9-8.2-2.9-13
		c0-5,1-9.4,3.1-13.3c2.1-3.9,4.9-6.9,8.6-9.1c3.7-2.2,7.9-3.3,12.5-3.3C1736.2,333,1740.4,333.8,1743.6,335.5z"/>
	<path class="st2" d="M1799.4,361c-1.1,0.9-2.4,1.4-3.9,1.4h-30.4c0.7,3.6,2.4,6.5,5.1,8.5c2.6,2.1,5.6,3.1,8.9,3.1
		c2.5,0,4.5-0.2,5.9-0.7c1.4-0.5,2.5-1,3.4-1.5c0.8-0.5,1.4-0.9,1.7-1.1c1.1-0.6,2.1-0.8,3.1-0.8c1.3,0,2.4,0.5,3.3,1.4
		c0.9,0.9,1.4,2,1.4,3.2c0,1.7-0.9,3.2-2.6,4.5c-1.7,1.4-4,2.6-6.9,3.6c-2.9,1-5.8,1.5-8.8,1.5c-5.2,0-9.7-1.1-13.5-3.2
		c-3.8-2.1-6.8-5.1-8.9-8.9c-2.1-3.8-3.1-8-3.1-12.8c0-5.3,1.1-9.9,3.3-13.9c2.2-4,5.1-7,8.8-9.2c3.6-2.1,7.5-3.2,11.6-3.2
		c4.1,0,7.9,1.1,11.5,3.3s6.5,5.2,8.6,8.9c2.2,3.7,3.2,7.8,3.2,12.2C1801.1,358.9,1800.5,360.1,1799.4,361z M1765.2,353.2h24.1v-0.6
		c-0.2-2.6-1.5-4.8-3.8-6.6c-2.3-1.8-4.9-2.8-7.7-2.8C1770.7,343.2,1766.5,346.5,1765.2,353.2z"/>
</g>
<g>
	<defs>
		<path id="SVGID_1_" d="M265.7,517.9v-59c0-8.6,4.8-23,14-23c0,0,28.5,0.3,47,0c8-0.1,13,0,13,0s11.1,2.4,21-5c8-6,9-12,9-12
			s0.5-4.7,0-9c-1.4-12.1-1-16-1-16s2-5.8,8-11c3.6-3.1,4-8,4-8s0.6-3.7-0.4-6.9c-1.2-4.3-4.6-8.1-4.6-8.1c0,0,1.8-1.5,5-5
			c2.6-2.8,4-8,4-8s1-5.5,0-7c-4.8-7-4-13-4-13s0.4-5.2,11-11c6.8-3.7,10-10,10-10s1.4-5.3,0-10c-1.6-5.2-7-10-7-10
			c-0.3-0.2-8.3-9.6-25-30c-10.6-13-12-20-12-20c0,0-1-4.5,0-11c4.4-29.6,1.8-77.4-34-122c-50.9-63.2-116-57-116-57
			s-68.8-7.4-125,56c-52.8,59.6-43,135-43,135s3.1,31,12,58c9.7,29.4,44,63,44,63s7.3,6.1,9,9c3.3,5.8,3,17,3,17l-2,134
			c0,0-2-0.1-6,0c-0.1,0-5.1,0-9,0c-3.9,0-13,0.3-13,0c0.1-71-0.1-89.2,0-118c0-5.5,2.4-16.1-2.2-21.2c-16-17.8-38.3-39.2-50.8-70.8
			c-12.4-31.4-13.9-46.2-15-70c-1.4-32-0.8-105.2,52-158c28.7-28.7,76.5-65.7,146-64c30.8,0.8,96.6,6.7,140,69
			c25.7,36.9,35.7,43.7,40,111c1.1,17.6-3.6,29.8,4,41c10.2,15.1,13.1,21,31,41c5,5.6,13.4,16.6,14,24c0.6,7.4-4.2,12.4-8,16
			c-4.5,4.3-10.7,5.6-14,12c-3.6,7-2.4,6.6-1,11c1.2,3.7,4,5,4,9c0,4.9,0.6,5.6-6,14c-5.2,6.5-3.7,3.4-3,7c0.5,2.5,6.9,6.1,6,12
			c-2.2,14.5-6.7,8.4-15,23c-5.8,10.3,1.6,16-3,33c-3,10.9-19.8,25.9-41,26c-24,0.1-58.5-1.8-59,4c-0.1,0.8-0.9,4-1,14
			c-0.1,10.7-0.1,17.9,0,35c0,0.1-1.7-0.1-5,0c-5.6,0.1-6.7,0-11,0C271.7,517.8,265.7,517.9,265.7,517.9z"/>
	</defs>
	<clipPath id="SVGID_2_">
		<use xlink:href="#SVGID_1_"  style="overflow:visible;"/>
	</clipPath>
	<g class="st5">
		
			<rect x="132.9" y="48.2" transform="matrix(0.7071 0.7071 -0.7071 0.7071 354.9312 -129.1387)" class="st0" width="400.9" height="631.4"/>
		
			<rect x="-87.1" y="-196.1" transform="matrix(0.7071 0.7071 -0.7071 0.7071 100.2772 -38.2985)" class="st2" width="367" height="596"/>
	</g>
</g>
</svg>
