<?xml version="1.0" encoding="UTF-8" standalone="no"?>
<!-- Generator: Adobe Illustrator 21.0.2, SVG Export Plug-In . SVG Version: 6.00 Build 0)  -->

<svg
   xmlns:dc="http://purl.org/dc/elements/1.1/"
   xmlns:cc="http://creativecommons.org/ns#"
   xmlns:rdf="http://www.w3.org/1999/02/22-rdf-syntax-ns#"
   xmlns:svg="http://www.w3.org/2000/svg"
   xmlns="http://www.w3.org/2000/svg"
   xmlns:xlink="http://www.w3.org/1999/xlink"
   xmlns:sodipodi="http://sodipodi.sourceforge.net/DTD/sodipodi-0.dtd"
   xmlns:inkscape="http://www.inkscape.org/namespaces/inkscape"
   version="1.1"
   id="Layer_1"
   x="0px"
   y="0px"
   viewBox="0 0 31.999999 32"
   xml:space="preserve"
   inkscape:version="0.91 r13725"
   sodipodi:docname="favicon.svg"
   width="32"
   height="32"><metadata
     id="metadata47509"><rdf:RDF><cc:Work
         rdf:about=""><dc:format>image/svg+xml</dc:format><dc:type
           rdf:resource="http://purl.org/dc/dcmitype/StillImage" /><dc:title></dc:title></cc:Work></rdf:RDF></metadata><defs
     id="defs47507" /><sodipodi:namedview
     pagecolor="#ffffff"
     bordercolor="#666666"
     borderopacity="1"
     objecttolerance="10"
     gridtolerance="10"
     guidetolerance="10"
     inkscape:pageopacity="0"
     inkscape:pageshadow="2"
     inkscape:window-width="3775"
     inkscape:window-height="2136"
     id="namedview47505"
     showgrid="false"
     fit-margin-top="0"
     fit-margin-left="0"
     fit-margin-right="0"
     fit-margin-bottom="0"
     inkscape:zoom="20.398808"
     inkscape:cx="36.637834"
     inkscape:cy="0.95336964"
     inkscape:window-x="65"
     inkscape:window-y="24"
     inkscape:window-maximized="1"
     inkscape:current-layer="Layer_1" /><style
     type="text/css"
     id="style47398">
	.st0{fill:#3D3D79;}
	.st1{clip-path:url(#CLOPATH_LAB_copy_1_);}
	.st2{fill:#239FDF;}
	.st3{fill:none;enable-background:new    ;}
	.st4{enable-background:new    ;}
	.st5{clip-path:url(#SVGID_2_);}
</style><path
     class="st3"
     d=""
     id="path47415"
     inkscape:connector-curvature="0"
     style="fill:none;enable-background:new" /><path
     class="st3"
     d=""
     id="path47417"
     inkscape:connector-curvature="0"
     style="fill:none;enable-background:new" /><g
     id="g47511"
     transform="matrix(0.07494983,0,0,0.06365449,-0.75097277,-0.97515888)"><path
       id="path47419"
       d="m 124.9,297.9 c 6.4,0 11.5,5.1 11.5,11.5 0,6.4 -5.1,11.5 -11.5,11.5 -6.4,0 -11.5,-5.1 -11.5,-11.5 0,-6.4 5.1,-11.5 11.5,-11.5 l 0,0 z m 0,0 c 6.4,0 11.5,5.1 11.5,11.5 0,6.4 -5.1,11.5 -11.5,11.5 -6.4,0 -11.5,-5.1 -11.5,-11.5 0,-6.4 5.1,-11.5 11.5,-11.5 l 0,0 z m 0,0 c 6.4,0 11.5,5.1 11.5,11.5 0,6.4 -5.1,11.5 -11.5,11.5 -6.4,0 -11.5,-5.1 -11.5,-11.5 0,-6.4 5.1,-11.5 11.5,-11.5 l 0,0 z m 0,0 c 6.4,0 11.5,5.1 11.5,11.5 0,6.4 -5.1,11.5 -11.5,11.5 -6.4,0 -11.5,-5.1 -11.5,-11.5 0,-6.4 5.1,-11.5 11.5,-11.5 l 0,0 z"
       class="st0"
       inkscape:connector-curvature="0"
       style="fill:#3d3d79" /><path
       d="m 82.9,253.9 c 6.4,0 11.5,5.1 11.5,11.5 0,6.4 -5.1,11.5 -11.5,11.5 -6.4,0 -11.5,-5.1 -11.5,-11.5 l 0,0 c 0,-6.4 5.1,-11.5 11.5,-11.5 z m 0,0 c 6.4,0 11.5,5.1 11.5,11.5 0,6.4 -5.1,11.5 -11.5,11.5 -6.4,0 -11.5,-5.1 -11.5,-11.5 l 0,0 c 0,-6.4 5.1,-11.5 11.5,-11.5 z m 0,0 c 6.4,0 11.5,5.1 11.5,11.5 0,6.4 -5.1,11.5 -11.5,11.5 -6.4,0 -11.5,-5.1 -11.5,-11.5 l 0,0 c 0,-6.4 5.1,-11.5 11.5,-11.5 z m 0,0 c 6.4,0 11.5,5.1 11.5,11.5 0,6.4 -5.1,11.5 -11.5,11.5 -6.4,0 -11.5,-5.1 -11.5,-11.5 l 0,0 c 0,-6.4 5.1,-11.5 11.5,-11.5 z"
       class="st0"
       id="Ellipse_1_copy"
       inkscape:connector-curvature="0"
       style="fill:#3d3d79" /><path
       d="m 166.9,253.9 c 6.4,0 11.5,5.1 11.5,11.5 0,6.4 -5.1,11.5 -11.5,11.5 -6.4,0 -11.5,-5.1 -11.5,-11.5 l 0,0 c 0,-6.4 5.1,-11.5 11.5,-11.5 z m 0,0 c 6.4,0 11.5,5.1 11.5,11.5 0,6.4 -5.1,11.5 -11.5,11.5 -6.4,0 -11.5,-5.1 -11.5,-11.5 l 0,0 c 0,-6.4 5.1,-11.5 11.5,-11.5 z m 0,0 c 6.4,0 11.5,5.1 11.5,11.5 0,6.4 -5.1,11.5 -11.5,11.5 -6.4,0 -11.5,-5.1 -11.5,-11.5 l 0,0 c 0,-6.4 5.1,-11.5 11.5,-11.5 z m 0,0 c 6.4,0 11.5,5.1 11.5,11.5 0,6.4 -5.1,11.5 -11.5,11.5 -6.4,0 -11.5,-5.1 -11.5,-11.5 l 0,0 c 0,-6.4 5.1,-11.5 11.5,-11.5 z"
       class="st0"
       id="Ellipse_1_copy_2"
       inkscape:connector-curvature="0"
       style="fill:#3d3d79" /><path
       d="m 209.9,209.9 c 6.4,0 11.5,5.1 11.5,11.5 0,6.4 -5.1,11.5 -11.5,11.5 -6.4,0 -11.5,-5.1 -11.5,-11.5 l 0,0 c 0,-6.4 5.1,-11.5 11.5,-11.5 z m 0,0 c 6.4,0 11.5,5.1 11.5,11.5 0,6.4 -5.1,11.5 -11.5,11.5 -6.4,0 -11.5,-5.1 -11.5,-11.5 l 0,0 c 0,-6.4 5.1,-11.5 11.5,-11.5 z m 0,0 c 6.4,0 11.5,5.1 11.5,11.5 0,6.4 -5.1,11.5 -11.5,11.5 -6.4,0 -11.5,-5.1 -11.5,-11.5 l 0,0 c 0,-6.4 5.1,-11.5 11.5,-11.5 z m 0,0 c 6.4,0 11.5,5.1 11.5,11.5 0,6.4 -5.1,11.5 -11.5,11.5 -6.4,0 -11.5,-5.1 -11.5,-11.5 l 0,0 c 0,-6.4 5.1,-11.5 11.5,-11.5 z"
       class="st0"
       id="Ellipse_1_copy_3"
       inkscape:connector-curvature="0"
       style="fill:#3d3d79" /><path
       d="m 251.9,169.9 c 6.4,0 11.5,5.1 11.5,11.5 0,6.4 -5.1,11.5 -11.5,11.5 -6.4,0 -11.5,-5.1 -11.5,-11.5 l 0,0 c 0,-6.4 5.1,-11.5 11.5,-11.5 z m 0,0 c 6.4,0 11.5,5.1 11.5,11.5 0,6.4 -5.1,11.5 -11.5,11.5 -6.4,0 -11.5,-5.1 -11.5,-11.5 l 0,0 c 0,-6.4 5.1,-11.5 11.5,-11.5 z m 0,0 c 6.4,0 11.5,5.1 11.5,11.5 0,6.4 -5.1,11.5 -11.5,11.5 -6.4,0 -11.5,-5.1 -11.5,-11.5 l 0,0 c 0,-6.4 5.1,-11.5 11.5,-11.5 z m 0,0 c 6.4,0 11.5,5.1 11.5,11.5 0,6.4 -5.1,11.5 -11.5,11.5 -6.4,0 -11.5,-5.1 -11.5,-11.5 l 0,0 c 0,-6.4 5.1,-11.5 11.5,-11.5 z"
       class="st0"
       id="Ellipse_1_copy_5"
       inkscape:connector-curvature="0"
       style="fill:#3d3d79" /><path
       d="m 293.9,125.9 c 6.4,0 11.5,5.1 11.5,11.5 0,6.4 -5.1,11.5 -11.5,11.5 -6.4,0 -11.5,-5.1 -11.5,-11.5 l 0,0 c 0,-6.4 5.1,-11.5 11.5,-11.5 z m 0,0 c 6.4,0 11.5,5.1 11.5,11.5 0,6.4 -5.1,11.5 -11.5,11.5 -6.4,0 -11.5,-5.1 -11.5,-11.5 l 0,0 c 0,-6.4 5.1,-11.5 11.5,-11.5 z m 0,0 c 6.4,0 11.5,5.1 11.5,11.5 0,6.4 -5.1,11.5 -11.5,11.5 -6.4,0 -11.5,-5.1 -11.5,-11.5 l 0,0 c 0,-6.4 5.1,-11.5 11.5,-11.5 z m 0,0 c 6.4,0 11.5,5.1 11.5,11.5 0,6.4 -5.1,11.5 -11.5,11.5 -6.4,0 -11.5,-5.1 -11.5,-11.5 l 0,0 c 0,-6.4 5.1,-11.5 11.5,-11.5 z"
       class="st0"
       id="Ellipse_1_copy_6"
       inkscape:connector-curvature="0"
       style="fill:#3d3d79" /><path
       d="m 251.9,83.9 c 6.4,0 11.5,5.1 11.5,11.5 0,6.4 -5.1,11.5 -11.5,11.5 -6.4,0 -11.5,-5.1 -11.5,-11.5 0,-6.4 5.1,-11.5 11.5,-11.5 l 0,0 z m 0,0 c 6.4,0 11.5,5.1 11.5,11.5 0,6.4 -5.1,11.5 -11.5,11.5 -6.4,0 -11.5,-5.1 -11.5,-11.5 0,-6.4 5.1,-11.5 11.5,-11.5 l 0,0 z m 0,0 c 6.4,0 11.5,5.1 11.5,11.5 0,6.4 -5.1,11.5 -11.5,11.5 -6.4,0 -11.5,-5.1 -11.5,-11.5 0,-6.4 5.1,-11.5 11.5,-11.5 l 0,0 z m 0,0 c 6.4,0 11.5,5.1 11.5,11.5 0,6.4 -5.1,11.5 -11.5,11.5 -6.4,0 -11.5,-5.1 -11.5,-11.5 0,-6.4 5.1,-11.5 11.5,-11.5 l 0,0 z"
       class="st0"
       id="Ellipse_1_copy_7"
       inkscape:connector-curvature="0"
       style="fill:#3d3d79" /><path
       d="m 124.9,212.9 c 6.4,0 11.5,5.1 11.5,11.5 0,6.4 -5.1,11.5 -11.5,11.5 -6.4,0 -11.5,-5.1 -11.5,-11.5 l 0,0 c 0,-6.4 5.1,-11.5 11.5,-11.5 z m 0,0 c 6.4,0 11.5,5.1 11.5,11.5 0,6.4 -5.1,11.5 -11.5,11.5 -6.4,0 -11.5,-5.1 -11.5,-11.5 l 0,0 c 0,-6.4 5.1,-11.5 11.5,-11.5 z m 0,0 c 6.4,0 11.5,5.1 11.5,11.5 0,6.4 -5.1,11.5 -11.5,11.5 -6.4,0 -11.5,-5.1 -11.5,-11.5 l 0,0 c 0,-6.4 5.1,-11.5 11.5,-11.5 z m 0,0 c 6.4,0 11.5,5.1 11.5,11.5 0,6.4 -5.1,11.5 -11.5,11.5 -6.4,0 -11.5,-5.1 -11.5,-11.5 l 0,0 c 0,-6.4 5.1,-11.5 11.5,-11.5 z"
       class="st0"
       id="Ellipse_1_copy_4"
       inkscape:connector-curvature="0"
       style="fill:#3d3d79" /><path
       d="m 166.9,169.9 c 6.4,0 11.5,5.1 11.5,11.5 0,6.4 -5.1,11.5 -11.5,11.5 -6.4,0 -11.5,-5.1 -11.5,-11.5 l 0,0 c 0,-6.4 5.1,-11.5 11.5,-11.5 z m 0,0 c 6.4,0 11.5,5.1 11.5,11.5 0,6.4 -5.1,11.5 -11.5,11.5 -6.4,0 -11.5,-5.1 -11.5,-11.5 l 0,0 c 0,-6.4 5.1,-11.5 11.5,-11.5 z m 0,0 c 6.4,0 11.5,5.1 11.5,11.5 0,6.4 -5.1,11.5 -11.5,11.5 -6.4,0 -11.5,-5.1 -11.5,-11.5 l 0,0 c 0,-6.4 5.1,-11.5 11.5,-11.5 z m 0,0 c 6.4,0 11.5,5.1 11.5,11.5 0,6.4 -5.1,11.5 -11.5,11.5 -6.4,0 -11.5,-5.1 -11.5,-11.5 l 0,0 c 0,-6.4 5.1,-11.5 11.5,-11.5 z"
       class="st0"
       id="Ellipse_1_copy_8"
       inkscape:connector-curvature="0"
       style="fill:#3d3d79" /><path
       d="m 209.9,125.9 c 6.4,0 11.5,5.1 11.5,11.5 0,6.4 -5.1,11.5 -11.5,11.5 -6.4,0 -11.5,-5.1 -11.5,-11.5 l 0,0 c 0,-6.4 5.1,-11.5 11.5,-11.5 z m 0,0 c 6.4,0 11.5,5.1 11.5,11.5 0,6.4 -5.1,11.5 -11.5,11.5 -6.4,0 -11.5,-5.1 -11.5,-11.5 l 0,0 c 0,-6.4 5.1,-11.5 11.5,-11.5 z m 0,0 c 6.4,0 11.5,5.1 11.5,11.5 0,6.4 -5.1,11.5 -11.5,11.5 -6.4,0 -11.5,-5.1 -11.5,-11.5 l 0,0 c 0,-6.4 5.1,-11.5 11.5,-11.5 z m 0,0 c 6.4,0 11.5,5.1 11.5,11.5 0,6.4 -5.1,11.5 -11.5,11.5 -6.4,0 -11.5,-5.1 -11.5,-11.5 l 0,0 c 0,-6.4 5.1,-11.5 11.5,-11.5 z"
       class="st0"
       id="Ellipse_1_copy_9"
       inkscape:connector-curvature="0"
       style="fill:#3d3d79" /><path
       d="m 167.9,83.9 c 6.4,0 11.5,5.1 11.5,11.5 0,6.4 -5.1,11.5 -11.5,11.5 -6.4,0 -11.5,-5.1 -11.5,-11.5 0,-6.4 5.1,-11.5 11.5,-11.5 l 0,0 z m 0,0 c 6.4,0 11.5,5.1 11.5,11.5 0,6.4 -5.1,11.5 -11.5,11.5 -6.4,0 -11.5,-5.1 -11.5,-11.5 0,-6.4 5.1,-11.5 11.5,-11.5 l 0,0 z m 0,0 c 6.4,0 11.5,5.1 11.5,11.5 0,6.4 -5.1,11.5 -11.5,11.5 -6.4,0 -11.5,-5.1 -11.5,-11.5 0,-6.4 5.1,-11.5 11.5,-11.5 l 0,0 z m 0,0 c 6.4,0 11.5,5.1 11.5,11.5 0,6.4 -5.1,11.5 -11.5,11.5 -6.4,0 -11.5,-5.1 -11.5,-11.5 0,-6.4 5.1,-11.5 11.5,-11.5 l 0,0 z"
       class="st0"
       id="Ellipse_1_copy_10"
       inkscape:connector-curvature="0"
       style="fill:#3d3d79" /><path
       d="m 124.9,124.9 c 6.4,0 11.5,5.1 11.5,11.5 0,6.4 -5.1,11.5 -11.5,11.5 -6.4,0 -11.5,-5.1 -11.5,-11.5 0,-6.4 5.1,-11.5 11.5,-11.5 l 0,0 z m 0,0 c 6.4,0 11.5,5.1 11.5,11.5 0,6.4 -5.1,11.5 -11.5,11.5 -6.4,0 -11.5,-5.1 -11.5,-11.5 0,-6.4 5.1,-11.5 11.5,-11.5 l 0,0 z m 0,0 c 6.4,0 11.5,5.1 11.5,11.5 0,6.4 -5.1,11.5 -11.5,11.5 -6.4,0 -11.5,-5.1 -11.5,-11.5 0,-6.4 5.1,-11.5 11.5,-11.5 l 0,0 z m 0,0 c 6.4,0 11.5,5.1 11.5,11.5 0,6.4 -5.1,11.5 -11.5,11.5 -6.4,0 -11.5,-5.1 -11.5,-11.5 0,-6.4 5.1,-11.5 11.5,-11.5 l 0,0 z"
       class="st0"
       id="Ellipse_1_copy_11"
       inkscape:connector-curvature="0"
       style="fill:#3d3d79" /><path
       d="m 82.9,169.9 c 6.4,0 11.5,5.1 11.5,11.5 0,6.4 -5.1,11.5 -11.5,11.5 -6.4,0 -11.5,-5.1 -11.5,-11.5 l 0,0 c 0,-6.4 5.1,-11.5 11.5,-11.5 z m 0,0 c 6.4,0 11.5,5.1 11.5,11.5 0,6.4 -5.1,11.5 -11.5,11.5 -6.4,0 -11.5,-5.1 -11.5,-11.5 l 0,0 c 0,-6.4 5.1,-11.5 11.5,-11.5 z m 0,0 c 6.4,0 11.5,5.1 11.5,11.5 0,6.4 -5.1,11.5 -11.5,11.5 -6.4,0 -11.5,-5.1 -11.5,-11.5 l 0,0 c 0,-6.4 5.1,-11.5 11.5,-11.5 z m 0,0 c 6.4,0 11.5,5.1 11.5,11.5 0,6.4 -5.1,11.5 -11.5,11.5 -6.4,0 -11.5,-5.1 -11.5,-11.5 l 0,0 c 0,-6.4 5.1,-11.5 11.5,-11.5 z"
       class="st0"
       id="Ellipse_1_copy_12"
       inkscape:connector-curvature="0"
       style="fill:#3d3d79" /><rect
       height="46"
       width="13"
       class="st2"
       y="155.89999"
       x="203.39999"
       id="Rectangle_1_copy_2"
       style="fill:#239fdf" /><rect
       height="13"
       width="46"
       class="st2"
       y="88.900002"
       x="187.39999"
       id="Rectangle_1_copy_4"
       style="fill:#239fdf" /><rect
       height="13"
       width="46"
       class="st2"
       y="129.89999"
       x="144.39999"
       id="Rectangle_1_copy_5"
       style="fill:#239fdf" /><rect
       height="46"
       width="13"
       class="st2"
       y="243.89999"
       x="118.4"
       id="Rectangle_1_copy_3"
       style="fill:#239fdf" /><path
       d="m 92.4,199.1 9.2,-9.2 14.8,14.8 -9.2,9.2 -14.8,-14.8 z"
       class="st2"
       id="Rectangle_1_copy_6"
       inkscape:connector-curvature="0"
       style="fill:#239fdf" /><path
       d="m 261.4,113.1 9.2,-9.2 14.8,14.8 -9.2,9.2 -14.8,-14.8 z"
       class="st2"
       id="Rectangle_1_copy_7"
       inkscape:connector-curvature="0"
       style="fill:#239fdf" /><g
       id="g47491"><defs
         id="defs47493"><path
           d="m 265.7,517.9 0,-59 c 0,-8.6 4.8,-23 14,-23 0,0 28.5,0.3 47,0 8,-0.1 13,0 13,0 0,0 11.1,2.4 21,-5 8,-6 9,-12 9,-12 0,0 0.5,-4.7 0,-9 -1.4,-12.1 -1,-16 -1,-16 0,0 2,-5.8 8,-11 3.6,-3.1 4,-8 4,-8 0,0 0.6,-3.7 -0.4,-6.9 -1.2,-4.3 -4.6,-8.1 -4.6,-8.1 0,0 1.8,-1.5 5,-5 2.6,-2.8 4,-8 4,-8 0,0 1,-5.5 0,-7 -4.8,-7 -4,-13 -4,-13 0,0 0.4,-5.2 11,-11 6.8,-3.7 10,-10 10,-10 0,0 1.4,-5.3 0,-10 -1.6,-5.2 -7,-10 -7,-10 -0.3,-0.2 -8.3,-9.6 -25,-30 -10.6,-13 -12,-20 -12,-20 0,0 -1,-4.5 0,-11 4.4,-29.6 1.8,-77.4 -34,-122 -50.9,-63.2 -116,-57 -116,-57 0,0 -68.8,-7.4 -125,56 -52.8,59.6 -43,135 -43,135 0,0 3.1,31 12,58 9.7,29.4 44,63 44,63 0,0 7.3,6.1 9,9 3.3,5.8 3,17 3,17 l -2,134 c 0,0 -2,-0.1 -6,0 -0.1,0 -5.1,0 -9,0 -3.9,0 -13,0.3 -13,0 0.1,-71 -0.1,-89.2 0,-118 0,-5.5 2.4,-16.1 -2.2,-21.2 -16,-17.8 -38.3,-39.2 -50.8,-70.8 -12.4,-31.4 -13.9,-46.2 -15,-70 -1.4,-32 -0.8,-105.2 52,-158 28.7,-28.7 76.5,-65.7 146,-64 30.8,0.8 96.6,6.7 140,69 25.7,36.9 35.7,43.7 40,111 1.1,17.6 -3.6,29.8 4,41 10.2,15.1 13.1,21 31,41 5,5.6 13.4,16.6 14,24 0.6,7.4 -4.2,12.4 -8,16 -4.5,4.3 -10.7,5.6 -14,12 -3.6,7 -2.4,6.6 -1,11 1.2,3.7 4,5 4,9 0,4.9 0.6,5.6 -6,14 -5.2,6.5 -3.7,3.4 -3,7 0.5,2.5 6.9,6.1 6,12 -2.2,14.5 -6.7,8.4 -15,23 -5.8,10.3 1.6,16 -3,33 -3,10.9 -19.8,25.9 -41,26 -24,0.1 -58.5,-1.8 -59,4 -0.1,0.8 -0.9,4 -1,14 -0.1,10.7 -0.1,17.9 0,35 0,0.1 -1.7,-0.1 -5,0 -5.6,0.1 -6.7,0 -11,0 -8,-0.1 -14,0 -14,0 z"
           id="SVGID_1_"
           inkscape:connector-curvature="0" /></defs><clipPath
         id="SVGID_2_"><use
           id="use47497"
           style="overflow:visible"
           xlink:href="#SVGID_1_"
           x="0"
           y="0"
           width="100%"
           height="100%" /></clipPath><g
         clip-path="url(#SVGID_2_)"
         id="g47499"
         class="st5"><rect
           id="rect47501"
           height="631.40002"
           width="400.89999"
           class="st0"
           transform="matrix(0.7071,0.7071,-0.7071,0.7071,354.9312,-129.1387)"
           y="48.200001"
           x="132.89999"
           style="fill:#3d3d79" /><rect
           id="rect47503"
           height="596"
           width="367"
           class="st2"
           transform="matrix(0.7071,0.7071,-0.7071,0.7071,100.2772,-38.2985)"
           y="-196.10001"
           x="-87.099998"
           style="fill:#239fdf" /></g></g></g></svg>