<?xml version="1.0" encoding="UTF-8" standalone="no"?>
<!-- Created with Inkscape (http://www.inkscape.org/) -->

<svg
   xmlns:dc="http://purl.org/dc/elements/1.1/"
   xmlns:cc="http://creativecommons.org/ns#"
   xmlns:rdf="http://www.w3.org/1999/02/22-rdf-syntax-ns#"
   xmlns:svg="http://www.w3.org/2000/svg"
   xmlns="http://www.w3.org/2000/svg"
   xmlns:sodipodi="http://sodipodi.sourceforge.net/DTD/sodipodi-0.dtd"
   xmlns:inkscape="http://www.inkscape.org/namespaces/inkscape"
   id="svg34359"
   version="1.1"
   inkscape:version="0.91 r13725"
   xml:space="preserve"
   width="400"
   height="400"
   viewBox="0 0 400 400"
   sodipodi:docname="leverhulm.svg"><metadata
     id="metadata34365"><rdf:RDF><cc:Work
         rdf:about=""><dc:format>image/svg+xml</dc:format><dc:type
           rdf:resource="http://purl.org/dc/dcmitype/StillImage" /><dc:title></dc:title></cc:Work></rdf:RDF></metadata><defs
     id="defs34363" /><sodipodi:namedview
     pagecolor="#ffffff"
     bordercolor="#666666"
     borderopacity="1"
     objecttolerance="10"
     gridtolerance="10"
     guidetolerance="10"
     inkscape:pageopacity="0"
     inkscape:pageshadow="2"
     inkscape:window-width="3775"
     inkscape:window-height="2136"
     id="namedview34361"
     showgrid="false"
     inkscape:zoom="4.6214632"
     inkscape:cx="242.01179"
     inkscape:cy="177.43019"
     inkscape:window-x="65"
     inkscape:window-y="24"
     inkscape:window-maximized="1"
     inkscape:current-layer="g34367" /><g
     id="g34367"
     inkscape:groupmode="layer"
     inkscape:label="ink_ext_XXXXXX"
     transform="matrix(1.25,0,0,-1.25,0,400)"><g
       id="g34369"
       transform="matrix(0.1,0,0,0.1,18.303393,131.8625)"><path
         d="m 1467.16,3.37109 1367.49,0 0,24.45311 -1367.49,0 0,-24.45311 z m -312.88,187.77391 0,-24.415 81.35,0 0,-163.35891 28.47,0 0,163.35891 81.35,0 0,24.415 -191.17,0 z M 957.137,24.3945 c -34.934,0 -58.309,15.6055 -60.012,46.4571 l -29.809,0 C 868.32,27.7852 902.559,0 957.137,0 c 46.763,0 77.283,20.6641 77.283,54.8828 0,42.0508 -46.123,50.5392 -75.26,55.9692 -44.07,8.086 -54.242,16.933 -54.242,31.804 0,18.34 15.969,27.473 44.426,27.473 34.219,0 51.516,-12.512 52.526,-38.633 l 29.81,0 c -1.34,40.352 -31.51,63.043 -82.008,63.043 -46.106,0 -74.563,-18.961 -74.563,-54.226 0,-35.938 29.485,-43.7114 76.59,-53.8755 33.235,-7.1406 52.881,-11.1914 52.881,-31.5547 0,-19.9883 -19.318,-30.4883 -47.443,-30.4883 m -234.375,166.7505 0,-110.8325 c 0,-33.543 -29.137,-54.2266 -57.614,-54.2266 -28.804,0 -58.304,20.6836 -58.304,54.2266 l 0,110.8325 -28.457,0 0,-110.5005 c 0,-49.4531 41.004,-78.97262 86.761,-78.97262 45.762,0 86.09,29.51952 86.09,78.97262 l 0,110.5005 -28.476,0 z m -395.844,-24.407 59.656,0 c 19.317,0 33.563,-11.16 33.563,-26.758 0,-17.304 -14.246,-29.851 -33.563,-29.851 l -59.656,0 0,56.609 z M 457.082,3.39063 406.918,88.125 c 25.766,6.7695 43.051,26.414 43.051,51.855 0,29.825 -26.793,51.172 -63.395,51.172 l -88.097,0 0,-187.76137 28.441,0 0,82.36327 51.867,0 46.438,-82.36327 31.859,0 z M 0,191.145 0,166.73 l 81.3477,0 0,-163.35891 28.4573,0 0,163.35891 81.371,0 0,24.415 -191.176,0 z m 2690.97,375.785 0,-187.774 143.68,0 0,24.395 -115.22,0 0,58.637 109.11,0 0,24.414 -109.11,0 0,55.91 115.22,0 0,24.418 -143.68,0 z m -172.25,0 -57.6,-79.301 -57.62,79.301 -24.42,0 0,-187.774 28.5,0 0,140 49.83,-68.144 7.44,0 49.83,68.144 0,-140 28.46,0 0,187.774 -24.42,0 z m -422.36,0 0,-187.774 144.74,0 0,24.395 -116.25,0 0,163.379 -28.49,0 z m -176.31,-0.012 0,-110.828 c 0,-33.559 -29.15,-54.231 -57.63,-54.231 -28.81,0 -58.3,20.672 -58.3,54.231 l 0,110.828 -28.45,0 0,-110.504 c 0,-49.449 41.01,-78.934 86.75,-78.934 45.78,0 86.11,29.485 86.11,78.934 l 0,110.504 -28.48,0 z m -320.69,0.012 0,-79.996 -103.72,0 0,79.996 -28.48,0 0,-187.774 28.48,0 0,83.379 103.72,0 0,-83.379 28.47,0 0,187.774 -28.47,0 z m -400.33,-24.418 59.64,0 c 19.33,0 33.58,-11.16 33.58,-26.758 0,-17.301 -14.25,-29.813 -33.58,-29.813 l -59.64,0 0,56.571 z m 130.15,-163.36 -50.17,84.75 c 25.75,6.766 43.05,26.411 43.05,51.852 0,29.828 -26.78,51.172 -63.39,51.172 l -88.12,0 0,-187.774 28.48,0 0,82.371 51.83,0 46.46,-82.371 31.86,0 z m -450.168,187.778 0,-187.774 143.718,0 0,24.395 -115.222,0 0,58.637 109.112,0 0,24.414 -109.112,0 0,55.91 115.222,0 0,24.418 -143.718,0 z m -150.5,0 -63.719,-155.219 -63.719,155.219 -31.164,0 81,-187.774 27.781,0 81.024,187.774 -31.203,0 z m -422.582,0 0,-187.774 143.695,0 0,24.395 -115.203,0 0,58.637 109.113,0 0,24.414 -109.113,0 0,55.91 115.203,0 0,24.418 -143.695,0 z m -254.2347,0 0,-163.379 116.2457,0 0,-24.395 -144.7066,0 0,187.774 28.4609,0"
         style="fill:#231f20;fill-opacity:1;fill-rule:nonzero;stroke:none"
         id="path34371"
         inkscape:connector-curvature="0" /></g><rect
       style="fill:none;fill-opacity:1;stroke:none;stroke-width:2.20000005;stroke-linecap:round;stroke-linejoin:round;stroke-miterlimit:10;stroke-dasharray:none;stroke-dashoffset:0;stroke-opacity:1"
       id="rect34373"
       width="319.37936"
       height="319.37936"
       x="0.34621069"
       y="-319.89868"
       transform="scale(1,-1)" /></g></svg>