<?xml version="1.0" encoding="UTF-8" standalone="no"?>
<svg
   xmlns:dc="http://purl.org/dc/elements/1.1/"
   xmlns:cc="http://creativecommons.org/ns#"
   xmlns:rdf="http://www.w3.org/1999/02/22-rdf-syntax-ns#"
   xmlns:svg="http://www.w3.org/2000/svg"
   xmlns="http://www.w3.org/2000/svg"
   xmlns:sodipodi="http://sodipodi.sourceforge.net/DTD/sodipodi-0.dtd"
   xmlns:inkscape="http://www.inkscape.org/namespaces/inkscape"
   viewBox="0 0 300 300"
   height="300"
   width="300"
   xml:space="preserve"
   version="1.1"
   id="svg48641"
   inkscape:version="0.91 r13725"
   sodipodi:docname="royalsociety.svg"><sodipodi:namedview
     pagecolor="#ffffff"
     bordercolor="#666666"
     borderopacity="1"
     objecttolerance="10"
     gridtolerance="10"
     guidetolerance="10"
     inkscape:pageopacity="0"
     inkscape:pageshadow="2"
     inkscape:window-width="3775"
     inkscape:window-height="2136"
     id="namedview4185"
     showgrid="false"
     inkscape:zoom="6.61"
     inkscape:cx="150"
     inkscape:cy="150"
     inkscape:window-x="65"
     inkscape:window-y="24"
     inkscape:window-maximized="1"
     inkscape:current-layer="svg48641" /><metadata
     id="metadata48647"><rdf:RDF><cc:Work
         rdf:about=""><dc:format>image/svg+xml</dc:format><dc:type
           rdf:resource="http://purl.org/dc/dcmitype/StillImage" /><dc:title></dc:title></cc:Work></rdf:RDF></metadata><defs
     id="defs48645" /><g
     transform="matrix(1.25,0,0,-1.25,0,300)"
     id="g48649"><g
       transform="matrix(0.1,0,0,0.1,23.480276,106.40798)"
       id="g48651"><path
         id="path48653"
         style="fill:#231f20;fill-opacity:1;fill-rule:nonzero;stroke:none"
         d="m 172.578,18.0195 c -5.469,0 -13.867,1.1289 -13.867,15.9024 l 0,42.8086 64.258,0 0,-42.8086 c 0,-14.7735 -8.36,-15.9024 -13.867,-15.9024 l 0,-3.1211 48.707,0 0,3.1211 c -5.508,0 -13.86,1.1289 -13.86,15.9024 l 0,87.7261 c 0,14.813 8.352,15.903 13.86,15.903 l 0,3.129 -48.707,0 0,-3.129 c 5.507,0 13.867,-1.129 13.867,-15.903 l 0,-35.3082 -64.258,0 0,35.3082 c 0,14.813 8.398,15.903 13.867,15.903 l 0,3.129 -48.668,0 0,-3.129 c 5.469,0 13.82,-1.129 13.82,-15.903 l 0,-87.7261 c 0,-14.7735 -8.351,-15.9024 -13.82,-15.9024 l 0,-3.1211 48.668,0 0,3.1211" /><path
         id="path48655"
         style="fill:#231f20;fill-opacity:1;fill-rule:nonzero;stroke:none"
         d="m 24.6914,131.809 16.7188,0 0,-97.8871 c 0,-14.7735 -8.3594,-15.9024 -13.8321,-15.9024 l 0,-3.1211 48.6719,0 0,3.1211 c -5.4687,0 -13.8711,1.1289 -13.8711,15.9024 l 0,97.8871 16.7617,0 c 18.1289,0 18.8711,-9.258 21.1684,-15.661 l 3.132,0 0,24.532 -103.089437,0 0,-24.532 3.167967,0 c 2.26172,6.403 3.03906,15.661 21.17187,15.661" /><path
         id="path48657"
         style="fill:#231f20;fill-opacity:1;fill-rule:nonzero;stroke:none"
         d="m 293.711,121.648 0,-87.7261 c 0,-14.7735 -8.359,-15.9024 -13.871,-15.9024 l 0,-3.1211 90.43,0 0,25 -3.2,0 c -1.871,-8.6796 -4.492,-16.1367 -15.859,-16.1367 l -36.52,0 0,55.5899 21.829,0 c 12.23,0 13.75,-7.8907 13.558,-13.8711 l 3.16,0 3.832,22.7383 0.629,3.75 -2.969,0 c -2.66,-3.3204 -5.281,-3.75 -11.371,-3.75 l -28.668,0 0,43.5902 30.739,0 c 11.371,0 15.082,-7.887 15.859,-13.868 l 3.16,0 0,22.739 -84.609,0 0,-3.129 c 5.512,0 13.871,-1.129 13.871,-15.903" /><path
         id="path48659"
         style="fill:#231f20;fill-opacity:1;fill-rule:nonzero;stroke:none"
         d="m 1552.23,79.4688 0,42.1792 c 0,14.813 8.36,15.903 13.86,15.903 l 0,3.168 -48.75,0 0,-3.168 c 5.47,0 13.87,-1.09 13.87,-15.903 l 0,-87.8472 c 0,-14.8008 -8.4,-15.9024 -13.87,-15.9024 l 0,-3.1171 48.75,0 0,3.1171 c -5.5,0 -13.86,1.1016 -13.86,15.9024 l 0,45.668" /><path
         id="path48661"
         style="fill:#231f20;fill-opacity:1;fill-rule:nonzero;stroke:none"
         d="m 1734.3,140.719 -40.39,0 0,-24.571 3.12,0 c 2.31,6.403 3.05,15.661 21.17,15.661 l 16.8,0 0,-98.0082 C 1735,19 1726.6,17.8984 1721.13,17.8984 l 0,-3.1171 48.75,0 0,3.1171 c -5.5,0 -13.86,1.1016 -13.86,15.9024 l 0,98.0082 16.75,0 c 18.13,0 18.91,-9.258 21.18,-15.661 l 3.16,0 0,24.571 -62.81,0" /><path
         id="path48663"
         style="fill:#231f20;fill-opacity:1;fill-rule:nonzero;stroke:none"
         d="m 1298.24,20.9883 c -26.33,-1.3672 -43.51,23.1211 -45.04,54.3711 -1.48,31.2886 13.32,57.4996 39.69,58.8706 26.33,1.372 43.56,-23.121 45.04,-54.4097 1.48,-31.25 -13.32,-57.4609 -39.69,-58.832 z m 62.97,56.6015 c 0,36.2502 -24.76,65.6292 -65.62,65.6292 -40.86,0 -65.67,-29.379 -65.67,-65.6292 0,-36.2109 24.81,-65.621 65.67,-65.621 40.86,0 65.62,29.4101 65.62,65.621" /><path
         id="path48665"
         style="fill:#231f20;fill-opacity:1;fill-rule:nonzero;stroke:none"
         d="m 1445.82,135.051 c 20.7,0 35.78,-10.27 42.07,-29.102 l 3.13,0 -0.08,28.981 c -7.62,2.468 -25.78,8.32 -43.09,8.32 -24.96,0 -39.49,-6.672 -51.56,-17.77 -16.06,-14.73 -19.57,-36.3706 -19.57,-47.7691 0,-11.3711 3.51,-33.0117 19.57,-47.7421 12.07,-11.0469 26.6,-17.7696 51.56,-17.7696 17.31,0 35.47,5.8594 43.09,8.3203 l 0.08,28.9805 -3.13,0 c -6.29,-18.8203 -21.37,-29.1016 -42.07,-29.1016 -19.06,0 -45.51,11.25 -45.51,57.3125 0,46.0901 26.45,57.3401 45.51,57.3401" /><path
         id="path48667"
         style="fill:#231f20;fill-opacity:1;fill-rule:nonzero;stroke:none"
         d="m 1214.77,50.8281 c -0.2,19.8907 -15.63,29.0703 -31.53,38.4414 -11.72,6.8789 -30.47,13.5895 -30.47,27.0705 0,12.699 10.86,19.301 23.01,19.301 17.89,0 26.25,-11.532 28.75,-25.039 l 4.22,0 0,25.308 c -6.72,3.36 -17.27,7.418 -31.48,7.418 -20.82,0 -40.55,-12.5 -41.1,-33.59 -0.35,-18.5192 10.78,-25.3474 32.38,-37.2692 14.26,-7.8907 29.11,-18.2774 29.11,-30.0391 0,-13.0391 -11.64,-21.5195 -26.57,-21.5195 -25.39,0 -31.52,19.7695 -32.38,31.0586 l -4.02,0 -0.08,-29.2969 c 8.16,-5.5117 21.01,-10.6719 35.74,-10.5117 27.81,0 44.42,17.0703 44.42,38.6679" /><path
         id="path48669"
         style="fill:#231f20;fill-opacity:1;fill-rule:nonzero;stroke:none"
         d="m 1588.91,140.719 0,-3.168 c 5.47,0 13.86,-1.09 13.86,-15.903 l 0,-87.8472 c 0,-14.8008 -8.39,-15.9024 -13.86,-15.9024 l 0,-3.1171 90.19,0 0,24.957 -3.16,0 c -1.92,-8.6289 -4.49,-16.0899 -15.86,-16.0899 l -36.33,0 0,55.6211 21.6,0 c 12.19,0 13.75,-7.8906 13.52,-13.8711 l 3.2,0 3.83,22.7813 0.62,3.75 -2.97,0 c -2.65,-3.3594 -5.27,-3.75 -11.36,-3.75 l -28.44,0 0,43.6293 30.51,0 c 11.36,0 15.08,-7.887 15.9,-13.868 l 3.12,0 0,22.778 -84.37,0" /><path
         id="path48671"
         style="fill:#231f20;fill-opacity:1;fill-rule:nonzero;stroke:none"
         d="m 1899.96,140.719 0,-3.168 c 2.5,-0.742 8.09,-3.789 3.09,-13.321 l -25.2,-44.5308 -26.95,47.0708 c -3.75,6.558 -1.45,10.781 2.77,10.781 l 0,3.168 -41.09,0 0,-3.168 c 8.55,0 13.83,-7.153 20.08,-17.379 l 30.93,-51.5236 0,-34.8476 c 0,-14.8008 -8.36,-15.9024 -13.86,-15.9024 l 0,-3.1171 48.75,0 0,3.1171 c -5.51,0 -13.87,1.1016 -13.87,15.9024 l 0,36.9492 32.5,54.379 c 5.23,7.891 9.02,10.941 15.55,12.422 l 0,3.168 -32.7,0" /><path
         id="path48673"
         style="fill:#231f20;fill-opacity:1;fill-rule:nonzero;stroke:none"
         d="m 489.77,79.4297 0,53.5113 10.031,0 c 16.961,0 25.429,-12.652 25.429,-28.941 0,-16.2891 -8.468,-28.9102 -25.429,-28.9102 l -10.031,0 0,4.3399 z m 13.859,-61.5703 c -5.469,0 -13.859,1.1015 -13.859,15.9023 l 0,32.5391 17.421,0 21.289,-29.0195 C 539.879,21.5781 559.02,3.53125 584.648,14.3516 l -0.546,2.8476 c -7.774,-1.5976 -18.243,4.5313 -29.454,17.1914 l -31.449,38.9375 c 11.922,7.9336 21.922,20.3907 21.922,37.0309 0,20.391 -13.91,30.282 -41.492,30.282 l -48.75,0 0,-3.129 c 5.512,0 13.871,-1.133 13.871,-15.903 l 0,-87.8473 c 0,-14.8008 -8.359,-15.9023 -13.871,-15.9023 l 0,-3.1602 48.75,0 0,3.1602" /><path
         id="path48675"
         style="fill:#231f20;fill-opacity:1;fill-rule:nonzero;stroke:none"
         d="m 639.449,134.23 c 26.371,1.372 43.602,-23.121 45.039,-54.4097 1.532,-31.25 -13.277,-57.4609 -39.609,-58.832 -26.359,-1.3672 -43.59,23.0898 -45.039,54.3711 -1.52,31.2496 13.281,57.4996 39.609,58.8706 z m 2.742,-122.2612 c 40.821,0 65.618,29.371 65.618,65.621 0,36.2502 -24.797,65.6292 -65.618,65.6292 -40.863,0 -65.671,-29.379 -65.671,-65.6292 0,-36.25 24.808,-65.621 65.671,-65.621" /><path
         id="path48677"
         style="fill:#231f20;fill-opacity:1;fill-rule:nonzero;stroke:none"
         d="m 727.5,120.129 30.898,-51.5196 0,-34.8477 c 0,-14.8008 -8.359,-15.9023 -13.867,-15.9023 l 0,-3.1602 48.75,0 0,3.1602 c -5.472,0 -13.871,1.1015 -13.871,15.9023 l 0,36.9571 32.5,54.3712 c 5.238,7.89 15.36,12.422 20.391,12.422 l 0,3.129 -38.59,0 0,-3.129 c 2.969,0 11.168,-0.313 4.141,-13.321 L 772.969,79.1094 745.699,126.73 c -3.75,6.559 -1.437,10.782 2.781,10.782 l 0,3.129 -43.832,0 0,-3.129 c 8.551,0 16.602,-7.153 22.852,-17.383" /><path
         id="path48679"
         style="fill:#231f20;fill-opacity:1;fill-rule:nonzero;stroke:none"
         d="m 897.66,59.5 -38.64,0 18.992,51.801 L 897.66,59.5 Z m -79.93,-41.6406 0,-3.1602 38.129,0 0,3.1289 c -8.711,0 -9.918,4.7227 -8.05,11.0508 l 8.132,22.2695 44.879,0 8.559,-22.5781 c 2.961,-8.0898 1.871,-10.7109 -4.149,-10.7109 l 0,-3.1602 44.18,0 0,3.1602 c -8.551,0 -14.14,2.7422 -20.539,17.3515 L 886.09,140.52 l -5.93,0 L 836.332,33.5313 C 830.121,18.6484 824.262,17.8594 817.73,17.8594" /><path
         id="path48681"
         style="fill:#231f20;fill-opacity:1;fill-rule:nonzero;stroke:none"
         d="m 1001.56,14.6992 56.17,0 0,25 -3.16,0 c -1.91,-8.6679 -4.49,-16.0898 -15.86,-16.0898 l -37.15,0 0,97.9996 c 0,14.77 8.4,15.903 13.91,15.903 l 0,3.129 -48.751,0 0,-3.129 c 5.472,0 13.871,-1.133 13.871,-15.903 l 0,-87.8473 c 0,-14.8008 -8.399,-15.9023 -13.871,-15.9023 l 0,-3.1602 34.841,0" /><path
         id="path48683"
         style="fill:#231f20;fill-opacity:1;fill-rule:nonzero;stroke:none"
         d="m 0.621094,204.539 0,51.289 33.597706,0 0,-5.656 -27.18755,0 0,-16.524 26.67965,0 0,-5.707 -26.67965,0 0,-23.402 -6.410156,0" /><path
         id="path48685"
         style="fill:#231f20;fill-opacity:1;fill-rule:nonzero;stroke:none"
         d="m 45.4688,224.469 0,31.359 6.371,0 0,-31.207 c 0,-9.371 5.1094,-15.312 14.5704,-15.312 9.4492,0 14.5312,5.941 14.5312,15.312 l 0,31.207 6.3594,0 0,-31.289 c 0,-12.769 -6.9922,-20.891 -20.8906,-20.891 -13.9493,0 -20.9414,8.204 -20.9414,20.821" /><path
         id="path48687"
         style="fill:#231f20;fill-opacity:1;fill-rule:nonzero;stroke:none"
         d="m 138.16,204.539 -29.922,40.941 0,-40.941 -6.398,0 0,51.289 6.558,0 29.532,-40.039 0,40.039 6.371,0 0,-51.289 -6.141,0" /><path
         id="path48689"
         style="fill:#231f20;fill-opacity:1;fill-rule:nonzero;stroke:none"
         d="m 196.051,230.172 c 0,11.047 -6.992,20 -19.68,20 l -11.141,0 0,-39.922 11.141,0 c 12.457,0 19.68,8.898 19.68,19.922 z m -37.223,-25.633 0,51.289 17.543,0 c 15.93,0 26.328,-11.129 26.328,-25.656 0,-14.613 -10.398,-25.633 -26.328,-25.633 l -17.543,0" /><path
         id="path48691"
         style="fill:#231f20;fill-opacity:1;fill-rule:nonzero;stroke:none"
         d="m 215.199,204.539 0,51.289 33.629,0 0,-5.656 -27.226,0 0,-16.524 26.679,0 0,-5.707 -26.679,0 0,-17.691 27.226,0 0,-5.711 -33.629,0" /><path
         id="path48693"
         style="fill:#231f20;fill-opacity:1;fill-rule:nonzero;stroke:none"
         d="m 298.711,230.172 c 0,11.047 -6.992,20 -19.652,20 l -11.168,0 0,-39.922 11.168,0 c 12.421,0 19.652,8.898 19.652,19.922 z m -37.191,-25.633 0,51.289 17.539,0 c 15.902,0 26.293,-11.129 26.293,-25.656 0,-14.613 -10.391,-25.633 -26.293,-25.633 l -17.539,0" /><path
         id="path48695"
         style="fill:#231f20;fill-opacity:1;fill-rule:nonzero;stroke:none"
         d="m 371.879,219.082 c 0,4.719 -3.25,8.859 -9.539,8.859 l -15.699,0 0,-17.691 15.699,0 c 6.019,0 9.539,3.398 9.539,8.832 z m -1.02,22.77 c 0,4.609 -3.05,8.32 -8.828,8.32 l -15.39,0 0,-16.524 15.39,0 c 5.778,0 8.828,3.512 8.828,8.204 z m -30.589,-37.313 0,51.289 22.82,0 c 8.941,0 14.41,-5.348 14.41,-13.039 0,-6.488 -4.301,-10.789 -9.02,-11.758 5.469,-0.859 10,-6.492 10,-12.621 0,-8.238 -5.468,-13.871 -14.851,-13.871 l -23.359,0" /><path
         id="path48697"
         style="fill:#231f20;fill-opacity:1;fill-rule:nonzero;stroke:none"
         d="m 403.789,204.539 0,21.723 -20.238,29.566 7.469,0 15.929,-23.828 15.903,23.828 7.457,0 -20.11,-29.566 0,-21.723 -6.41,0" /><path
         id="path48699"
         style="fill:#231f20;fill-opacity:1;fill-rule:nonzero;stroke:none"
         d="m 481.211,249.23 -10.902,-27.621 21.761,0 -10.859,27.621 z m 17.309,-44.691 -4.54,11.41 -25.5,0 -4.531,-11.41 -7.347,0 20.628,51.289 7.93,0 20.699,-51.289 -7.339,0" /><path
         id="path48701"
         style="fill:#231f20;fill-opacity:1;fill-rule:nonzero;stroke:none"
         d="m 567.539,240.398 c 0,5.75 -4.18,9.774 -10.238,9.774 l -13.473,0 0,-19.531 13.473,0 c 6.058,0 10.238,3.98 10.238,9.757 z m -30.078,-35.859 0,51.289 20.59,0 c 10.308,0 16.09,-7.066 16.09,-15.43 0,-8.398 -5.942,-15.468 -16.09,-15.468 l -14.223,0 0,-20.391 -6.367,0" /><path
         id="path48703"
         style="fill:#231f20;fill-opacity:1;fill-rule:nonzero;stroke:none"
         d="m 598.52,249.23 -10.899,-27.621 21.719,0 -10.82,27.621 z m 17.3,-44.691 -4.531,11.41 -25.551,0 -4.527,-11.41 -7.301,0 20.621,51.289 7.891,0 20.699,-51.289 -7.301,0" /><path
         id="path48705"
         style="fill:#231f20;fill-opacity:1;fill-rule:nonzero;stroke:none"
         d="m 662.422,240.398 c 0,5.75 -4.141,9.774 -10.231,9.774 l -13.441,0 0,-19.613 13.441,0 c 6.09,0 10.231,4.062 10.231,9.839 z m -0.391,-35.859 -13.051,20.391 -10.23,0 0,-20.391 -6.41,0 0,51.289 20.629,0 c 9.371,0 16.09,-5.969 16.09,-15.43 0,-9.218 -6.329,-14.289 -13.321,-14.918 l 13.832,-20.941 -7.539,0" /><path
         id="path48707"
         style="fill:#231f20;fill-opacity:1;fill-rule:nonzero;stroke:none"
         d="m 693.59,204.539 0,45.633 -16.25,0 0,5.656 38.949,0 0,-5.656 -16.328,0 0,-45.633 -6.371,0" /><path
         id="path48709"
         style="fill:#231f20;fill-opacity:1;fill-rule:nonzero;stroke:none"
         d="m 763.551,204.539 -29.922,40.941 0,-40.941 -6.359,0 0,51.289 6.519,0 29.531,-40.039 0,40.039 6.371,0 0,-51.289 -6.14,0" /><path
         id="path48711"
         style="fill:#231f20;fill-opacity:1;fill-rule:nonzero;stroke:none"
         d="m 784.262,204.539 0,51.289 33.59,0 0,-5.656 -27.231,0 0,-16.524 26.68,0 0,-5.707 -26.68,0 0,-17.691 27.231,0 0,-5.711 -33.59,0" /><path
         id="path48713"
         style="fill:#231f20;fill-opacity:1;fill-rule:nonzero;stroke:none"
         d="m 860.621,240.398 c 0,5.75 -4.141,9.774 -10.23,9.774 l -13.442,0 0,-19.613 13.442,0 c 6.089,0 10.23,4.062 10.23,9.839 z m -0.391,-35.859 -13.082,20.391 -10.199,0 0,-20.391 -6.398,0 0,51.289 20.621,0 c 9.379,0 16.058,-5.969 16.058,-15.43 0,-9.218 -6.289,-14.289 -13.281,-14.918 l 13.821,-20.941 -7.54,0" /><path
         id="path48715"
         style="fill:#231f20;fill-opacity:1;fill-rule:nonzero;stroke:none"
         d="m 876.762,211.77 3.789,4.839 c 3.398,-3.75 8.898,-7.3 16.129,-7.3 9.179,0 12.07,4.921 12.07,8.871 0,13.199 -30.352,5.902 -30.352,24.218 0,8.43 7.543,14.211 17.582,14.211 7.852,0 13.942,-2.609 18.239,-7.14 l -3.828,-4.688 c -3.871,4.219 -9.219,6.129 -14.84,6.129 -6.172,0 -10.551,-3.281 -10.551,-8.121 0,-11.57 30.391,-4.93 30.391,-24.07 0,-7.457 -5.082,-15.071 -18.942,-15.071 -8.91,0 -15.469,3.352 -19.687,8.122" /><path
         id="path48717"
         style="fill:#231f20;fill-opacity:1;fill-rule:nonzero;stroke:none"
         d="m 963.832,204.539 0,23.563 -30,0 0,-23.563 -6.371,0 0,51.289 6.371,0 0,-22.066 30,0 0,22.066 6.367,0 0,-51.289 -6.367,0" /><path
         id="path48719"
         style="fill:#231f20;fill-opacity:1;fill-rule:nonzero;stroke:none"
         d="m 984.73,204.539 6.41016,0 0,51.2891 -6.41016,0 0,-51.2891 z" /><path
         id="path48721"
         style="fill:#231f20;fill-opacity:1;fill-rule:nonzero;stroke:none"
         d="m 1035.74,240.398 c 0,5.75 -4.14,9.774 -10.23,9.774 l -13.44,0 0,-19.531 13.44,0 c 6.09,0 10.23,3.98 10.23,9.757 z m -30.08,-35.859 0,51.289 20.63,0 c 10.31,0 16.05,-7.066 16.05,-15.43 0,-8.398 -5.93,-15.468 -16.05,-15.468 l -14.22,0 0,-20.391 -6.41,0" /><path
         id="path48723"
         style="fill:#231f20;fill-opacity:1;fill-rule:nonzero;stroke:none"
         d="m 1073.67,230.172 c 0,15.898 11.76,26.519 26.37,26.519 9.06,0 15.39,-3.98 19.92,-9.613 l -5.08,-3.156 c -3.24,4.18 -8.67,7.066 -14.84,7.066 -11.25,0 -19.77,-8.59 -19.77,-20.816 0,-12.152 8.52,-20.942 19.77,-20.942 6.17,0 11.21,3.008 13.75,5.551 l 0,10.469 -17.58,0 0,5.699 23.99,0 0,-18.551 c -4.77,-5.32 -11.8,-8.828 -20.16,-8.828 -14.61,0 -26.37,10.66 -26.37,26.602" /><path
         id="path48725"
         style="fill:#231f20;fill-opacity:1;fill-rule:nonzero;stroke:none"
         d="m 1163.16,240.398 c 0,5.75 -4.14,9.774 -10.19,9.774 l -13.48,0 0,-19.613 13.48,0 c 6.05,0 10.19,4.062 10.19,9.839 z m -0.35,-35.859 -13.08,20.391 -10.24,0 0,-20.391 -6.4,0 0,51.289 20.62,0 c 9.38,0 16.09,-5.969 16.09,-15.43 0,-9.218 -6.32,-14.289 -13.32,-14.918 l 13.87,-20.941 -7.54,0" /><path
         id="path48727"
         style="fill:#231f20;fill-opacity:1;fill-rule:nonzero;stroke:none"
         d="m 1201.72,249.23 -10.94,-27.621 21.76,0 -10.82,27.621 z m 17.3,-44.691 -4.53,11.41 -25.54,0 -4.54,-11.41 -7.3,0 20.59,51.289 7.92,0 20.71,-51.289 -7.31,0" /><path
         id="path48729"
         style="fill:#231f20;fill-opacity:1;fill-rule:nonzero;stroke:none"
         d="m 1271.84,204.539 -29.93,40.941 0,-40.941 -6.36,0 0,51.289 6.56,0 29.53,-40.039 0,40.039 6.37,0 0,-51.289 -6.17,0" /><path
         id="path48731"
         style="fill:#231f20;fill-opacity:1;fill-rule:nonzero;stroke:none"
         d="m 1305.23,204.539 0,45.633 -16.25,0 0,5.656 38.95,0 0,-5.656 -16.33,0 0,-45.633 -6.37,0" /><path
         id="path48733"
         style="fill:#231f20;fill-opacity:1;fill-rule:nonzero;stroke:none"
         d="m 1361.29,204.539 0,51.289 33.63,0 0,-5.656 -27.26,0 0,-16.524 26.72,0 0,-5.707 -26.72,0 0,-23.402 -6.37,0" /><path
         id="path48735"
         style="fill:#231f20;fill-opacity:1;fill-rule:nonzero;stroke:none"
         d="m 1436.21,240.398 c 0,5.75 -4.18,9.774 -10.23,9.774 l -13.48,0 0,-19.613 13.48,0 c 6.05,0 10.23,4.062 10.23,9.839 z m -0.39,-35.859 -13.09,20.391 -10.23,0 0,-20.391 -6.37,0 0,51.289 20.59,0 c 9.41,0 16.09,-5.969 16.09,-15.43 0,-9.218 -6.33,-14.289 -13.32,-14.918 l 13.87,-20.941 -7.54,0" /><path
         id="path48737"
         style="fill:#231f20;fill-opacity:1;fill-rule:nonzero;stroke:none"
         d="m 1497.66,230.172 c 0,11.988 -7.39,20.816 -18.87,20.816 -11.52,0 -18.83,-8.828 -18.83,-20.816 0,-11.922 7.31,-20.863 18.83,-20.863 11.48,0 18.87,8.941 18.87,20.863 z m -44.3,0 c 0,15.16 10.19,26.519 25.43,26.519 15.16,0 25.47,-11.359 25.47,-26.519 0,-15.16 -10.31,-26.524 -25.47,-26.524 -15.24,0 -25.43,11.364 -25.43,26.524" /><path
         id="path48739"
         style="fill:#231f20;fill-opacity:1;fill-rule:nonzero;stroke:none"
         d="m 1560.62,204.539 0,42.231 -17.46,-42.231 -2.61,0 -17.39,42.231 0,-42.231 -6.36,0 0,51.289 9.14,0 15.94,-38.59 15.97,38.59 9.18,0 0,-51.289 -6.41,0" /></g></g></svg>