<?xml version="1.0" encoding="UTF-8" standalone="no"?>
<!-- Created with Inkscape (http://www.inkscape.org/) -->

<svg
   xmlns:dc="http://purl.org/dc/elements/1.1/"
   xmlns:cc="http://creativecommons.org/ns#"
   xmlns:rdf="http://www.w3.org/1999/02/22-rdf-syntax-ns#"
   xmlns:svg="http://www.w3.org/2000/svg"
   xmlns="http://www.w3.org/2000/svg"
   xmlns:sodipodi="http://sodipodi.sourceforge.net/DTD/sodipodi-0.dtd"
   xmlns:inkscape="http://www.inkscape.org/namespaces/inkscape"
   id="svg4171"
   version="1.1"
   inkscape:version="0.91 r13725"
   xml:space="preserve"
   width="226.77499"
   height="226.77499"
   viewBox="0 0 226.77499 226.77499"
   sodipodi:docname="wellcome.svg"><metadata
     id="metadata4177"><rdf:RDF><cc:Work
         rdf:about=""><dc:format>image/svg+xml</dc:format><dc:type
           rdf:resource="http://purl.org/dc/dcmitype/StillImage" /><dc:title></dc:title></cc:Work></rdf:RDF></metadata><defs
     id="defs4175" /><sodipodi:namedview
     pagecolor="#ffffff"
     bordercolor="#666666"
     borderopacity="1"
     objecttolerance="10"
     gridtolerance="10"
     guidetolerance="10"
     inkscape:pageopacity="0"
     inkscape:pageshadow="2"
     inkscape:window-width="3775"
     inkscape:window-height="2136"
     id="namedview4173"
     showgrid="false"
     inkscape:zoom="8.7443504"
     inkscape:cx="113.3875"
     inkscape:cy="113.3875"
     inkscape:window-x="65"
     inkscape:window-y="24"
     inkscape:window-maximized="1"
     inkscape:current-layer="g4179" /><g
     id="g4179"
     inkscape:groupmode="layer"
     inkscape:label="ink_ext_XXXXXX"
     transform="matrix(1.25,0,0,-1.25,0,226.775)"><g
       id="g4181"
       transform="scale(0.1,0.1)"><path
         d="m 629.707,293.34 c -5,-7.602 -15.625,-11.211 -25.078,-11.211 -18.848,0 -29.141,13.051 -30.664,31.781 l 107.598,0 0,-20.57 -51.856,0 z m -25.664,78.648 c 16.855,0 27.773,-12.129 27.773,-27.867 l -57.578,0 c 2.93,18.219 13.242,27.867 29.805,27.867 z m 77.52,-16.679 c -10.469,34.91 -36.211,54.179 -80.176,54.179 -33.926,0 -59.785,-17.218 -72.891,-42.609 l 12.012,38.672 -60.254,0 -21.524,-97.68 -1.191,0 -20.703,97.68 -54.297,0 -19.531,-97.68 -0.879,0 -23.027,97.68 -60.235,0 47.813,-157.012 59.375,0 23.027,97.121 0.859,0 22.442,-97.121 59.375,0 28.183,90.742 c -0.566,-4.14 -0.957,-8.383 -0.957,-12.703 0,-52.297 36.094,-81.969 85.059,-81.969 33.711,0 64.141,13.961 77.52,43.961 l 0,-40.031 57.558,0 0,216.012 -57.558,0 0,-109.242 z m 786.827,16.679 c 16.83,0 27.69,-12.129 27.69,-27.867 l -57.52,0 c 2.97,18.219 13.32,27.867 29.83,27.867 z m 0.6,-89.859 c -18.94,0 -29.2,13.051 -30.68,31.781 l 113.07,0 c -0.28,60.801 -26.59,95.578 -85.65,95.578 -41.07,0 -70.29,-25.226 -79.35,-59.668 l 0,6.7 c 0,25.449 -13.26,52.968 -52.31,52.968 -22.67,0 -36.62,-8.136 -44.59,-15.988 -0.82,-0.941 -1.74,-1.859 -2.32,-2.738 -2.95,-3.082 -4.45,-5.172 -5.63,-6.383 -7.34,16.34 -25.11,25.109 -41.33,25.109 -21.24,0 -38.38,-6.66 -50.47,-25.109 l -0.92,0 0,21.172 -55.82,0 0,-157.012 57.62,0 0,85.031 c 0,16.629 5,29.008 20.37,29.008 18.61,0 19.74,-14.18 19.74,-29.008 l 0,-85.031 57.94,0 0,85.031 c 0,16.629 4.98,29.008 20.31,29.008 18.32,0 19.81,-14.18 19.81,-29.008 l 0,-85.031 57.6,0 0,53.731 c 9.51,-37.051 41.21,-57.661 82.01,-57.661 35.47,0 67.36,15.411 79.45,48.731 l -53.81,0 c -4.96,-7.602 -15.6,-11.211 -25.04,-11.211 z m -419.54,5.16 c -22.73,0 -25.99,22.981 -25.99,39.922 0,16.91 3.26,39.629 25.99,39.629 22.68,0 25.96,-22.719 25.96,-39.629 0,-16.941 -3.28,-39.922 -25.96,-39.922 z m -129.86,23.34 c -1.504,-12.758 -9.414,-23.34 -24.492,-23.34 -18.594,0 -25.41,14.492 -25.41,39.641 0,19.07 4.707,39.91 26.582,39.91 13.632,0 21.816,-9.09 21.816,-24.828 l 48.848,0 c -0.704,-4.84 -1.075,-9.782 -1.075,-14.801 0,-5.633 0.45,-11.172 1.329,-16.582 l -47.598,0 z m 129.86,98.859 c -43,0 -68.395,-21.636 -78.493,-50.738 -8.457,35.328 -40.723,50.738 -74.687,50.738 -42.774,0 -75.254,-25.367 -82.618,-65.039 l 0,120.102 -57.597,0 0,-216.012 57.597,0 0,59.231 c 7.246,-41.661 38.75,-63.161 80.84,-63.161 35.996,0 65.664,17.891 76.66,50.469 10.215,-28.93 35.548,-50.469 78.298,-50.469 57.56,0 83.54,39.02 83.54,82.602 0,43.527 -25.98,82.277 -83.54,82.277 z M 1263.76,1503.26 1142.48,1042.5 c -46.21,175.74 -88.57,334.57 -95.74,360.72 -18.52,67.52 -63.478,99.96 -129.767,99.96 -71.797,0 -123.692,0.08 -123.692,0.08 -0.351,0 -0.586,0 -0.586,0 L 671.328,1042.13 549.961,1503.26 277.754,1471.62 c 0,0 149.512,-569.237 176.836,-672.518 17.48,-66.114 52.519,-110.821 119.336,-128.942 69.101,-18.769 211.387,-61.14 211.387,-61.14 l 121.582,462.43 c 36.855,-140.141 65.058,-243.149 76.113,-283.622 16.504,-60.488 56.232,-99 125.352,-119.328 93.5,-27.48 200.73,-59.48 200.73,-59.48 l 227.31,864.26 -272.64,29.98 z M 1814.17,0 0,0 l 0,1814.18 1814.17,0 0,-1814.18"
         style="fill:#000000;fill-opacity:1;fill-rule:nonzero;stroke:none"
         id="path4183"
         inkscape:connector-curvature="0" /></g></g></svg>